<svg id="eabee095-6c9a-4605-bbce-aedc539d23e4" data-name="Livello 1" xmlns="http://www.w3.org/2000/svg" viewBox="0 0 32 32"><path d="M29.84,12.15h0a.69.69,0,0,0,.11-.39.71.71,0,0,0-.22-.35l-5.49-4V3.16a1,1,0,0,0-.95-1H21.37a1,1,0,0,0-.94,1v1.4l-.08-.06L16.59,1.74a1.12,1.12,0,0,0-.51-.15H16a.87.87,0,0,0-.51.19L2.27,11.41a.6.6,0,0,0-.21.36.39.39,0,0,0,.1.37.59.59,0,0,0,.41.21.41.41,0,0,0,.33-.09l1.54-1.14V29.35H3.62a.53.53,0,0,0,0,1.06H28.43a.53.53,0,0,0,0-1.06h-.86V11.12l1.54,1.13a.56.56,0,0,0,.45.1A.41.41,0,0,0,29.84,12.15ZM21.48,3.26h1.71V6.59L21.48,5.33Zm.09,3.48L23.32,8l.05,0,.07,0,2,1.43H17.65Zm-5-3.68.08.06,4,3,0,0L16.53,9.05ZM11.38,6l4.1-3v6l-4.16-3ZM6.74,9.45l3.71-2.71,0,0,3.88,2.78H6.61ZM17.82,29.39H14.16V23.57h3.66ZM26.52,22H20.61a.55.55,0,0,0-.53.53.54.54,0,0,0,.53.52h5.87v3.1H20.61a.54.54,0,0,0-.53.52.55.55,0,0,0,.53.53h5.87v2.21H18.91V23.47a1,1,0,0,0-.95-.95H14.09a1,1,0,0,0-.95.95v5.92H5.53V27.18h5.88a.54.54,0,0,0,.52-.53.53.53,0,0,0-.52-.52H5.53V23h5.88a.53.53,0,0,0,.52-.52.54.54,0,0,0-.52-.53H5.53V18.93h21Zm0-4.15h-21V14.74h21Zm0-4.14h-21V10.63h21Z" style="fill:#4d4d4d"/></svg>