<svg id="b9f7d48c-a97e-4d3e-8392-1a73ea03a47c" data-name="Livello 1" xmlns="http://www.w3.org/2000/svg" viewBox="0 0 32 32"><path d="M30.43,28.47,26.76,15a2,2,0,0,0-1.93-1.47H17.5v-1h2.16a1,1,0,0,0,.6-.2l1.34-1a1,1,0,0,0,0-1.6l-1.34-1a1,1,0,0,0-.6-.2H17.5v-1h2.16a1,1,0,0,0,.6-.2l1.34-1a1,1,0,0,0,0-1.6l-1.34-1a1,1,0,0,0-.6-.2H17.5V2a1,1,0,0,0-1-1h-2a1,1,0,0,0-1,1V3.5h-1a1,1,0,0,0-1,1V6H9.35a1,1,0,0,0-.6.2L7.4,7.2A1,1,0,0,0,7,8a1,1,0,0,0,.4.8l1.35,1a1,1,0,0,0,.6.2H11.5v1.5a1,1,0,0,0,1,1h1v1H7.17A2,2,0,0,0,5.24,15L1.57,28.47a2,2,0,0,0,.34,1.74A2,2,0,0,0,3.49,31h25a2,2,0,0,0,1.59-.79A2,2,0,0,0,30.43,28.47ZM14.5,2h2V3.5h-2Zm-2,2.5h7.16L21,5.5l-1.34,1H12.5Zm4,3v1h-2v-1ZM11.64,9H9.35L8,8,9.35,7h2.29a1,1,0,0,0,.86.5h1v1h-1A1,1,0,0,0,11.64,9Zm.86,2.5v-2h7.16l1.34,1-1.34,1Zm4,1V20a.5.5,0,0,1-.5.5H15a.5.5,0,0,1-.5-.5V12.5ZM11.61,30H3.49a1,1,0,0,1-1-1.26l3.67-13.5a1,1,0,0,1,1-.74H13.5V17a14.15,14.15,0,0,0-3.6.5,1.88,1.88,0,0,0-1.1,1.63,2.58,2.58,0,0,1-.17.62c-.6,1.22-1,3.07-.12,4.27.41.57,1.29,1.2,3.05.94C12,25.25,12,27.58,11.61,30Zm1,0c.22-1.6.55-4.81-.34-5.71a1,1,0,0,0-.85-.28,2.1,2.1,0,0,1-2.11-.54c-.57-.79-.29-2.23.21-3.25a3.61,3.61,0,0,0,.25-.85c.11-.55.2-.81.44-.9A13.43,13.43,0,0,1,13.5,18v2A1.5,1.5,0,0,0,15,21.5h1A1.5,1.5,0,0,0,17.5,20V18.87a4.69,4.69,0,0,0,2,.63.54.54,0,0,0,.22-.05l1.33-.67c-.12.23-.28.51-.46.82A15.49,15.49,0,0,0,19,22.88a5.2,5.2,0,0,1-2.1,2.53,4.8,4.8,0,0,0-1.36,1.37c-.4.8-1.1,2.51-1.39,3.22Zm2.62,0c.33-.81.88-2.13,1.21-2.78a4.41,4.41,0,0,1,1.08-1A6.12,6.12,0,0,0,20,23.12a14.76,14.76,0,0,1,1.46-3c.2-.33.37-.63.49-.87a1,1,0,0,0-.09-1.08,1,1,0,0,0-1-.36l-.1,0-1.32.66a4.86,4.86,0,0,1-1.9-.77V14.5h7.33a1,1,0,0,1,1,.74l1.28,4.68c-1.1,0-2.72.16-3.49,1.3a5.66,5.66,0,0,0-.82,2.18,4.42,4.42,0,0,1-.68,1.82,8,8,0,0,1-1,1.2A5.57,5.57,0,0,0,19,30Zm14.05-.39a1,1,0,0,1-.79.39H20a4.75,4.75,0,0,1,1.72-2.87,10.1,10.1,0,0,0,1.18-1.35,5.66,5.66,0,0,0,.82-2.18,4.55,4.55,0,0,1,.67-1.82c.49-.73,1.78-.91,2.93-.84l2.12,7.8A1,1,0,0,1,29.29,29.61Z" style="fill:#4d4d4d"/></svg>