<svg id="e2955347-82d8-429d-bb0c-2ba9c5d82876" data-name="Livello 1" xmlns="http://www.w3.org/2000/svg" viewBox="0 0 32 32"><path d="M17.68,31.91l-.57-.82a2.17,2.17,0,0,0,.81-1.84l0-.29,1.58-1.1a36.17,36.17,0,0,0,4.79-4L30.1,18a2.7,2.7,0,0,0,.76-1.42,4.82,4.82,0,0,0,.08-.71.36.36,0,0,0-.11-.26.46.46,0,0,0-.25-.11,5,5,0,0,0-.72.09,2.69,2.69,0,0,0-1.42.75L22.6,22.17a36.13,36.13,0,0,0-4,4.8l-1.11,1.57-.29,0a2.12,2.12,0,0,0-1.83.81l-.82-.58A3.08,3.08,0,0,1,17,27.52l.79-1.12a36.82,36.82,0,0,1,4.13-4.93l5.84-5.85a3.7,3.7,0,0,1,1.94-1,5.69,5.69,0,0,1,.86-.1,1.29,1.29,0,0,1,1,.4,1.34,1.34,0,0,1,.4,1,5.69,5.69,0,0,1-.1.86,3.72,3.72,0,0,1-1,1.93L25,24.54A36.89,36.89,0,0,1,20,28.68l-1.12.78A3.08,3.08,0,0,1,17.68,31.91Z" style="fill:#4d4d4d"/><path d="M30.43,31.47l-5.77-7.41.79-.62,5,6.41c.37-1.12-.53-3.08-1.87-6-.36-.78-.75-1.62-1.15-2.54l.92-.4c.4.91.78,1.75,1.14,2.53,1.76,3.86,2.82,6.19,1.35,7.66Z" style="fill:#4d4d4d"/><path d="M22.38,21.78,15,16l.4-.4c1.46-1.47,3.8-.4,7.66,1.36.77.35,1.61.74,2.52,1.14l-.4.91-2.54-1.14c-2.95-1.35-4.91-2.24-6-1.88L23,21Z" style="fill:#4d4d4d"/><rect x="15.93" y="29.35" width="1.32" height="1" transform="translate(-16.25 20.47) rotate(-45)" style="fill:#4d4d4d"/><path d="M14,27.89A13.95,13.95,0,1,1,28,13.94v.32l-1,0v-.3A12.94,12.94,0,1,0,14,26.89Z" style="fill:#4d4d4d"/><path d="M14,25.09A11.15,11.15,0,1,1,25.15,13.94h-1A10.15,10.15,0,1,0,14,24.09Z" style="fill:#4d4d4d"/><rect x="13.5" y="5.37" width="1" height="1.66" style="fill:#4d4d4d"/><rect x="8.02" y="7.63" width="1" height="1.66" transform="translate(-3.49 8.51) rotate(-45)" style="fill:#4d4d4d"/><rect x="5.42" y="13.44" width="1.66" height="1" style="fill:#4d4d4d"/><rect x="7.69" y="18.92" width="1.66" height="1" transform="translate(-11.24 11.72) rotate(-45)" style="fill:#4d4d4d"/><rect x="18.65" y="7.96" width="1.66" height="1" transform="translate(-0.28 16.25) rotate(-45)" style="fill:#4d4d4d"/><polygon points="14.5 14.44 10.02 14.44 10.02 13.44 13.5 13.44 13.5 9.25 14.5 9.25 14.5 14.44" style="fill:#4d4d4d"/></svg>