<svg id="b558e4bb-3224-46ef-ab03-4bca9c07612d" data-name="Livello 1" xmlns="http://www.w3.org/2000/svg" viewBox="0 0 32 32"><path d="M17.63,28.41a.46.46,0,0,0,.48-.48V26.8h0c.79-.16,1.25-.54,1.25-1.05v-2h0c5.56-1.22,9.44-5.3,9.44-9.9,0-3.93-3.07-7.69-7.63-9.37h0V4.39a1.22,1.22,0,0,0,0-.32V3.29A1.34,1.34,0,0,0,19.92,2H16.48V.53a.48.48,0,0,0-1,0V2H12.07a1.34,1.34,0,0,0-1.33,1.34v.78a1.47,1.47,0,0,0,0,.32l0,.05h-.05C6.12,6.08,3.12,9.76,3.12,13.82c0,4.6,3.88,8.67,9.44,9.9h0v2c0,.51.46.89,1.24,1.05h0v1.13a.49.49,0,0,0,1,0V26.86h.59v1.23l0,0a1.29,1.29,0,0,0-.41,2.1,1,1,0,0,0,.41.27h0v1a.46.46,0,0,0,.48.48.46.46,0,0,0,.48-.48v-1h0a2.54,2.54,0,0,0,.42-.25,1.29,1.29,0,0,0,.37-.92,1.26,1.26,0,0,0-.38-.92,1,1,0,0,0-.4-.27h0V26.86h.75v1.07A.46.46,0,0,0,17.63,28.41ZM21.7,5.63C25.5,7.32,28,10.52,28,13.78S25.64,20.19,22,21.84l-.17.08.1-.15C26.71,15,23.31,8.29,21.63,5.7l-.09-.14ZM20.12,22.55h0a17,17,0,0,1-1.78.36l-.09,0,0-.08c3.31-7.63.85-15.24,0-17.39l0-.07H20a.78.78,0,0,0,.21,0h0l0,0C21,6.33,27.09,14.66,20.12,22.55Zm-3,.39a.2.2,0,0,0-.05.09v0h0c-.35,0-.7,0-1,0s-.84,0-1.23-.06H14.7v0c-3.56-7.88-.62-16,0-17.6v0h2.48v0C17.82,7,20.77,15.17,17.13,22.94ZM11.74,3.29a.38.38,0,0,1,.37-.37h7.81a.38.38,0,0,1,.38.37v.78a.38.38,0,0,1-.38.37H12.11a.38.38,0,0,1-.37-.37ZM9.91,21.79c-3.57-1.7-5.79-4.75-5.79-8S6.48,7.34,10.27,5.7l.16-.07-.09.14a17.13,17.13,0,0,0-2.61,6.61A12.5,12.5,0,0,0,10,21.72l.11.15Zm2,.74h0c-7.06-8-.81-16.23-.07-17.14l0,0h0a1.37,1.37,0,0,0,.28,0h1.62l0,.07c-.81,2.18-3.2,9.88-.1,17.39l0,.08h-.09A15,15,0,0,1,11.87,22.53Zm4.34,7h0a.31.31,0,0,1-.22.08h0a.31.31,0,0,1-.22-.08.32.32,0,0,1-.09-.23.28.28,0,0,1,.09-.22A.31.31,0,0,1,16,29a.39.39,0,0,1,.23.07A.38.38,0,0,1,16.21,29.49Zm-1.49-3.64a2.31,2.31,0,0,1-1.09-.21h0V23.88h.05a18.75,18.75,0,0,0,2.38.17,18.47,18.47,0,0,0,2.37-.17h.06v1.75h0a2.21,2.21,0,0,1-1.08.21Z" style="fill:#4d4d4d"/></svg>