<svg id="a3ac1866-e302-4be2-8976-e70d22dc74bf" data-name="Livello 1" xmlns="http://www.w3.org/2000/svg" viewBox="0 0 32 32"><path d="M20.11,19.51H11.88a2.24,2.24,0,0,0-2.23,2.23v3.42a2.25,2.25,0,0,0,2.23,2.23h8.23a2.24,2.24,0,0,0,2.23-2.23V21.74A2.23,2.23,0,0,0,20.11,19.51Zm1.11,5.65a1.11,1.11,0,0,1-1.11,1.11H11.88a1.12,1.12,0,0,1-1.11-1.11V21.74a1.11,1.11,0,0,1,1.11-1.11h8.23a1.11,1.11,0,0,1,1.11,1.11Z" style="fill:#4d4d4d"/><path d="M26.89,20.27h-.3V15.13A7.2,7.2,0,0,0,26,12.27a6.09,6.09,0,0,0,.58-2.59V7.54a3.48,3.48,0,0,0-1.24-2.65V2.52A1.52,1.52,0,0,0,23.83,1H22.35a1.52,1.52,0,0,0-1.52,1.52V4.07H19.32V3.32A2.32,2.32,0,0,0,17,1H15a2.31,2.31,0,0,0-2.31,2.32v.75H11.17V2.52A1.52,1.52,0,0,0,9.65,1H8.17A1.52,1.52,0,0,0,6.65,2.52V4.89A3.45,3.45,0,0,0,5.41,7.54V9.68A6.12,6.12,0,0,0,6,12.27a7,7,0,0,0-.58,2.86v5.14h-.3a2.6,2.6,0,0,0-2.6,2.6v2.58a2.62,2.62,0,0,0,2.6,2.61H5.9A5.15,5.15,0,0,0,10.54,31H21.46a5.15,5.15,0,0,0,4.64-2.94h.79a2.62,2.62,0,0,0,2.6-2.61V22.87A2.6,2.6,0,0,0,26.89,20.27ZM22,2.52a.4.4,0,0,1,.4-.4h1.48a.4.4,0,0,1,.4.4V4.25a3.55,3.55,0,0,0-1.12-.18H22Zm-8.15.8A1.19,1.19,0,0,1,15,2.12h2a1.2,1.2,0,0,1,1.19,1.2v.75H13.8ZM8.17,2.12H9.65a.4.4,0,0,1,.4.4V4.07H8.88a3.53,3.53,0,0,0-1.11.18V2.52A.4.4,0,0,1,8.17,2.12ZM6.53,7.54A2.35,2.35,0,0,1,8.88,5.19H23.11a2.36,2.36,0,0,1,2.36,2.35V9.68a4.92,4.92,0,0,1-4.92,4.92H18.37V14A1.42,1.42,0,0,0,17,12.58h-1.9A1.42,1.42,0,0,0,13.63,14v.6H11.45A4.92,4.92,0,0,1,6.53,9.68Zm8.22,7.62V14a.29.29,0,0,1,.3-.3H17a.29.29,0,0,1,.3.29h0v2.33a.29.29,0,0,1-.3.3h-1.9a.29.29,0,0,1-.3-.29h0ZM3.63,25.45V22.87a1.48,1.48,0,0,1,1.48-1.48h.3v4.48a5.47,5.47,0,0,0,.11,1.07H5.11A1.49,1.49,0,0,1,3.63,25.45Zm17.83,4.43H10.54a4,4,0,0,1-3.75-2.59,3.8,3.8,0,0,1-.26-1.42V15.13a6.08,6.08,0,0,1,.22-1.65,6,6,0,0,0,4.7,2.24h2.18v.61a1.42,1.42,0,0,0,1.42,1.42H17a1.42,1.42,0,0,0,1.42-1.42v-.61h2.18a6,6,0,0,0,4.7-2.24,6.08,6.08,0,0,1,.22,1.65V25.87a4.11,4.11,0,0,1-.26,1.43A4,4,0,0,1,21.46,29.88Zm6.91-4.43a1.5,1.5,0,0,1-1.48,1.49h-.41a5.47,5.47,0,0,0,.11-1.07V21.39h.3a1.49,1.49,0,0,1,1.48,1.48Z" style="fill:#4d4d4d"/></svg>