<svg id="b2ee8d72-0b14-4c8d-add9-1f63f9d24664" data-name="Livello 1" xmlns="http://www.w3.org/2000/svg" viewBox="0 0 32 32"><path d="M27.54,31.64A.6.6,0,0,0,28.1,31V28.5h1.24a.6.6,0,0,0,.56-.63,4.9,4.9,0,0,0-1.29-3.35,4.17,4.17,0,0,0-3.08-1.38H18.2V12.52h9.55a.6.6,0,0,0,.56-.63C28.31,5.53,23.52.36,17.64.36S7,5.53,7,11.89a.6.6,0,0,0,.56.63h9.55V23.14h-6l0,0L8.44,20.3a4.14,4.14,0,0,0-6.17,0,.64.64,0,0,0-.17.45.66.66,0,0,0,.17.45l6.39,6.89-.06.18,0,.07L8,30.84a.64.64,0,0,0,.4.78.54.54,0,0,0,.39-.06A.62.62,0,0,0,9,31.18l.65-2.68H27V31A.6.6,0,0,0,27.54,31.64ZM21.35,2.42a10.24,10.24,0,0,1,5.8,8.51l0,.33H22.91V11a20.32,20.32,0,0,0-1.42-7A11.63,11.63,0,0,0,21,2.85L20.48,2Zm-9,8.84H8.1l0-.33a10.24,10.24,0,0,1,5.8-8.51L14.8,2l-.47.82a11.63,11.63,0,0,0-.53,1.06A20.33,20.33,0,0,0,12.38,11Zm1.12,0v-.32c.2-5.14,2.05-9.32,4.14-9.32s3.94,4.18,4.14,9.32v.32Zm-4,16-.09-.1L3.49,20.77l.33-.19a3.13,3.13,0,0,1,3.84.62l2.8,3a.52.52,0,0,0,.38.17H25.53a3.31,3.31,0,0,1,3.11,2.46l.11.4Z" style="fill:#4d4d4d"/></svg>