<svg id="a7451047-0807-40ad-98ca-aa72db314b5b" data-name="Livello 1" xmlns="http://www.w3.org/2000/svg" viewBox="0 0 32 32"><path d="M30.28,24V17.79a1.52,1.52,0,0,0-1.15-1.46l-.14,0,0-.11H28.9v-.68a2.45,2.45,0,0,0-1.14-2.06l-.15-.09V7.44A2.46,2.46,0,0,0,25.12,5H7.79A2.47,2.47,0,0,0,5.3,7.44v5.92l-.15.09A2.46,2.46,0,0,0,4,15.51v.76l-.23.06a1.52,1.52,0,0,0-1.15,1.46V24a1.52,1.52,0,0,0,1.47,1.5h.29v1a.52.52,0,0,0,1,0v-1H27.48v1A.51.51,0,0,0,28,27a.51.51,0,0,0,.52-.5v-1h.29A1.52,1.52,0,0,0,30.28,24ZM6.33,7.44A1.45,1.45,0,0,1,7.79,6H25.12a1.45,1.45,0,0,1,1.46,1.44v5.61H24.86V11.31a1.52,1.52,0,0,0-1.54-1.5H18.87a1.52,1.52,0,0,0-1.54,1.5v1.74H15.58V11.31A1.52,1.52,0,0,0,14,9.81H9.59a1.52,1.52,0,0,0-1.54,1.5v1.74H6.33Zm17.49,3.87v1.24a.5.5,0,0,1-.5.5H18.87a.5.5,0,0,1-.5-.5V11.31a.5.5,0,0,1,.5-.5h4.45A.5.5,0,0,1,23.82,11.31Zm-9.27,0v1.24a.51.51,0,0,1-.51.5H9.59a.51.51,0,0,1-.5-.5V11.31a.5.5,0,0,1,.5-.5H14A.5.5,0,0,1,14.55,11.31ZM5,15.51a1.47,1.47,0,0,1,1.49-1.46H26.38a1.47,1.47,0,0,1,1.49,1.46v.77H5Zm24.21,8.76h-.11a.51.51,0,0,1-.4.19H4.17a.5.5,0,0,1-.51-.5V17.79a.5.5,0,0,1,.51-.5H28.74a.5.5,0,0,1,.51.5Z" style="fill:#4d4d4d"/></svg>