<svg id="e94b34b4-fc0b-4355-918b-6063f20218fd" data-name="Livello 1" xmlns="http://www.w3.org/2000/svg" viewBox="0 0 32 32"><path d="M31.5,14.89h0a6.86,6.86,0,0,0-.2-1.1c0-.08-.06-.15-.08-.22l0,0a.5.5,0,1,0-.38-.92h0a6.13,6.13,0,0,0-.76-1.12l0,0a.51.51,0,0,0,0-.71.5.5,0,0,0-.71,0l0,0a5.31,5.31,0,0,0-.91-.64l-.21-.11v0a.5.5,0,0,0-.93-.38v0A6.14,6.14,0,0,0,26,9.41v0a.5.5,0,0,0-1,0v0a5.79,5.79,0,0,0-1.09.19l-.23.08v0a.5.5,0,0,0-.93.38v0l-.44.25L18.53,5.25l.73-.44a.44.44,0,0,0,.21-.27l.44-1.3.81-.41a.5.5,0,1,0-.44-.89l-1,.5a.48.48,0,0,0-.25.29l-.45,1.32-2.16,1.3-1.8-.45a.45.45,0,0,0-.34,0l-1,.5a.5.5,0,0,0-.23.67.52.52,0,0,0,.45.28.43.43,0,0,0,.22-.06l.84-.41,1.82.45a.51.51,0,0,0,.38-.06l.9-.54.71,1-7.74,5.46L8.38,9.56a.52.52,0,0,0-.22-.14,2.67,2.67,0,0,0,.32-.53A12.86,12.86,0,0,1,9.88,6.7a.47.47,0,0,0,0-.63A.48.48,0,0,0,9.26,6L4.31,8.69a.48.48,0,0,0-.24.3.52.52,0,0,0,.06.39,2.26,2.26,0,0,0,1.94,1.3h.1a2.41,2.41,0,0,0,1.38-.59.75.75,0,0,0,.07.12l2.32,2.71-1.32,3a.51.51,0,0,0-.29.27v0A6.14,6.14,0,0,0,7,15.91v0a.5.5,0,0,0-1,0v0a5.79,5.79,0,0,0-1.09.19l-.23.08v0a.5.5,0,0,0-.93.38v0a5.81,5.81,0,0,0-1.12.76l0,0a.5.5,0,0,0-.71,0,.51.51,0,0,0,0,.71h0a5.94,5.94,0,0,0-.74,1.13h0a.5.5,0,0,0-.38.92h0a5.91,5.91,0,0,0-.26,1.33h0a.5.5,0,0,0-.5.5.5.5,0,0,0,.5.5h0a6.08,6.08,0,0,0,.19,1.09c0,.08.06.15.08.22l0,0a.5.5,0,0,0,.19,1,.43.43,0,0,0,.19,0h0a6.13,6.13,0,0,0,.76,1.12l0,0a.51.51,0,0,0,0,.71.51.51,0,0,0,.36.15.5.5,0,0,0,.35-.15l0,0a5.31,5.31,0,0,0,.91.64l.21.11v0a.51.51,0,0,0,.27.65.46.46,0,0,0,.19,0,.51.51,0,0,0,.47-.31v0A5.42,5.42,0,0,0,6,27.85v0a.5.5,0,0,0,1,0v0a5.77,5.77,0,0,0,1.09-.18,2.18,2.18,0,0,0,.23-.09v0a.51.51,0,0,0,.47.31.46.46,0,0,0,.19,0,.51.51,0,0,0,.27-.65v0a5.2,5.2,0,0,0,1.11-.76l0,0a.49.49,0,0,0,.35.15.51.51,0,0,0,.36-.15.51.51,0,0,0,0-.71l0,0a7.3,7.3,0,0,0,.64-.9c0-.07.07-.15.11-.22h0a.43.43,0,0,0,.19,0,.5.5,0,0,0,.19-1h0a5.51,5.51,0,0,0,.26-1.32h0a.5.5,0,0,0,.5-.5.5.5,0,0,0-.5-.5h0a6.12,6.12,0,0,0-.18-1l1-.35a2.55,2.55,0,0,0,1,1.06A2.5,2.5,0,0,0,17,16.92l3.19-7.75,1.11,1.49a.47.47,0,0,0-.43.13.51.51,0,0,0,0,.71h0a5.94,5.94,0,0,0-.74,1.13h0a.5.5,0,0,0-.38.92h0a5.91,5.91,0,0,0-.26,1.33h0a.5.5,0,0,0-.5.5.5.5,0,0,0,.5.5h0A6.08,6.08,0,0,0,19.72,17c0,.08.06.15.08.22l0,0a.5.5,0,0,0,.19,1,.43.43,0,0,0,.19,0h0a6.13,6.13,0,0,0,.76,1.12l0,0a.51.51,0,0,0,0,.71.51.51,0,0,0,.36.15.5.5,0,0,0,.35-.15l0,0a5.31,5.31,0,0,0,.91.64l.21.11v0a.51.51,0,0,0,.27.65.46.46,0,0,0,.19,0,.51.51,0,0,0,.47-.31v0a5.42,5.42,0,0,0,1.32.26v0a.5.5,0,0,0,1,0v0a5.77,5.77,0,0,0,1.09-.18,2.18,2.18,0,0,0,.23-.09v0a.51.51,0,0,0,.47.31.46.46,0,0,0,.19,0,.51.51,0,0,0,.27-.65v0A5.2,5.2,0,0,0,29.36,20l0,0a.49.49,0,0,0,.35.15A.51.51,0,0,0,30.1,20a.51.51,0,0,0,0-.71l0,0a7.3,7.3,0,0,0,.64-.9c0-.07.07-.15.11-.22h0a.43.43,0,0,0,.19,0,.5.5,0,0,0,.19-1h0a5.51,5.51,0,0,0,.26-1.32h0a.5.5,0,0,0,.5-.5A.5.5,0,0,0,31.5,14.89ZM6.12,9.68a1.08,1.08,0,0,1-.83-.4L7.9,7.84q-.18.32-.33.63A2,2,0,0,1,6.12,9.68Zm7.5,7.53h0a2.24,2.24,0,0,0-.31.43A2.41,2.41,0,0,0,13,19l-.61.22a.49.49,0,0,0-.55-.12h0A6.13,6.13,0,0,0,11.07,18l0,0a.51.51,0,0,0,0-.71.5.5,0,0,0-.71,0l0,0a5.31,5.31,0,0,0-.91-.64.2.2,0,0,0-.08,0l1.28-2.87ZM11,19.74,7.43,21,9,17.56A4.9,4.9,0,0,1,11,19.74Zm-.16,4.61a5,5,0,0,1-9.17-1.14,5,5,0,0,1,3.49-6.14,4.73,4.73,0,0,1,1.33-.18,5.09,5.09,0,0,1,1.56.25L6,21.68a.5.5,0,0,0,.46.71.51.51,0,0,0,.17,0l4.67-1.67A5,5,0,0,1,10.85,24.35Zm5.05-4a1.47,1.47,0,0,1-1.14-.14,1.5,1.5,0,0,1,.34-2.75,1.37,1.37,0,0,1,.4-.05,1.5,1.5,0,0,1,.4,2.94Zm.23-3.85a2.36,2.36,0,0,0-1.29,0,2.6,2.6,0,0,0-.42.15.25.25,0,0,0,0-.07L11.28,13l7.59-5.36.57.85Zm10.7,3.72a5,5,0,0,1-4.7-8.47l3,4a.51.51,0,0,0,.4.2.57.57,0,0,0,.3-.1.5.5,0,0,0,.1-.7l-3-4a4.78,4.78,0,0,1,1.24-.55,4.73,4.73,0,0,1,1.33-.18,5,5,0,0,1,4.35,7.46A4.94,4.94,0,0,1,26.83,20.2Z" style="fill:#4d4d4d"/><path d="M31,19.88l-2.4,1.92-8.66,1.59a.55.55,0,0,0-.24.12l-3.89,3.4-4.25.56-.11,0L7,29.15a.5.5,0,0,0-.3.64.51.51,0,0,0,.47.32.38.38,0,0,0,.18,0l4.36-1.62,4.35-.58a.48.48,0,0,0,.26-.12l3.9-3.41,8.65-1.59a.49.49,0,0,0,.22-.1l2.5-2a.5.5,0,0,0-.63-.78Z" style="fill:#4d4d4d"/></svg>