<svg id="e395964a-394e-4371-b4d1-2810e955ea6a" data-name="Livello 1" xmlns="http://www.w3.org/2000/svg" viewBox="0 0 32 32"><path d="M25.57,29.7H6a3.18,3.18,0,1,1,0-6.35H25.09a.5.5,0,0,1,.38.83,3.62,3.62,0,0,0-.64,3.75.51.51,0,0,1-.23.67.5.5,0,0,1-.67-.24,4.27,4.27,0,0,1,.22-4H6A2.18,2.18,0,1,0,6,28.7H25.57a2.59,2.59,0,0,0,2.58-2.58V3.8a.5.5,0,0,0-.5-.5H7.13a.51.51,0,0,0-.5.5V22.36a.5.5,0,0,1-.5.5.51.51,0,0,1-.5-.5V3.8a1.5,1.5,0,0,1,1.5-1.5H27.65a1.5,1.5,0,0,1,1.5,1.5V26.12A3.59,3.59,0,0,1,25.57,29.7Z" style="fill:#4d4d4d"/><path d="M21.47,9.88H13.21a.5.5,0,0,1-.5-.5.5.5,0,0,1,.5-.5h8.26a.5.5,0,0,1,.5.5A.5.5,0,0,1,21.47,9.88Z" style="fill:#4d4d4d"/><path d="M21.47,13.39H13.21a.5.5,0,0,1,0-1h8.26a.5.5,0,0,1,0,1Z" style="fill:#4d4d4d"/><path d="M21.47,16.89H13.21a.5.5,0,0,1-.5-.5.5.5,0,0,1,.5-.5h8.26a.5.5,0,0,1,.5.5A.5.5,0,0,1,21.47,16.89Z" style="fill:#4d4d4d"/></svg>