<svg id="e5bd328c-380d-4b90-a6f0-48dbeef4b9d5" data-name="Livello 1" xmlns="http://www.w3.org/2000/svg" viewBox="0 0 32 32"><path d="M13.26,13.44,7.58,15.23a.51.51,0,0,0-.36.57.52.52,0,0,0,.51.44.41.41,0,0,0,.16,0l5.68-1.78a.52.52,0,0,0-.31-1Z" style="fill:#4d4d4d"/><path d="M24.42,15.23l-5.68-1.79a.52.52,0,0,0-.31,1l5.68,1.78a.41.41,0,0,0,.16,0,.52.52,0,0,0,.51-.44A.51.51,0,0,0,24.42,15.23Z" style="fill:#4d4d4d"/><path d="M9.28,9.8H7.73a.52.52,0,0,0,0,1H9.28a.52.52,0,1,0,0-1Z" style="fill:#4d4d4d"/><path d="M22.72,10.83h1.55a.52.52,0,0,0,0-1H22.72a.52.52,0,1,0,0,1Z" style="fill:#4d4d4d"/><path d="M16,21.17a.51.51,0,0,0-.52.51v3.1a.52.52,0,0,0,1,0v-3.1A.51.51,0,0,0,16,21.17Z" style="fill:#4d4d4d"/><path d="M31,30.47c-.56,0-.83-.31-1.26-.84a2.36,2.36,0,0,0-4.14,0c-.43.53-.7.84-1.26.84a1.25,1.25,0,0,1-1-.51l4.49-15.38a1,1,0,0,0-.06-.79,1,1,0,0,0-.61-.5l-.31-.1V8.77a1,1,0,0,0-1-1V6.18a1,1,0,0,0-1-1V3.6a1,1,0,0,0-1-1h-.52v-1h.52a.52.52,0,1,0,0-1h-15a.52.52,0,1,0,0,1h.51v1h-1a1,1,0,0,0-1,1V5.15a1,1,0,0,0-1,1V7.73a1,1,0,0,0-1,1v4.42l-.3.09a1,1,0,0,0-.69,1.29l4.07,13.9a2.6,2.6,0,0,0-.56-.07,2.53,2.53,0,0,0-2.06,1.23c-.44.53-.71.84-1.27.84s-.82-.31-1.26-.84A2.53,2.53,0,0,0,1,28.4a.52.52,0,1,0,0,1c.55,0,.82.31,1.26.84A2.53,2.53,0,0,0,4.34,31.5a2.55,2.55,0,0,0,2.07-1.23c.43-.53.7-.84,1.26-.84s.83.31,1.26.84A2.55,2.55,0,0,0,11,31.5a2.55,2.55,0,0,0,2.07-1.23c.43-.53.7-.84,1.26-.84s.83.31,1.26.84a2.55,2.55,0,0,0,2.07,1.23,2.55,2.55,0,0,0,2.07-1.23c.43-.53.7-.84,1.26-.84s.83.31,1.26.84a2.55,2.55,0,0,0,2.07,1.23,2.52,2.52,0,0,0,2.06-1.23c.44-.53.71-.84,1.27-.84s.83.31,1.26.84A2.57,2.57,0,0,0,31,31.5a.52.52,0,1,0,0-1ZM16.52,1.53H22.2v1H16.52Zm-6.2,0h5.16v1H10.32ZM7.22,6.18H9.28a.52.52,0,1,0,0-1h-1V3.6h15.5V5.15h-1a.52.52,0,1,0,0,1h2.06V7.73H7.22Zm-1,2.59H25.82v4.09l-9.49-3a.94.94,0,0,0-.64,0l-9.51,3ZM22.53,29A2.12,2.12,0,0,0,21,28.4a2.55,2.55,0,0,0-2.07,1.23c-.43.53-.7.84-1.26.84s-.83-.31-1.26-.84a2.55,2.55,0,0,0-2.07-1.23,2.55,2.55,0,0,0-2.07,1.23c-.43.53-.7.84-1.26.84s-.83-.31-1.26-.84l-.15-.19L5.16,14.27,15.48,11V19.1a.52.52,0,0,0,1,0V11l10.32,3.26Z" style="fill:#4d4d4d"/></svg>