<svg width="17" height="16" viewBox="0 0 17 16" fill="none" xmlns="http://www.w3.org/2000/svg">
<path d="M8.82353 15C8.60077 15 8.38601 14.9188 8.21864 14.7714C7.58654 14.2156 6.97712 13.6932 6.43944 13.2324L6.43669 13.23C4.86031 11.879 3.49905 10.7123 2.55191 9.56301C1.49315 8.27817 1 7.05996 1 5.72914C1 4.43613 1.44086 3.24325 2.24129 2.37008C3.05127 1.48659 4.16267 1 5.37113 1C6.27434 1 7.10151 1.28717 7.82959 1.85348C8.19704 2.13933 8.5301 2.48918 8.82353 2.89725C9.11708 2.48918 9.45002 2.13933 9.81759 1.85348C10.5457 1.28717 11.3728 1 12.276 1C13.4844 1 14.5959 1.48659 15.4059 2.37008C16.2063 3.24325 16.6471 4.43613 16.6471 5.72914C16.6471 7.05996 16.154 8.27817 15.0953 9.56289C14.1481 10.7123 12.787 11.8789 11.2108 13.2298C10.6722 13.6913 10.0618 14.2145 9.4283 14.7717C9.26105 14.9188 9.04617 15 8.82353 15ZM5.37113 1.92179C4.42172 1.92179 3.54955 2.30285 2.91506 2.99485C2.27113 3.6973 1.91646 4.66832 1.91646 5.72914C1.91646 6.84842 2.33011 7.84945 3.25755 8.97486C4.15396 10.0627 5.48728 11.2054 7.03108 12.5285L7.03394 12.5309C7.57365 12.9935 8.18546 13.5179 8.82222 14.0778C9.4628 13.5168 10.0756 12.9916 10.6163 12.5283C12.16 11.2051 13.4932 10.0627 14.3896 8.97486C15.317 7.84945 15.7306 6.84842 15.7306 5.72914C15.7306 4.66832 15.3759 3.6973 14.732 2.99485C14.0976 2.30285 13.2253 1.92179 12.276 1.92179C11.5806 1.92179 10.942 2.14414 10.3782 2.58258C9.87572 2.97348 9.52571 3.46764 9.3205 3.8134C9.21497 3.9912 9.02922 4.09733 8.82353 4.09733C8.61784 4.09733 8.43209 3.9912 8.32656 3.8134C8.12147 3.46764 7.77145 2.97348 7.26888 2.58258C6.70505 2.14414 6.0665 1.92179 5.37113 1.92179Z" fill="#FF4758" stroke="#FF4758" stroke-width="0.5"/>
</svg>
