<svg id="b117cc01-52cb-46df-a452-757977a6cf51" data-name="Livello 1" xmlns="http://www.w3.org/2000/svg" viewBox="0 0 32 32"><path d="M22.67,31.5H7.47C4.41,31.5.39,28.42.18,27.15a.49.49,0,0,1,.12-.4.49.49,0,0,1,.38-.18H8.85c-4-3.1-6.35-9.71-6-13.22a.51.51,0,0,1,.5-.45h23.5a.51.51,0,0,1,.5.45,8.59,8.59,0,0,1-.08,2.06,4.28,4.28,0,0,1,3.59.6A2.79,2.79,0,0,1,31.74,19c-.3,1.54-1.94,2.14-3.84,2.83a22.17,22.17,0,0,0-3.66,1.6.44.44,0,0,1-.22.07,14.22,14.22,0,0,1-2.75,3.11h8.19a.53.53,0,0,1,.39.18.52.52,0,0,1,.11.4C29.74,28.48,25.42,31.5,22.67,31.5ZM1.58,27.57c1,1.07,3.77,2.93,5.89,2.93h15.2c2,0,4.81-1.86,5.87-2.93Zm9.06-1H19.5a.41.41,0,0,1,.11-.07c3.65-2,6.81-8.71,6.74-12.6H3.79c-.06,3.63,2.63,10.32,6.74,12.6A.41.41,0,0,1,10.64,26.57ZM27,16.51A20.9,20.9,0,0,1,25,21.88c.89-.42,1.77-.74,2.57-1,1.74-.64,3-1.09,3.2-2.08a1.87,1.87,0,0,0-.55-2A3.55,3.55,0,0,0,27,16.51Zm-8.16,8.6a.5.5,0,0,1-.24-.94c2.2-1.22,4.64-5.12,5.23-8.35a.5.5,0,0,1,.58-.4.5.5,0,0,1,.4.58c-.57,3.15-3,7.54-5.73,9.05A.53.53,0,0,1,18.88,25.11Zm.61-14.91a.5.5,0,0,1-.34-.13,3.18,3.18,0,0,1-.38-4.22A2.11,2.11,0,0,0,18.58,3a.51.51,0,0,1,0-.71.5.5,0,0,1,.71,0,3.1,3.1,0,0,1,.27,4.1,2.22,2.22,0,0,0,.25,2.89.49.49,0,0,1,0,.7A.51.51,0,0,1,19.49,10.2Zm-8.23,0a.5.5,0,0,1-.34-.13,3.18,3.18,0,0,1-.38-4.22A2.11,2.11,0,0,0,10.35,3a.51.51,0,0,1,0-.71.5.5,0,0,1,.71,0,3.1,3.1,0,0,1,.27,4.1,2.22,2.22,0,0,0,.25,2.89.49.49,0,0,1,0,.7A.51.51,0,0,1,11.26,10.2Zm4-.51a.49.49,0,0,1-.3-.1A3.3,3.3,0,0,1,13.65,7.3a3.5,3.5,0,0,1,.82-2.59,2.2,2.2,0,0,0-.26-3.33.51.51,0,0,1-.05-.71.49.49,0,0,1,.7-.05,3.21,3.21,0,0,1,.37,4.75,2.45,2.45,0,0,0-.58,1.83,2.29,2.29,0,0,0,.94,1.6.5.5,0,0,1-.31.89Z" style="fill:#4d4d4d"/></svg>