<svg id="a9b19fa8-3efe-4a37-9c4b-7dab905b17d8" data-name="Livello 1" xmlns="http://www.w3.org/2000/svg" viewBox="0 0 32 32"><path d="M30.56,7.27h-.5a1.75,1.75,0,0,0-1.74-1.63H27V3.55A1.75,1.75,0,0,0,25.26,1.8H6.74A1.75,1.75,0,0,0,5,3.55V5.64H3.68A1.75,1.75,0,0,0,1.94,7.27h-.5a1,1,0,0,0-1,1v4.85a1,1,0,0,0,1,1H3.5a1,1,0,0,0,1-1V8.29a1,1,0,0,0-1-1H3a.67.67,0,0,1,.67-.57H5V26.12a1.74,1.74,0,0,0,1.75,1.74h.39v1A1.36,1.36,0,0,0,8.48,30.2h2a1.36,1.36,0,0,0,1.35-1.35v-1h8.24v1a1.36,1.36,0,0,0,1.35,1.35h2.05a1.36,1.36,0,0,0,1.35-1.35v-1h.39A1.74,1.74,0,0,0,27,26.12V6.7h1.31a.67.67,0,0,1,.67.57H28.5a1,1,0,0,0-1,1v4.85a1,1,0,0,0,1,1h2.06a1,1,0,0,0,1-1V8.29A1,1,0,0,0,30.56,7.27Zm0,1.06V13.1h-2V8.33Zm-6.7,20.52a.29.29,0,0,1-.29.29H21.47a.29.29,0,0,1-.29-.29v-1h2.63Zm-13-1v1a.29.29,0,0,1-.29.28h-2a.29.29,0,0,1-.29-.29v-1ZM21.42,17.3a.53.53,0,0,0-.53-.53H16.63l4.13-3.46a.53.53,0,0,0,.07-.74.52.52,0,0,0-.36-.19.55.55,0,0,0-.39.12L15,16.77H13.26l4.13-3.46a.56.56,0,0,0,.19-.36.53.53,0,0,0-.12-.38.52.52,0,0,0-.36-.19.55.55,0,0,0-.39.12l-5.1,4.27H6.05V5.93H26V7.24H7.65a.53.53,0,0,0,0,1.06H26v8.47H23a.53.53,0,1,0,0,1.06H26v.43a.69.69,0,0,1-.69.69H6.74a.69.69,0,0,1-.69-.69v-.43H20.89A.53.53,0,0,0,21.42,17.3ZM25.26,20a1.81,1.81,0,0,0,.69-.14v6.25a.68.68,0,0,1-.69.68H6.74a.68.68,0,0,1-.69-.68V19.87a1.81,1.81,0,0,0,.69.14ZM6.05,4.87V3.55a.69.69,0,0,1,.69-.69H25.26a.69.69,0,0,1,.69.69V4.87ZM1.49,13.1V8.33h2V13.1Z" style="fill:#4d4d4d"/><path d="M9,24.8h2.79a.83.83,0,0,0,.83-.83v-.73a1.87,1.87,0,0,0-1.86-1.87H7.92a.85.85,0,0,0-.84.84v.73A1.87,1.87,0,0,0,9,24.8Zm1.76-2.37a.8.8,0,0,1,.8.81v.5H9a.8.8,0,0,1-.81-.8v-.51Z" style="fill:#4d4d4d"/><path d="M20.26,24.8h2.79a1.87,1.87,0,0,0,1.87-1.86v-.73a.85.85,0,0,0-.84-.84H21.29a1.87,1.87,0,0,0-1.86,1.87V24A.83.83,0,0,0,20.26,24.8Zm3.6-1.86a.8.8,0,0,1-.81.8H20.49v-.5a.8.8,0,0,1,.8-.81h2.57Z" style="fill:#4d4d4d"/></svg>