<svg width="21" height="20" viewBox="0 0 21 20" fill="none" xmlns="http://www.w3.org/2000/svg">
<path d="M18.7514 19.8501H1.53973C1.33753 19.8501 1.13731 19.8103 0.9505 19.7329C0.763691 19.6555 0.593953 19.5421 0.450976 19.3991C0.307999 19.2561 0.194583 19.0864 0.117205 18.8996C0.0398262 18.7128 0 18.5126 0 18.3104V2.72997C0 2.32161 0.162221 1.92998 0.450976 1.64122C0.739731 1.35247 1.13137 1.19025 1.53973 1.19025H18.7514C19.1597 1.19025 19.5514 1.35247 19.8401 1.64122C20.1289 1.92998 20.2911 2.32161 20.2911 2.72997V18.302C20.2922 18.5042 20.2535 18.7047 20.1771 18.8919C20.1007 19.0791 19.9882 19.2495 19.846 19.3932C19.7038 19.537 19.5347 19.6513 19.3483 19.7297C19.1619 19.8081 18.9619 19.849 18.7597 19.8501H18.7514ZM1.53973 2.60513C1.52333 2.604 1.50686 2.60612 1.49128 2.61137C1.4757 2.61662 1.46131 2.6249 1.44894 2.63573C1.43656 2.64655 1.42645 2.65972 1.41918 2.67446C1.41191 2.68921 1.40762 2.70524 1.40656 2.72165V18.302C1.40656 18.3351 1.41972 18.3669 1.44313 18.3903C1.46654 18.4137 1.49829 18.4269 1.53141 18.4269H18.7514C18.7845 18.4269 18.8163 18.4137 18.8397 18.3903C18.8631 18.3669 18.8762 18.3351 18.8762 18.302V2.72997C18.8762 2.69686 18.8631 2.66511 18.8397 2.6417C18.8163 2.61828 18.7845 2.60513 18.7514 2.60513H1.53973Z" fill="#828282"/>
<path d="M5.26836 4.03658C5.08073 4.03658 4.90079 3.96205 4.76812 3.82938C4.63545 3.69671 4.56091 3.51677 4.56091 3.32914V0.707443C4.56091 0.519817 4.63545 0.339876 4.76812 0.207205C4.90079 0.0745339 5.08073 0 5.26836 0C5.45598 0 5.63592 0.0745339 5.76859 0.207205C5.90126 0.339876 5.9758 0.519817 5.9758 0.707443V3.33746C5.97361 3.52364 5.89811 3.70145 5.76567 3.83233C5.63324 3.96321 5.45455 4.0366 5.26836 4.03658Z" fill="#828282"/>
<path d="M15.0228 4.03658C14.8351 4.03658 14.6552 3.96205 14.5225 3.82938C14.3898 3.69671 14.3153 3.51677 14.3153 3.32914V0.707443C14.3153 0.519817 14.3898 0.339876 14.5225 0.207205C14.6552 0.0745339 14.8351 0 15.0228 0C15.2104 0 15.3903 0.0745339 15.523 0.207205C15.6557 0.339876 15.7302 0.519817 15.7302 0.707443V3.33746C15.728 3.52364 15.6525 3.70145 15.5201 3.83233C15.3876 3.96321 15.2089 4.0366 15.0228 4.03658Z" fill="#828282"/>
<path d="M15.364 11.4023H4.92711C4.73948 11.4023 4.55954 11.3278 4.42687 11.1951C4.2942 11.0624 4.21967 10.8825 4.21967 10.6949C4.21967 10.5072 4.2942 10.3273 4.42687 10.1946C4.55954 10.062 4.73948 9.98743 4.92711 9.98743H15.364C15.5516 9.98743 15.7315 10.062 15.8642 10.1946C15.9969 10.3273 16.0714 10.5072 16.0714 10.6949C16.0714 10.8825 15.9969 11.0624 15.8642 11.1951C15.7315 11.3278 15.5516 11.4023 15.364 11.4023Z" fill="#828282"/>
<path d="M10.1622 15.0644H4.92711C4.73948 15.0644 4.55954 14.9899 4.42687 14.8572C4.2942 14.7245 4.21967 14.5446 4.21967 14.357C4.21967 14.1694 4.2942 13.9894 4.42687 13.8567C4.55954 13.7241 4.73948 13.6495 4.92711 13.6495H10.1622C10.3498 13.6495 10.5297 13.7241 10.6624 13.8567C10.7951 13.9894 10.8696 14.1694 10.8696 14.357C10.8696 14.5446 10.7951 14.7245 10.6624 14.8572C10.5297 14.9899 10.3498 15.0644 10.1622 15.0644Z" fill="#828282"/>
<path d="M19.5837 5.63452H0.715759V7.04941H19.5837V5.63452Z" fill="#828282"/>
</svg>
