<svg width="28" height="28" viewBox="0 0 28 28" fill="none" xmlns="http://www.w3.org/2000/svg">
<path d="M24.0299 14.7803H18.65C18.5147 14.7803 18.385 14.834 18.2893 14.9296C18.1937 15.0253 18.14 15.155 18.14 15.2902C18.1387 15.3581 18.1508 15.4255 18.1759 15.4885C18.2009 15.5515 18.2383 15.6089 18.2857 15.6574C18.3332 15.7058 18.39 15.7442 18.4525 15.7705C18.515 15.7968 18.5822 15.8103 18.65 15.8103H24.0299C24.1629 15.8132 24.292 15.7651 24.3905 15.6758C24.4891 15.5865 24.5498 15.4629 24.56 15.3303C24.5641 15.2586 24.5534 15.1869 24.5285 15.1197C24.5036 15.0524 24.465 14.991 24.4153 14.9393C24.3655 14.8877 24.3056 14.8469 24.2393 14.8195C24.173 14.7921 24.1017 14.7788 24.0299 14.7803Z" fill="#4D4D4D"/>
<path d="M14.5599 21.8903L13.5599 20.9403C13.5138 20.8915 13.4579 20.8529 13.3959 20.8271C13.3339 20.8013 13.2671 20.7887 13.2 20.7903C13.1314 20.7891 13.0632 20.8018 12.9996 20.8276C12.9361 20.8534 12.8784 20.8917 12.83 20.9403C12.7362 21.041 12.6828 21.1727 12.6799 21.3103C12.6843 21.4446 12.7377 21.5726 12.83 21.6703L13.7799 22.6703C13.8772 22.7662 14.0084 22.8199 14.145 22.8199C14.2816 22.8199 14.4127 22.7662 14.5099 22.6703C14.5715 22.6273 14.6226 22.571 14.6594 22.5056C14.6963 22.4402 14.7179 22.3673 14.7227 22.2923C14.7275 22.2174 14.7153 22.1424 14.6871 22.0728C14.659 22.0032 14.6155 21.9408 14.5599 21.8903Z" fill="#4D4D4D"/>
<path d="M9.91998 14.7803C9.07129 14.7803 8.25734 15.1174 7.65723 15.7175C7.05711 16.3176 6.71997 17.1316 6.71997 17.9803C6.71997 18.8299 7.05679 19.6448 7.65662 20.2466C8.25645 20.8483 9.07037 21.1876 9.91998 21.1902C10.7713 21.1902 11.5878 20.8521 12.1898 20.2501C12.7918 19.6481 13.13 18.8316 13.13 17.9803C13.1274 17.1306 12.788 16.3167 12.1863 15.7169C11.5846 15.1171 10.7696 14.7803 9.91998 14.7803ZM9.91998 20.1503C9.3462 20.1476 8.79682 19.9178 8.39203 19.5112C7.98724 19.1045 7.76 18.554 7.76001 17.9803C7.76 17.4065 7.98724 16.856 8.39203 16.4494C8.79682 16.0427 9.3462 15.8129 9.91998 15.8103C10.205 15.8103 10.4872 15.8664 10.7504 15.9754C11.0137 16.0845 11.2529 16.2443 11.4544 16.4458C11.6559 16.6473 11.8158 16.8866 11.9248 17.1498C12.0339 17.4131 12.09 17.6953 12.09 17.9803C12.09 18.5558 11.8614 19.1077 11.4544 19.5147C11.0475 19.9216 10.4955 20.1503 9.91998 20.1503Z" fill="#4D4D4D"/>
<path d="M6.96002 20.9403C6.91385 20.8915 6.85791 20.8529 6.7959 20.8271C6.73389 20.8013 6.66714 20.7887 6.59998 20.7903C6.53138 20.7891 6.46329 20.8018 6.39972 20.8276C6.33614 20.8534 6.27839 20.8917 6.22998 20.9403L5.27997 21.8903C5.18409 21.9876 5.13037 22.1187 5.13037 22.2553C5.13037 22.3919 5.18409 22.523 5.27997 22.6203C5.37895 22.7168 5.51178 22.7708 5.65002 22.7708C5.78827 22.7708 5.92104 22.7168 6.02002 22.6203L6.96997 21.6203C7.06227 21.5227 7.11565 21.3946 7.12 21.2603C7.11715 21.1227 7.06373 20.991 6.96997 20.8903L6.96002 20.9403Z" fill="#4D4D4D"/>
<path d="M5.21997 17.4602H3.88C3.74209 17.4602 3.60985 17.515 3.51233 17.6125C3.41481 17.71 3.35999 17.8423 3.35999 17.9802C3.35999 18.1181 3.41481 18.2504 3.51233 18.3479C3.60985 18.4454 3.74209 18.5002 3.88 18.5002H5.21997C5.35788 18.5002 5.49019 18.4454 5.58771 18.3479C5.68523 18.2504 5.73999 18.1181 5.73999 17.9802C5.73999 17.8423 5.68523 17.71 5.58771 17.6125C5.49019 17.515 5.35788 17.4602 5.21997 17.4602Z" fill="#4D4D4D"/>
<path d="M24.0299 11.4203H18.65C18.5822 11.4203 18.515 11.4338 18.4525 11.4601C18.39 11.4863 18.3332 11.5248 18.2857 11.5732C18.2383 11.6216 18.2009 11.679 18.1759 11.7421C18.1508 11.8051 18.1387 11.8725 18.14 11.9403C18.14 12.0755 18.1937 12.2053 18.2893 12.3009C18.385 12.3965 18.5147 12.4503 18.65 12.4503H24.0299C24.1661 12.4503 24.297 12.3969 24.3942 12.3015C24.4914 12.2062 24.5473 12.0764 24.55 11.9403C24.55 11.8024 24.4952 11.6701 24.3977 11.5726C24.3002 11.4751 24.1679 11.4203 24.0299 11.4203Z" fill="#4D4D4D"/>
<path d="M6.02002 13.3302C5.97161 13.2816 5.91386 13.2433 5.85028 13.2175C5.78671 13.1918 5.71862 13.1791 5.65002 13.1802C5.58143 13.1791 5.51328 13.1918 5.44971 13.2175C5.38613 13.2433 5.32838 13.2816 5.27997 13.3302C5.18621 13.431 5.13285 13.5627 5.13 13.7002C5.13034 13.8354 5.18425 13.9649 5.27997 14.0603L6.22998 15.0102C6.3307 15.104 6.4624 15.1574 6.59998 15.1602C6.73755 15.1574 6.86926 15.104 6.96997 15.0102C7.06569 14.9148 7.11966 14.7854 7.12 14.6503C7.11715 14.5127 7.06373 14.381 6.96997 14.2803L6.02002 13.3302Z" fill="#4D4D4D"/>
<path d="M9.91992 22.1603C9.78375 22.1629 9.65408 22.2189 9.55872 22.3161C9.46335 22.4133 9.40989 22.5441 9.40991 22.6803V24.0303C9.40991 24.1656 9.46368 24.2953 9.55933 24.3909C9.65497 24.4866 9.78466 24.5403 9.91992 24.5403C9.98773 24.5416 10.0551 24.5294 10.1182 24.5044C10.1812 24.4793 10.2386 24.442 10.287 24.3945C10.3355 24.347 10.374 24.2903 10.4002 24.2278C10.4265 24.1652 10.44 24.0981 10.4399 24.0303V22.6803C10.4399 22.5424 10.3852 22.4101 10.2877 22.3126C10.1901 22.2151 10.0578 22.1603 9.91992 22.1603Z" fill="#4D4D4D"/>
<path d="M8.23999 0.000204545C7.65825 0.00284885 7.10122 0.235799 6.6908 0.648093C6.28038 1.06039 6.04998 1.61845 6.04999 2.2002V2.69021H3.21002C2.36041 2.6902 1.54543 3.02702 0.943726 3.62685C0.34202 4.22668 0.00264678 5.04059 0 5.8902V24.7002C0.00264678 25.5498 0.34202 26.3637 0.943726 26.9636C1.54543 27.5634 2.36041 27.9002 3.21002 27.9002H24.7C25.1202 27.9002 25.5363 27.8174 25.9246 27.6566C26.3128 27.4958 26.6656 27.2601 26.9628 26.963C27.2599 26.6658 27.4956 26.313 27.6564 25.9248C27.8172 25.5365 27.9 25.1204 27.9 24.7002V5.8902C27.9 5.46997 27.8172 5.05387 27.6564 4.66563C27.4956 4.27738 27.2599 3.92461 26.9628 3.62746C26.6656 3.33032 26.3128 3.09461 25.9246 2.9338C25.5363 2.77298 25.1202 2.69021 24.7 2.69021H21.86V2.2002C21.8574 1.61754 21.6247 1.05949 21.2127 0.647482C20.8007 0.235471 20.2426 0.00283513 19.66 0.000204545C19.0782 0.00284885 18.5213 0.235799 18.1108 0.648093C17.7004 1.06039 17.47 1.61845 17.47 2.2002V2.69021H10.47V2.2002C10.47 1.90875 10.4121 1.6202 10.2997 1.35131C10.1873 1.08242 10.0225 0.838557 9.81506 0.633872C9.60759 0.429186 9.36151 0.267767 9.09113 0.158988C8.82074 0.0502079 8.53141 -0.00376977 8.23999 0.000204545ZM7.08002 2.2002C7.08002 1.89255 7.2022 1.59751 7.41974 1.37997C7.63728 1.16242 7.93234 1.04021 8.23999 1.04021C8.39316 1.03889 8.54512 1.06791 8.68701 1.12562C8.82891 1.18332 8.95793 1.26856 9.06671 1.37641C9.17549 1.48426 9.26182 1.61258 9.32074 1.75397C9.37966 1.89537 9.40998 2.04702 9.40997 2.2002V4.2002C9.40998 4.35338 9.37966 4.50505 9.32074 4.64644C9.26182 4.78784 9.17549 4.91616 9.06671 5.02401C8.95793 5.13186 8.82891 5.21708 8.68701 5.27479C8.54512 5.33249 8.39316 5.36153 8.23999 5.36021C7.93234 5.36021 7.63728 5.238 7.41974 5.02045C7.2022 4.80291 7.08002 4.50785 7.08002 4.2002V2.2002ZM26.87 24.7002C26.87 25.2757 26.6414 25.8277 26.2344 26.2346C25.8275 26.6416 25.2755 26.8702 24.7 26.8702H19.9L19.99 26.7802L26.87 19.9002V24.7002ZM19.17 26.1402V21.3302C19.17 21.0455 19.2267 20.7637 19.3365 20.501C19.4464 20.2384 19.6073 20.0002 19.81 19.8002C20.0099 19.5975 20.2482 19.4366 20.5108 19.3268C20.7734 19.2169 21.0553 19.1603 21.34 19.1602H26.14L25.87 19.4202L19.17 26.1402ZM26.87 18.1402H21.34C20.4928 18.146 19.6815 18.4834 19.08 19.0802C18.4808 19.6841 18.1432 20.4995 18.14 21.3502V26.8802H3.21002C2.6345 26.8802 2.08255 26.6516 1.6756 26.2446C1.26864 25.8377 1.03998 25.2857 1.03998 24.7102V9.1102H26.87V18.1402ZM18.5 2.21021C18.5 1.90256 18.6222 1.6075 18.8398 1.38996C19.0573 1.17242 19.3523 1.05021 19.66 1.05021C19.9676 1.05021 20.2627 1.17242 20.4802 1.38996C20.6978 1.6075 20.82 1.90256 20.82 2.21021V4.21021C20.8096 4.51088 20.6829 4.79574 20.4664 5.00471C20.25 5.21367 19.9608 5.33039 19.66 5.33021C19.3523 5.33021 19.0573 5.208 18.8398 4.99045C18.6222 4.77291 18.5 4.47785 18.5 4.1702V2.21021ZM17.5 3.7302V4.22021C17.5 4.80195 17.7304 5.36002 18.1408 5.77231C18.5512 6.18461 19.1083 6.41756 19.69 6.4202C20.2727 6.41757 20.8307 6.18494 21.2427 5.77292C21.6547 5.36091 21.8874 4.80287 21.89 4.22021V3.7302H24.73C25.3055 3.7302 25.8575 3.95884 26.2644 4.36579C26.6714 4.77274 26.9 5.32469 26.9 5.90021V8.0702H1.07001V5.90021C1.07001 5.32469 1.29861 4.77274 1.70557 4.36579C2.11252 3.95884 2.66447 3.7302 3.23999 3.7302H6.08002V4.22021C6.08001 4.80195 6.31041 5.36002 6.72083 5.77231C7.13124 6.18461 7.68828 6.41756 8.27002 6.4202C8.55893 6.4202 8.84496 6.36331 9.11188 6.25275C9.37879 6.14219 9.62133 5.98014 9.82562 5.77585C10.0299 5.57157 10.192 5.32903 10.3026 5.06211C10.4131 4.79519 10.47 4.50911 10.47 4.22021V3.7302H17.5Z" fill="#4D4D4D"/>
<path d="M9.92002 11.4203C9.8522 11.4203 9.78505 11.4338 9.72251 11.4601C9.65997 11.4863 9.60331 11.5248 9.55582 11.5732C9.50833 11.6216 9.47099 11.679 9.44596 11.7421C9.42093 11.8051 9.40868 11.8725 9.41001 11.9403V13.3303C9.40868 13.3981 9.42093 13.4655 9.44596 13.5285C9.47099 13.5916 9.50833 13.649 9.55582 13.6974C9.60331 13.7458 9.65997 13.7843 9.72251 13.8106C9.78505 13.8368 9.8522 13.8503 9.92002 13.8503C10.0579 13.8503 10.1902 13.7955 10.2878 13.698C10.3853 13.6005 10.44 13.4682 10.44 13.3303V11.9903C10.447 11.9179 10.4388 11.8449 10.4158 11.7759C10.3928 11.7069 10.3556 11.6435 10.3066 11.5898C10.2576 11.5361 10.1979 11.4933 10.1313 11.4641C10.0647 11.4349 9.99273 11.42 9.92002 11.4203Z" fill="#4D4D4D"/>
<path d="M14.2 13.1903C14.1314 13.1891 14.0633 13.2018 13.9997 13.2276C13.9361 13.2533 13.8784 13.2917 13.83 13.3403L12.88 14.2903C12.7862 14.391 12.7328 14.5227 12.73 14.6603C12.7324 14.795 12.7861 14.9237 12.88 15.0203C12.9807 15.114 13.1124 15.1674 13.25 15.1703C13.3851 15.1699 13.5146 15.116 13.61 15.0203L14.61 14.0703C14.6606 14.025 14.7011 13.9695 14.7286 13.9075C14.7562 13.8454 14.7703 13.7782 14.77 13.7103C14.7645 13.6356 14.7428 13.5629 14.7065 13.4973C14.6703 13.4317 14.6203 13.3747 14.56 13.3303C14.513 13.2833 14.4567 13.2466 14.3947 13.2225C14.3327 13.1984 14.2664 13.1874 14.2 13.1903Z" fill="#4D4D4D"/>
<path d="M15.97 17.4602H14.63C14.4921 17.4602 14.3598 17.515 14.2623 17.6125C14.1648 17.71 14.11 17.8423 14.11 17.9802C14.11 18.1181 14.1648 18.2504 14.2623 18.3479C14.3598 18.4454 14.4921 18.5002 14.63 18.5002H15.97C16.1079 18.5002 16.2402 18.4454 16.3377 18.3479C16.4352 18.2504 16.49 18.1181 16.49 17.9802C16.4874 17.8431 16.4318 17.7123 16.3348 17.6153C16.2379 17.5184 16.1071 17.4628 15.97 17.4602Z" fill="#4D4D4D"/>
</svg>
