<svg id="aec1b092-05f3-4cde-9774-17af59056265" data-name="Livello 1" xmlns="http://www.w3.org/2000/svg" viewBox="0 0 32 32"><path d="M24.83,9.62a1.73,1.73,0,0,0-1.22-2.95A1.72,1.72,0,0,0,21.88,8.4a1.73,1.73,0,0,0,2.95,1.22ZM23,7.75a.88.88,0,0,1,.64-.26.92.92,0,0,1,.64.26h0a.92.92,0,0,1,.26.65.9.9,0,0,1-.26.64.92.92,0,0,1-.64.26A.88.88,0,0,1,23,9,.91.91,0,0,1,23,7.75Z" style="fill:#4d4d4d"/><path d="M23.61,10.32A1.93,1.93,0,0,1,22.24,7,2,2,0,0,1,25,7a1.94,1.94,0,0,1,0,2.73h0A1.94,1.94,0,0,1,23.61,10.32Zm0-3.45a1.51,1.51,0,0,0-1.08.45,1.51,1.51,0,0,0,0,2.15,1.55,1.55,0,0,0,2.15,0,1.53,1.53,0,0,0-1.07-2.6Zm0,2.63a1.1,1.1,0,0,1-.79-.32,1.12,1.12,0,0,1,0-1.57,1.16,1.16,0,0,1,1.57,0,1.11,1.11,0,0,1-.78,1.89Zm0-1.81a.67.67,0,0,0-.5.21.69.69,0,0,0,0,1,.71.71,0,0,0,1,0,.65.65,0,0,0,.21-.49.71.71,0,0,0-.21-.51A.7.7,0,0,0,23.61,7.69Z" style="fill:#4d4d4d"/><path d="M10.26,22.55l-1.11.3.3-1.11a.41.41,0,1,0-.79-.21l-.42,1.56-1.56.42a.41.41,0,0,0,.1.81l.11,0L8,24l-.29,1.1a.41.41,0,0,0,.29.5l.11,0a.4.4,0,0,0,.39-.31l.42-1.56,1.56-.42a.4.4,0,0,0,.29-.5.41.41,0,0,0-.5-.29Z" style="fill:#4d4d4d"/><path d="M8.1,25.83a.41.41,0,0,1-.16,0,.6.6,0,0,1-.43-.74l.2-.77-.77.21a.63.63,0,0,1-.75-.43.6.6,0,0,1,.07-.47.58.58,0,0,1,.37-.28l1.45-.39.38-1.45a.64.64,0,0,1,.29-.37.62.62,0,0,1,.46-.06.58.58,0,0,1,.37.28.59.59,0,0,1,.06.47l-.2.76.77-.2a.6.6,0,0,1,.74.43.61.61,0,0,1-.06.46.6.6,0,0,1-.37.29l-1.45.38-.39,1.45A.61.61,0,0,1,8.1,25.83Zm.18-2.11-.39,1.44a.29.29,0,0,0,0,.16.26.26,0,0,0,.13.1.22.22,0,0,0,.26-.15l.45-1.67,1.67-.45a.22.22,0,0,0,.15-.26.21.21,0,0,0-.26-.14l-1.44.38.39-1.44a.3.3,0,0,0,0-.16.26.26,0,0,0-.13-.1.3.3,0,0,0-.16,0,.26.26,0,0,0-.1.13L8.4,23.25l-1.67.45a.22.22,0,0,0-.13.1.23.23,0,0,0,0,.16.2.2,0,0,0,.26.15Z" style="fill:#4d4d4d"/><path d="M29.82,26.6l-3.31-3.31a1.16,1.16,0,0,0-.76-.36,2.62,2.62,0,0,1-1.62-.76.58.58,0,0,0-.79,0l-.28.29-1.94-1.94a28,28,0,0,0,8-16.27,1.37,1.37,0,0,0-.26-1.13,1.4,1.4,0,0,0-1.13-.26,26.61,26.61,0,0,0-9.43,3,.41.41,0,1,0,.38.72A25.77,25.77,0,0,1,27.82,3.7c.39-.05.46,0,.46,0s.07.08,0,.46A27.23,27.23,0,0,1,20.54,20l-1.67-1.67,1.45-1.68a3.49,3.49,0,0,0-4.93-4.93l-1.68,1.45L12,11.46a29.53,29.53,0,0,1,5-3.91.41.41,0,0,0-.43-.7,30.41,30.41,0,0,0-5.11,4L9.52,8.94l.28-.28a.57.57,0,0,0,0-.79,2.62,2.62,0,0,1-.76-1.62,1.07,1.07,0,0,0-.35-.75L5.4,2.18A.6.6,0,0,0,5,2a.62.62,0,0,0-.43.18L2.18,4.53A.62.62,0,0,0,2,5a.6.6,0,0,0,.18.44L5.5,8.71a1,1,0,0,0,.75.36,2.62,2.62,0,0,1,1.62.76.6.6,0,0,0,.79,0l.28-.29,1.94,1.94a28,28,0,0,0-8,16.27,1.4,1.4,0,0,0,.26,1.13,1.13,1.13,0,0,0,.81.28l.32,0a28,28,0,0,0,16.27-8l1.94,1.94-.29.29a.57.57,0,0,0,0,.78h0a2.62,2.62,0,0,1,.76,1.62,1.14,1.14,0,0,0,.36.76l3.31,3.31a.62.62,0,0,0,.87,0l2.35-2.35a.62.62,0,0,0,0-.87ZM8.24,9.07a3.36,3.36,0,0,0-1.89-.82c-.18,0-.18,0-.27-.12L2.91,5,5,2.91,8.13,6.08c.1.09.1.09.12.27a3.36,3.36,0,0,0,.82,1.89Zm7.68,3.23a3,3,0,0,1,2-.76,2.51,2.51,0,0,1,1.82.74,2.77,2.77,0,0,1,0,3.8l-1.41,1.63-4-4Zm.24,7.88-1.49-1.49a.41.41,0,1,0-.58.58l1.49,1.5a1.86,1.86,0,0,1-1.09.46,2.34,2.34,0,0,1-1.68-.83L11.6,19.19a2.32,2.32,0,0,1-.82-1.68,1.81,1.81,0,0,1,.45-1.09l1.52,1.51a.4.4,0,0,0,.29.12.42.42,0,0,0,.29-.12.41.41,0,0,0,0-.58l-1.51-1.51,1.85-1.59,4.08,4.08Zm-12,8.12c-.38.05-.46,0-.46,0s-.07-.07,0-.46A27.23,27.23,0,0,1,11.46,12l1.62,1.62-1.93,1.68A3,3,0,0,0,10,17.48,3.12,3.12,0,0,0,11,19.77L12.23,21a3.16,3.16,0,0,0,2.2,1.07h.09a2.9,2.9,0,0,0,1.94-1h0l0,0,.17-.19,1.68-1.94L20,20.54A27.23,27.23,0,0,1,4.18,28.3ZM27,29.1l-3.17-3.17c-.1-.1-.1-.1-.12-.28a3.36,3.36,0,0,0-.82-1.89l.4-.4h0v0l.4-.4a3.36,3.36,0,0,0,1.89.82c.18,0,.18,0,.28.12L29.09,27Z" style="fill:#4d4d4d"/><path d="M27,30.2a.78.78,0,0,1-.57-.24l-3.31-3.31a1.29,1.29,0,0,1-.42-.88A2.39,2.39,0,0,0,22,24.26L22,24.2a.77.77,0,0,1,.08-1l.14-.15L20.53,21.4A28.24,28.24,0,0,1,4.3,29.32l-.35,0A1.33,1.33,0,0,1,3,29a1.52,1.52,0,0,1-.31-1.3A28.16,28.16,0,0,1,10.6,11.47L8.94,9.81,8.8,10a.79.79,0,0,1-1.06,0,2.39,2.39,0,0,0-1.51-.71,1.33,1.33,0,0,1-.88-.41L2,5.54A.78.78,0,0,1,1.8,5,.8.8,0,0,1,2,4.39L4.39,2A.8.8,0,0,1,5,1.8.76.76,0,0,1,5.54,2L8.86,5.35a1.33,1.33,0,0,1,.41.88A2.39,2.39,0,0,0,10,7.74a.76.76,0,0,1,0,1.06l-.13.14,1.66,1.66a30.33,30.33,0,0,1,5-3.92.62.62,0,0,1,.46-.07.6.6,0,0,1,.39.27.61.61,0,0,1-.2.84,28.71,28.71,0,0,0-4.78,3.75l1.39,1.38,1.53-1.32a3.69,3.69,0,0,1,5.22,5.22l-1.32,1.53,1.38,1.39A27,27,0,0,0,28.1,4.16a.86.86,0,0,0,0-.27.86.86,0,0,0-.27,0,25.54,25.54,0,0,0-9.06,2.86A.61.61,0,0,1,18,6.51a.62.62,0,0,1,.25-.83,26.71,26.71,0,0,1,9.5-3A1.52,1.52,0,0,1,29,3a1.57,1.57,0,0,1,.32,1.3A28.24,28.24,0,0,1,21.4,20.53l1.66,1.66.14-.14a.79.79,0,0,1,1.06,0,2.35,2.35,0,0,0,1.51.72,1.33,1.33,0,0,1,.88.41L30,26.46a.82.82,0,0,1,0,1.15L27.61,30A.8.8,0,0,1,27,30.2Zm-4.66-6.14a2.81,2.81,0,0,1,.76,1.67.86.86,0,0,0,.3.63l3.31,3.32a.43.43,0,0,0,.59,0l2.35-2.35a.42.42,0,0,0,0-.59l-3.32-3.31a.89.89,0,0,0-.64-.3A2.85,2.85,0,0,1,24,22.32a.38.38,0,0,0-.52,0l-.42.42-2.23-2.22.14-.15a27.86,27.86,0,0,0,8-16.14,1.22,1.22,0,0,0-.2-1,1.21,1.21,0,0,0-1-.2,26.29,26.29,0,0,0-9.36,3,.21.21,0,0,0-.09.28.23.23,0,0,0,.29.09A25.85,25.85,0,0,1,27.8,3.5a.85.85,0,0,1,.61.07l.07.06v0a1.24,1.24,0,0,1,0,.53,27.42,27.42,0,0,1-7.82,15.9l-.14.14L18.6,18.3l1.57-1.82a3.29,3.29,0,0,0-4.65-4.65L13.7,13.4l-1.94-1.94.14-.14a29.49,29.49,0,0,1,5-3.94A.21.21,0,0,0,17,7.09.19.19,0,0,0,16.83,7a.16.16,0,0,0-.15,0,29.61,29.61,0,0,0-5.07,4l-.15.14L9.24,8.94l.42-.42a.37.37,0,0,0,0-.52,2.85,2.85,0,0,1-.81-1.72.89.89,0,0,0-.3-.64L5.26,2.32A.4.4,0,0,0,5,2.2H5a.41.41,0,0,0-.3.12L2.32,4.67A.4.4,0,0,0,2.2,5a.42.42,0,0,0,.12.3L5.64,8.57a.89.89,0,0,0,.64.3A2.85,2.85,0,0,1,8,9.68a.4.4,0,0,0,.52,0l.42-.43,2.23,2.22-.14.15A27.86,27.86,0,0,0,3.08,27.75a1.2,1.2,0,0,0,.2,1,.9.9,0,0,0,.67.22l.3,0A27.89,27.89,0,0,0,20.4,21l.14-.14,2.22,2.23-.43.43a.38.38,0,0,0,0,.51ZM27,29.38l-3.31-3.31a.47.47,0,0,1-.18-.39,3.11,3.11,0,0,0-.77-1.79l-.12-.14,1.09-1.09.14.12a3.09,3.09,0,0,0,1.78.77.48.48,0,0,1,.4.18L29.38,27Zm-3.84-5.6A3.5,3.5,0,0,1,24,25.63a1,1,0,0,0,0,.11l.05,0,3,3L28.81,27l-3-3s0,0-.05-.05h-.1a3.5,3.5,0,0,1-1.85-.75ZM4,28.52a.56.56,0,0,1-.36-.09l-.07-.06v0a1.24,1.24,0,0,1,0-.53,27.42,27.42,0,0,1,7.82-15.9l.14-.14,1.92,1.92-2.1,1.81a2.78,2.78,0,0,0-1.12,2,2.88,2.88,0,0,0,1,2.13l1.22,1.22a3,3,0,0,0,2,1h.08a2.68,2.68,0,0,0,1.8-.91l.2-.22,1.81-2.1,1.92,1.92-.14.14A27.42,27.42,0,0,1,4.2,28.5h0Zm0-.4a1.2,1.2,0,0,0,.24,0h0a27,27,0,0,0,15.51-7.57l-1.32-1.32L16.81,21l-.18.2-.05,0a3.07,3.07,0,0,1-2,1h-.1a3.34,3.34,0,0,1-2.34-1.13l-1.21-1.21a3.25,3.25,0,0,1-1.12-2.44A3.12,3.12,0,0,1,11,15.19l1.77-1.54-1.32-1.32A27,27,0,0,0,3.9,27.84c0,.11,0,.19,0,.24h0Zm10.52-6.69a2.58,2.58,0,0,1-1.77-.89l-1.21-1.21a2.54,2.54,0,0,1-.89-1.83,2.07,2.07,0,0,1,.51-1.21l.14-.17,1.67,1.67a.21.21,0,1,0,.3-.3l-1.66-1.66L13.68,14,18,18.32l-1.86,2.16-1.65-1.65a.21.21,0,0,0-.29,0,.22.22,0,0,0,0,.3l1.65,1.65-.17.14a2.07,2.07,0,0,1-1.21.51Zm-3.18-4.71a1.55,1.55,0,0,0-.28.8A2.13,2.13,0,0,0,11.74,19L13,20.26a2.11,2.11,0,0,0,1.52.77,1.61,1.61,0,0,0,.8-.28l-1.34-1.34a.62.62,0,0,1,0-.86.63.63,0,0,1,.87,0l1.34,1.34,1.33-1.55-3.82-3.82-1.55,1.33,1.36,1.36a.6.6,0,0,1,0,.86.62.62,0,0,1-.86,0Zm7,1.28L14,13.7l1.8-1.55a3.23,3.23,0,0,1,2.11-.81,2.72,2.72,0,0,1,2,.8,3,3,0,0,1,0,4.07Zm-3.72-4.28,3.7,3.7L19.55,16a2.58,2.58,0,0,0,0-3.53,2.36,2.36,0,0,0-1.68-.68,2.86,2.86,0,0,0-1.85.71ZM8.25,9.34l-.14-.12a3.09,3.09,0,0,0-1.79-.77.49.49,0,0,1-.39-.17L2.62,5,5,2.62,8.28,5.93a.51.51,0,0,1,.17.4,3.11,3.11,0,0,0,.77,1.78l.11.14ZM3.19,5l3,3,0,0h.1a3.5,3.5,0,0,1,1.85.75l.58-.58a3.5,3.5,0,0,1-.75-1.85.31.31,0,0,0,0-.11l0,0-3-3Z" style="fill:#4d4d4d"/></svg>