<svg id="bbc3e88f-5a77-470a-bc33-154eb01022dc" data-name="Livello 1" xmlns="http://www.w3.org/2000/svg" viewBox="0 0 32 32"><path d="M25.66,26.5H27.2a2.4,2.4,0,0,0,2.39-2.38V15.71a3.34,3.34,0,0,0-1-2.38h0L28,12.68,25.87,7.05A2.43,2.43,0,0,0,23.63,5.5H8.73A2.4,2.4,0,0,0,6.5,7.05L4.43,12.63l-.86.79a3.28,3.28,0,0,0-1.16,2.51v8.19A2.4,2.4,0,0,0,4.8,26.5H6.34a2.4,2.4,0,0,0,2.39-2.38V22.89H23.27v1.23A2.4,2.4,0,0,0,25.66,26.5Zm2.86-2.38a1.32,1.32,0,0,1-1.32,1.31H25.66a1.32,1.32,0,0,1-1.32-1.31V22.89H27.2a2.29,2.29,0,0,0,1.24-.33l.08,0ZM5.69,12.31,7.51,7.42a1.28,1.28,0,0,1,1.22-.85H23.64a1.33,1.33,0,0,1,1.23.85l1.84,5H25.24v0a4,4,0,0,0-1.56-2.6A3.88,3.88,0,0,0,20.75,9a3.92,3.92,0,0,0-3.33,3.33v0H5.66Zm18.46.07H18.49l0-.06a2.87,2.87,0,0,1,5.63,0ZM7.66,24.12a1.32,1.32,0,0,1-1.32,1.31H4.8a1.32,1.32,0,0,1-1.32-1.31V22.51l.08,0a2.29,2.29,0,0,0,1.24.33H7.66ZM4.8,21.82h0a1.32,1.32,0,0,1-.92-.38,1.27,1.27,0,0,1-.39-.92V15.93a2.22,2.22,0,0,1,.79-1.7l0,0,.81-.76H27.21l.58.62,0,0a2.23,2.23,0,0,1,.7,1.62v4.81a1.27,1.27,0,0,1-.39.92,1.32,1.32,0,0,1-.92.38H4.8Z" style="fill:#4d4d4d"/><path d="M10.06,15.87H5.69a.54.54,0,0,0-.54.54v3a.54.54,0,0,0,.54.53h4.37a.53.53,0,0,0,.53-.53v-3A.54.54,0,0,0,10.06,15.87Zm-.54,3H6.22v-2h3.3Z" style="fill:#4d4d4d"/><path d="M26.31,15.87H21.94a.54.54,0,0,0-.53.54v3a.53.53,0,0,0,.53.53h4.37a.54.54,0,0,0,.54-.53v-3A.54.54,0,0,0,26.31,15.87Zm-.53,3h-3.3v-2h3.3Z" style="fill:#4d4d4d"/><path d="M18.81,18.82H13.19a.54.54,0,1,0,0,1.07h5.62a.54.54,0,1,0,0-1.07Z" style="fill:#4d4d4d"/><path d="M18.81,16H13.19a.54.54,0,1,0,0,1.07h5.62a.54.54,0,1,0,0-1.07Z" style="fill:#4d4d4d"/></svg>