<svg id="bd703cea-5eae-4a18-aede-ffb5d88f7948" data-name="Livello 1" xmlns="http://www.w3.org/2000/svg" viewBox="0 0 32 32"><path d="M25.74,25.1a.5.5,0,0,1-.47-.33L20.41,11.44C18.44,6,14.93,3.19,11,3.86A6.82,6.82,0,0,0,6.15,7.18a11.35,11.35,0,0,0-.67,9.13.5.5,0,0,1-.32.63.49.49,0,0,1-.63-.31,12.43,12.43,0,0,1,.75-10,7.86,7.86,0,0,1,5.59-3.8c4.41-.74,8.33,2.32,10.48,8.22l4.86,13.34a.5.5,0,0,1-.47.67Z" style="fill:#4d4d4d"/><path d="M7.58,26.79a2,2,0,1,1,2-2A2,2,0,0,1,7.58,26.79Zm0-3.06a1,1,0,1,0,1,1A1,1,0,0,0,7.58,23.73Z" style="fill:#4d4d4d"/><path d="M22.43,29.24a.86.86,0,0,1-.39-.09.88.88,0,0,1-.43-.5L21.39,28a.91.91,0,0,1,.38-1l3.71-3a.49.49,0,0,1,.33-.11l4.78.2a.94.94,0,0,1,.91.58l.22.66a.85.85,0,0,1-.06.66.86.86,0,0,1-.49.43L22.69,29.2A.78.78,0,0,1,22.43,29.24Zm-.05-1Zm0-.46.14.41,8.2-2.65-.13-.42h-.07L26,24.94l-3.55,2.82ZM30.55,25Z" style="fill:#4d4d4d"/><path d="M11.92,28h-1.3v0c-.52,0-.52-.15-.52-.48s.29-.47.52-.49h1.3c2.22,0,9,0,9-3.11,0-1.81-3-5.38-6.93-7.26-1.94-.93-5.63-2.14-8.67.23a5.31,5.31,0,0,0-1.08,4.89.5.5,0,0,1-.39.59.49.49,0,0,1-.59-.39,6.33,6.33,0,0,1,1.3-5.74l.08-.09c2.58-2.05,6.05-2.19,9.79-.39,4,1.92,7.49,5.74,7.49,8.16C21.91,28,14.65,28,11.92,28Z" style="fill:#4d4d4d"/><path d="M7.58,29.24a4.48,4.48,0,1,1,4.48-4.48A4.49,4.49,0,0,1,7.58,29.24Zm0-8a3.48,3.48,0,1,0,3.48,3.48A3.48,3.48,0,0,0,7.58,21.28Z" style="fill:#4d4d4d"/></svg>