<svg id="e1792ace-69b4-4590-bfc6-4307c2aa37c0" data-name="Livello 1" xmlns="http://www.w3.org/2000/svg" viewBox="0 0 32 32"><path d="M21.22,31.5H12.63A4.11,4.11,0,0,1,9.48,30a12.93,12.93,0,0,1-2.92-8.32,13.2,13.2,0,0,1,1.9-6.9.49.49,0,0,1,.42-.24H25a.5.5,0,0,1,.43.24,13.19,13.19,0,0,1,1.89,6.9A12.92,12.92,0,0,1,24.37,30,4.11,4.11,0,0,1,21.22,31.5Zm-12-15.93a12.26,12.26,0,0,0-1.61,6.14,12,12,0,0,0,2.68,7.68,3.12,3.12,0,0,0,2.39,1.11h8.59a3.12,3.12,0,0,0,2.38-1.11,11.94,11.94,0,0,0,2.68-7.68,12.25,12.25,0,0,0-1.6-6.14Z" style="fill:#4d4d4d"/><path d="M2.24,10.73a.51.51,0,0,1-.29-.1.49.49,0,0,1-.2-.48A10.49,10.49,0,0,1,18.12,3.08a.54.54,0,0,1,.21.45.49.49,0,0,1-.28.41l-.95.48a3.67,3.67,0,0,1-2.47.31,3.45,3.45,0,0,0-2.14.15,3.61,3.61,0,0,0-2,2.14.52.52,0,0,1-.28.3.47.47,0,0,1-.4,0,3.58,3.58,0,0,0-2.92,0A3.29,3.29,0,0,0,5.3,8.61a4,4,0,0,1-1.57,1.44l-1.27.62A.43.43,0,0,1,2.24,10.73Zm9.89-8.54A9.54,9.54,0,0,0,8.36,3,9.43,9.43,0,0,0,2.93,9.33l.36-.18A2.84,2.84,0,0,0,4.45,8.08,4.3,4.3,0,0,1,6.51,6.37a4.56,4.56,0,0,1,3.25-.15A4.62,4.62,0,0,1,12.09,4a4.37,4.37,0,0,1,2.76-.2,2.74,2.74,0,0,0,1.81-.24l.15-.08A9.41,9.41,0,0,0,12.13,2.19Z" style="fill:#4d4d4d"/><path d="M20.56,13.45l-.15,0a.51.51,0,0,1-.33-.63L23,3.3a3,3,0,0,1,2.41-2.1L29.68.51a.49.49,0,0,1,.57.41.5.5,0,0,1-.41.57l-4.32.69a2,2,0,0,0-1.61,1.41L21,13.09A.51.51,0,0,1,20.56,13.45Z" style="fill:#4d4d4d"/><path d="M13.05,13.45a.48.48,0,0,1-.44-.28l-3-6.09a.51.51,0,0,1,.22-.67.5.5,0,0,1,.67.23l3,6.09a.51.51,0,0,1-.22.67A.64.64,0,0,1,13.05,13.45Z" style="fill:#4d4d4d"/><path d="M22.23,24a9.61,9.61,0,0,1,1.86.18,9.45,9.45,0,0,1-1.95,4,1.17,1.17,0,0,1-.92.43H12.63a1.19,1.19,0,0,1-.93-.43,9.41,9.41,0,0,1-1.43-2.37,10.67,10.67,0,0,0,1.6.12,19.35,19.35,0,0,0,5.33-1,17.81,17.81,0,0,1,5-.94m0-1c-3.73,0-6.81,1.92-10.36,1.92a9.27,9.27,0,0,1-3.1-.53,10.64,10.64,0,0,0,2.17,4.43,2.19,2.19,0,0,0,1.69.78h8.59a2.2,2.2,0,0,0,1.69-.78,10.85,10.85,0,0,0,2.34-5.37,10.06,10.06,0,0,0-3-.45Z" style="fill:#4d4d4d"/></svg>