<svg id="fa933204-c999-4b15-b35b-44ec7ba7c6e6" data-name="Livello 1" xmlns="http://www.w3.org/2000/svg" viewBox="0 0 32 32"><path d="M27.45,15.47a.53.53,0,0,1-.24-.06.5.5,0,0,1-.2-.68,6.3,6.3,0,0,0,0-6,.49.49,0,0,1,.2-.67.49.49,0,0,1,.68.2,7.3,7.3,0,0,1,0,7A.49.49,0,0,1,27.45,15.47Z" style="fill:#4d4d4d"/><path d="M30.44,18.42a.48.48,0,0,1-.24-.06.49.49,0,0,1-.2-.68A12.53,12.53,0,0,0,30,5.79a.49.49,0,0,1,.2-.68.49.49,0,0,1,.67.2,13.48,13.48,0,0,1,0,12.85A.51.51,0,0,1,30.44,18.42Z" style="fill:#4d4d4d"/><path d="M2.94,14.61H2.38a2.88,2.88,0,1,1,0-5.75h.56v1H2.38a1.88,1.88,0,1,0,0,3.75h.56Z" style="fill:#4d4d4d"/><path d="M10.27,16.58H8.13a.5.5,0,0,1-.5-.5.5.5,0,0,1,.5-.5h2.14a.5.5,0,0,1,.5.5A.5.5,0,0,1,10.27,16.58Z" style="fill:#4d4d4d"/><path d="M11.7,28H8.82a1.19,1.19,0,0,1-1.19-1.2V16.58H3.9a1.45,1.45,0,0,1-1.46-1.45V8.47A1.46,1.46,0,0,1,3.9,7h8.64c.06,0,3.52.13,5.44-1.39a.5.5,0,1,1,.62.78C16.39,8.16,12.67,8,12.52,8H3.9a.47.47,0,0,0-.46.46v6.66a.46.46,0,0,0,.46.45H8.63v11.2a.19.19,0,0,0,.19.2H11.7a.2.2,0,0,0,.2-.2V18.13a2.45,2.45,0,0,1,2.54-2.35,9.37,9.37,0,0,1,5.71,1.6c.62.34,1.31.72,2.15,1.12a.8.8,0,0,0,.79-.05.85.85,0,0,0,.41-.73V5.87a.83.83,0,0,0-.4-.71.8.8,0,0,0-.82,0l-.85.39a1.22,1.22,0,0,0-.76,1.13v9a.5.5,0,1,1-1,0v-9A2.24,2.24,0,0,1,21,4.57c.26-.1.51-.22.81-.36a1.82,1.82,0,0,1,1.78.1,1.85,1.85,0,0,1,.87,1.56V17.72a1.85,1.85,0,0,1-.87,1.57,1.81,1.81,0,0,1-1.76.11c-.86-.41-1.57-.8-2.2-1.14-1.83-1-2.93-1.59-5.17-1.48-.8,0-1.6.48-1.6,1.35v8.65A1.2,1.2,0,0,1,11.7,28Z" style="fill:#4d4d4d"/></svg>