<svg id="e30a6937-c9f3-4558-9f25-41f24fb2d5f7" data-name="Livello 1" xmlns="http://www.w3.org/2000/svg" viewBox="0 0 32 32"><path d="M16,1.73A14.27,14.27,0,1,0,30.27,16,14.27,14.27,0,0,0,16,1.73Zm0,27.59A13.32,13.32,0,1,1,29.32,16,13.32,13.32,0,0,1,16,29.32Z" style="fill:#4d4d4d"/><path d="M16,4.33A11.67,11.67,0,1,0,27.67,16,11.68,11.68,0,0,0,16,4.33Zm0,22.4A10.73,10.73,0,1,1,26.73,16,10.72,10.72,0,0,1,16,26.73Z" style="fill:#4d4d4d"/><path d="M22.87,9.13a.47.47,0,0,0-.56-.08L14,13.81h0a1.06,1.06,0,0,0-.15.15h0L9.05,22.31a.47.47,0,0,0,.64.64L18,18.19h0l.15-.15h0L23,9.69a.47.47,0,0,0-.08-.56ZM10.71,21.29,14.32,15,17,17.68Zm7-4.26L15,14.32l6.31-3.61Z" style="fill:#4d4d4d"/><path d="M8.53,15.53H6.67a.47.47,0,1,0,0,.94H8.53a.47.47,0,1,0,0-.94Z" style="fill:#4d4d4d"/><path d="M25.33,15.53H23.47a.47.47,0,0,0,0,.94h1.86a.47.47,0,0,0,0-.94Z" style="fill:#4d4d4d"/><path d="M16,9a.47.47,0,0,0,.47-.47V6.67a.47.47,0,0,0-.94,0V8.53A.47.47,0,0,0,16,9Z" style="fill:#4d4d4d"/><path d="M16,23a.47.47,0,0,0-.47.47v1.86a.47.47,0,1,0,.94,0V23.47A.47.47,0,0,0,16,23Z" style="fill:#4d4d4d"/></svg>