<svg id="aa9007fa-68dd-4580-a7ad-eaec18f19f1c" data-name="Livello 1" xmlns="http://www.w3.org/2000/svg" viewBox="0 0 32 32"><path d="M20.05,16.05a3.43,3.43,0,1,0,3.43,3.42A3.34,3.34,0,0,0,20.05,16.05Zm0,5.79a2.37,2.37,0,1,1,2.37-2.37A2.37,2.37,0,0,1,20.05,21.84Z" style="fill:#4d4d4d"/><path d="M26.38,27a2.82,2.82,0,0,0-2.85-2.84h-7A2.82,2.82,0,0,0,13.73,27v2.32a.53.53,0,0,0,1.06,0V27a1.83,1.83,0,0,1,1.79-1.78h7A1.83,1.83,0,0,1,25.32,27v2.32a.5.5,0,0,0,.53.53.51.51,0,0,0,.53-.53Z" style="fill:#4d4d4d"/><path d="M21.64,13.3c.1-.1.09-.31,0-.54L18.37,7.89l.08-.11L21.62,3c.08-.08.06-.19,0-.31h0v0h0v0h0a1,1,0,0,1,0-.17c0-.18-.18-.3-.42-.3H6.15a.51.51,0,0,0-.53.53V29.32a.51.51,0,0,0,.53.53.5.5,0,0,0,.53-.53V13.63H21.21a.49.49,0,0,0,.34-.22Zm-15-.73V3.21H20.27l-3,4.37a.71.71,0,0,0,0,.65l2.94,4.34Z" style="fill:#4d4d4d"/></svg>