<svg id="f9a9f3a3-7d83-4dd7-b735-3cfa9cf8a098" data-name="Livello 1" xmlns="http://www.w3.org/2000/svg" viewBox="0 0 32 32"><path d="M27.89,5h0a7.9,7.9,0,0,0-5.65-2.32h-.15a8.05,8.05,0,0,0-5.76,2.62L16,5.62l-.32-.35A8.06,8.06,0,0,0,9.91,2.65H9.75a8,8,0,0,0-8,8.09,7.93,7.93,0,0,0,2.53,5.73l.34.31-.33.32a2.47,2.47,0,0,0-.63,2.59,2.43,2.43,0,0,0,2,1.7l.41.05,0,.42a2.52,2.52,0,0,0,2.45,2.67H9l0,.41a2.51,2.51,0,0,0,3.13,2.25l.42-.11.12.42a2.51,2.51,0,0,0,4.19,1.12l.25-.25a3.1,3.1,0,0,0,1.29-2.27v-.41h.41a2.51,2.51,0,0,0,2.38-2.41v-.42h.42a2.52,2.52,0,0,0,2.41-2.41V20h.42a2.53,2.53,0,0,0,2.41-2.57v-.19l1-1A8,8,0,0,0,27.89,5ZM6.06,20.41A1.48,1.48,0,0,1,5,20a1.47,1.47,0,0,1,0-2.1L5.8,17a1.49,1.49,0,0,1,2.44.49,1.47,1.47,0,0,1-.32,1.64l-.8.8A1.56,1.56,0,0,1,6.06,20.41Zm2.55,3.11h0a1.52,1.52,0,0,1-1-.43,1.5,1.5,0,0,1,0-2.12l.8-.81a1.5,1.5,0,0,1,1.06-.44,1.5,1.5,0,0,1,1.06,2.56l-.7.7A1.52,1.52,0,0,1,8.61,23.52Zm4,2.31a1.51,1.51,0,0,1-1.06.43,1.5,1.5,0,0,1-1.06-2.56l.71-.7a1.45,1.45,0,0,1,1.09-.53h.1a1.46,1.46,0,0,1,1,.44,1.5,1.5,0,0,1,0,2.12ZM17,27.1l-.8.8a1.5,1.5,0,0,1-2.56-1.06,1.48,1.48,0,0,1,.44-1.06l.8-.8A1.5,1.5,0,0,1,17,25a1.5,1.5,0,0,1,0,2.12Zm8.47-8.54a1.51,1.51,0,0,1-2.13,0l-3.87-3.87-.71.71,3.88,3.88a1.47,1.47,0,0,1,.43,1.06,1.49,1.49,0,0,1-2.55,1.06l-3.88-3.88-.71.71,3.87,3.88A1.5,1.5,0,0,1,18,24.45h0l-.05,0-.2-.18a2.5,2.5,0,0,0-2.39-.62l-.43.11-.1-.43a2.53,2.53,0,0,0-2.35-1.85h-.48l0-.42a2.49,2.49,0,0,0-2.16-2.3l-.42,0,0-.42A2.45,2.45,0,0,0,8.2,16a2.48,2.48,0,0,0-2.56-.08l-.27.15-.24-.2a7.06,7.06,0,0,1-2.34-5.07,6.89,6.89,0,0,1,2-5.1,6.82,6.82,0,0,1,4.88-2h.22A7,7,0,0,1,15,6l.28.3L13,8.63l1.56,1.55a3.84,3.84,0,0,0,4.73.53l.3-.18.24.24,5.67,5.67A1.5,1.5,0,0,1,25.46,18.56Zm1.73-3-.62.62-.31-.33-.08-.09L19.56,9.11l-.36.36a2.81,2.81,0,0,1-4,0l-.84-.84,2.93-2.94a6.84,6.84,0,0,1,9.83,0A6.82,6.82,0,0,1,27.19,15.53Z" style="fill:#4d4d4d"/></svg>