<svg id="e4489206-981e-49f9-bdfe-68ec095e1977" data-name="Livello 1" xmlns="http://www.w3.org/2000/svg" viewBox="0 0 32 32"><path d="M25.14,20.16H6.86c-1.73-.06-5.37-.9-5.64-3.13a.47.47,0,0,1,.12-.39.48.48,0,0,1,.37-.17H30.29a.48.48,0,0,1,.37.17.47.47,0,0,1,.12.39c-.27,2.23-3.91,3.07-5.62,3.13ZM2.43,17.47c.72,1,2.91,1.64,4.45,1.69H25.13c1.54-.05,3.72-.67,4.44-1.69Z" style="fill:#4d4d4d"/><path d="M3.72,17.14a.5.5,0,0,1-.5-.48v-.4a11.41,11.41,0,0,1,4-9.07,13.63,13.63,0,0,1,8.77-3c8.78,0,12.79,6.26,12.79,12.08v.35a.52.52,0,0,1-.52.51.48.48,0,0,1-.48-.49v-.28A10.45,10.45,0,0,0,24.12,8,12.6,12.6,0,0,0,16,5.18c-5.68,0-11.79,3.47-11.79,11.08v.37a.5.5,0,0,1-.48.51Z" style="fill:#4d4d4d"/><path d="M15.26,31a.5.5,0,0,1-.14-1l8.68-2.51a.5.5,0,0,1,.62.34.51.51,0,0,1-.34.62L15.4,31Z" style="fill:#4d4d4d"/><path d="M21.32,28.37a.45.45,0,0,1-.16,0,.5.5,0,0,1-.31-.63c.08-.25.14-.49.21-.74a10.66,10.66,0,0,1,1.53-3.49,11.09,11.09,0,0,1,1-1.22,8.11,8.11,0,0,0,1.06-1.4l.06-.1c.18-.24.18-.34.18-.34a3.25,3.25,0,0,0-2.37.93c-.12.17-.22.33-.31.48A3,3,0,0,1,21,23c-1.83,1-2.56.07-3.47-1.07-.32-.39-.68-.84-1.15-1.32a1.61,1.61,0,0,0-1.52-.39.79.79,0,0,0-.49.27l.07.09a.5.5,0,1,1-.7.71,1,1,0,0,1-.34-1,1.54,1.54,0,0,1,1.18-1,2.6,2.6,0,0,1,2.51.65,17.79,17.79,0,0,1,1.22,1.39c.9,1.13,1.12,1.4,2.23.81a2,2,0,0,0,.76-.85l.35-.53a3.89,3.89,0,0,1,3.14-1.3,1.09,1.09,0,0,1,1,.59,1.27,1.27,0,0,1-.27,1.25,9.55,9.55,0,0,1-1.2,1.6,13.09,13.09,0,0,0-.89,1.1A9.73,9.73,0,0,0,22,27.22c-.08.27-.14.53-.24.81A.51.51,0,0,1,21.32,28.37Z" style="fill:#4d4d4d"/><path d="M15.82,23.22a.51.51,0,0,1-.36-.15l-2.37-2.44a1.11,1.11,0,0,0-1.1-.35.66.66,0,0,0-.49.38c0,.1,0,.2.15.31a.5.5,0,0,1-.69.73,1.3,1.3,0,0,1-.43-1.28,1.63,1.63,0,0,1,1.2-1.11,2.13,2.13,0,0,1,2.07.62l2.38,2.45a.49.49,0,0,1,0,.7A.47.47,0,0,1,15.82,23.22Z" style="fill:#4d4d4d"/><path d="M16.92,30.52h0a.5.5,0,0,1-.48-.52c0-.41-.34-1.64-4-4.32l-.22-.16-3.4-2.74a2.34,2.34,0,0,1-1.06-2.15,1.43,1.43,0,0,1,1-1.1,2.09,2.09,0,0,1,2,.61l.88.84,2.57,2.15a.49.49,0,0,1,.07.7.51.51,0,0,1-.71.06L11,21.72l-.9-.86a1.12,1.12,0,0,0-1-.38.41.41,0,0,0-.29.33c-.06.35.2.79.7,1.19L13,24.88c3,2.21,4.43,3.9,4.38,5.16A.5.5,0,0,1,16.92,30.52Z" style="fill:#4d4d4d"/><path d="M25.7,14.72a.5.5,0,0,1-.49-.4c-.93-4.84-5.36-7-9.34-7a.5.5,0,0,1,0-1h0c4.39,0,9.29,2.42,10.33,7.82a.51.51,0,0,1-.4.59Z" style="fill:#4d4d4d"/><path d="M16,4.44a1.69,1.69,0,0,1-1.66-1.72,1.66,1.66,0,1,1,3.32,0A1.69,1.69,0,0,1,16,4.44ZM16,2a.69.69,0,0,0-.66.72.66.66,0,1,0,1.32,0A.69.69,0,0,0,16,2Z" style="fill:#4d4d4d"/></svg>