<svg id="e6dbd5d8-58e9-4e0a-8464-5e4a52ee4822" data-name="Livello 1" xmlns="http://www.w3.org/2000/svg" viewBox="0 0 32 32"><path d="M31.81,6.07l-1.3-2.59a1,1,0,0,0-.89-.55H17.77V1a1,1,0,0,0-1-1H14.13a1,1,0,0,0-1,1v2H9.79a.47.47,0,0,0,0,.94H29.62a.05.05,0,0,1,.05,0L31,6.49a0,0,0,0,1,0,0l-1.3,2.59a.05.05,0,0,1-.05,0H2.43a.05.05,0,0,1-.05,0L1,6.54a0,0,0,0,1,0,0L2.38,3.9a.05.05,0,0,1,.05,0H7.79a.47.47,0,0,0,0-.94H2.43a1,1,0,0,0-.88.53L.2,6.05A1,1,0,0,0,.2,7L1.55,9.56a1,1,0,0,0,.88.53H13.16v2.66l-7.22.66a.68.68,0,0,0-.51.32L4,16.05a.67.67,0,0,0,.09.83L6,18.83a.66.66,0,0,0,.48.2h.08l6.61-.83v3l-6.68-.36h0a.64.64,0,0,0-.67.59l-.2,2.93a.63.63,0,0,0,.58.67l7,.61v5.89a.47.47,0,0,0,.94,0V25.72l2.73.23v1.58a.47.47,0,0,0,.94,0V26l5.17.44h0a.63.63,0,0,0,.47-.2l1.48-1.64a.65.65,0,0,0,.06-.79L23.76,22a.61.61,0,0,0-.49-.28l-5.5-.3V17.62l9.42-1.17a.68.68,0,0,0,.58-.75l-.39-3.61a.67.67,0,0,0-.73-.59l-5,.46a.47.47,0,0,0-.43.51.46.46,0,0,0,.51.42l4.75-.44.33,3.1L6.57,18.08,4.89,16.37l1.27-2,7.52-.69h0l6.06-.56a.48.48,0,0,0,.43-.51.48.48,0,0,0-.51-.43l-1.89.18V10.09H29.62a1,1,0,0,0,.89-.55L31.81,7a1,1,0,0,0,0-.88ZM14.1,1a0,0,0,0,1,0,0H16.8a0,0,0,0,1,0,0v2H14.1V1Zm10,23.21-1.22,1.36-5.52-.48h0L6.56,24.13l.17-2.34,16.34.88ZM16.83,21.4l-2.73-.15V18.08l2.73-.34Zm0-9-2.73.26V10.09h2.73Z" style="fill:#4d4d4d"/><path d="M3.12,6.51A1.39,1.39,0,1,0,4.51,5.12,1.39,1.39,0,0,0,3.12,6.51ZM5,6.51A.46.46,0,0,1,4.51,7a.47.47,0,0,1-.46-.46.46.46,0,0,1,.46-.45A.45.45,0,0,1,5,6.51Z" style="fill:#4d4d4d"/><path d="M28.75,6.51A1.39,1.39,0,1,0,27.36,7.9,1.39,1.39,0,0,0,28.75,6.51Zm-1.85,0a.46.46,0,0,1,.46-.45.45.45,0,0,1,.45.45.46.46,0,0,1-.45.46A.47.47,0,0,1,26.9,6.51Z" style="fill:#4d4d4d"/><path d="M17.3,29.06a.47.47,0,0,0-.47.47v2a.47.47,0,0,0,.94,0v-2A.47.47,0,0,0,17.3,29.06Z" style="fill:#4d4d4d"/></svg>