<svg id="f299a223-0899-4f3a-b79b-8d8fc2fbf4c5" data-name="Livello 1" xmlns="http://www.w3.org/2000/svg" viewBox="0 0 32 32"><path d="M24,1.71a8,8,0,0,0-7.91,6.7h-5.8V7.27A1.74,1.74,0,0,0,11.6,5.58V3.69A1.74,1.74,0,0,0,10.27,2V1a.5.5,0,0,0-.5-.5.5.5,0,0,0-.5.5V2a1.76,1.76,0,0,0-1.34,1.7V5.58A1.74,1.74,0,0,0,9.27,7.27V8.41h-5a1.66,1.66,0,0,0-1.4.76,1.65,1.65,0,0,0-.13,1.58l5.2,11.92a2.77,2.77,0,0,1-.31,2.76,3.77,3.77,0,0,0,3,6.07h6.6a3.69,3.69,0,0,0,3.36-2.07,3.74,3.74,0,0,0-.34-3.95,2.81,2.81,0,0,1-.35-2.81l2.25-5.15a8.31,8.31,0,0,0,1.86.23,8,8,0,0,0,0-16Zm-15,3.87V3.69a.76.76,0,0,1,.75-.75h.17a.75.75,0,0,1,.75.75V5.58a.75.75,0,0,1-.75.75H9.68A.76.76,0,0,1,8.93,5.58ZM31,9.28H25.22l4.1-4.1A7,7,0,0,1,31,9.28Zm-7.57-.87L19.53,4.52a.39.39,0,0,0-.16-.1,7,7,0,0,1,4.14-1.69V8.41Zm1.1.17V2.74a7,7,0,0,1,4.1,1.73Zm-5.8-3.51a.76.76,0,0,0,.11.16L22,8.41H17.08A6.91,6.91,0,0,1,18.71,5.07Zm1,23.91A2.72,2.72,0,0,1,17.2,30.5H10.6A2.78,2.78,0,0,1,8.11,29,2.73,2.73,0,0,1,8.41,26c0-.05.07-.11.11-.17a36,36,0,0,0,5.38.41,36,36,0,0,0,5.38-.41l.14.22A2.76,2.76,0,0,1,19.67,29ZM19,22.27a3.65,3.65,0,0,0-.13,2.64,35.4,35.4,0,0,1-9.86,0,3.76,3.76,0,0,0-.13-2.64L3.63,10.35a.68.68,0,0,1,.62-.94H23.54a.68.68,0,0,1,.57.3.67.67,0,0,1,.05.64Zm3.57-5.69,2.32-5.32L28.6,15A7,7,0,0,1,24,16.75,7.09,7.09,0,0,1,22.53,16.58ZM29.3,14.3l-4-4H31A7,7,0,0,1,29.3,14.3Z" style="fill:#4d4d4d"/><path d="M7.5,17l2.17,5h0a2.19,2.19,0,0,0,2,1.35h4.46a2.17,2.17,0,0,0,2-1.35h0L20.28,17a58.39,58.39,0,0,1-6.2.33A57.92,57.92,0,0,1,7.5,17Zm9.7,4.58a1.18,1.18,0,0,1-1.07.74H11.67a1.16,1.16,0,0,1-1.08-.76L9.1,18.11q2.49.21,5,.21c1.53,0,3.07-.06,4.6-.18Z" style="fill:#4d4d4d"/></svg>