<svg id="ffead45d-d17b-49f3-803a-a2577620c87c" data-name="Livello 1" xmlns="http://www.w3.org/2000/svg" viewBox="0 0 32 32"><path d="M29.45,16A13.46,13.46,0,0,0,16,2.55h0A13.42,13.42,0,0,0,3.64,10.71l-.1.25a13.45,13.45,0,1,0,25.91,5Zm-2.37-5.65a12.44,12.44,0,0,1-.54,12.26l0,.05,0,0L25.88,22V20.47a.46.46,0,0,0-.05-.23L24.1,16.76V15.11a.5.5,0,0,0-.23-.42l-1.34-.89a.47.47,0,0,0-.4-.07l-1.62.4h0L17.8,13v0l-.37-2.57h0l1-1h2.2l0,0,.73,1.1a.49.49,0,0,0,.33.21l2.68.45a.49.49,0,0,0,.24,0l2.42-.81ZM21.79,5a12.38,12.38,0,0,1,2.74,2l0,0-.65.43h0l-2-.4-1.31-.44a.57.57,0,0,0-.29,0L18.7,7h0l-.64-.21.5-1H20a.51.51,0,0,0,.22,0L21.76,5ZM4.61,11a12.5,12.5,0,0,1,6.47-6.43h0l0,0,1,.68a.7.7,0,0,0,.2.08l2.1.35-.18.54h0l-1.07.36a.46.46,0,0,0-.28.21L11.61,8.94l-2,1.22-3,.43a.51.51,0,0,0-.44.5v1.34a.51.51,0,0,0,.15.35l.75.75v.64L5.27,13v0L4.6,11Zm5.24,8.08-2-.4v0l-.72-1.45v-1l1.59-1.59,0,.06.55,1.1a.51.51,0,0,0,.45.28h2.84l1.2,2a.5.5,0,0,0,.43.24h1.17v.06l-.29,1.42-1.68,1.68a.5.5,0,0,0-.14.35v1.09l0,0-1.57,1.17a.51.51,0,0,0-.2.4V26L11,25.86v0l-.76-1.91V19.57A.49.49,0,0,0,9.85,19.08ZM16,28.43A12.39,12.39,0,0,1,8.53,26,12.52,12.52,0,0,1,4,12.7l0-.16.31.94a.52.52,0,0,0,.2.26l2.17,1.45-.46.45a.55.55,0,0,0-.15.36v1.34a.43.43,0,0,0,.06.22l.89,1.79a.5.5,0,0,0,.35.27L9.25,20V24a.39.39,0,0,0,0,.18l.89,2.23a.49.49,0,0,0,.31.29l1.34.45a.41.41,0,0,0,.16,0,.51.51,0,0,0,.5-.51v-2h0l1.56-1.17a.51.51,0,0,0,.2-.41V22l1.64-1.64a.52.52,0,0,0,.14-.25l.45-2.24a.51.51,0,0,0-.4-.59H14.5l-1.19-2a.51.51,0,0,0-.43-.24H10.06v0l-.74-1.48a.52.52,0,0,0-.37-.27.49.49,0,0,0-.43.14L8,13.89v-.57A.5.5,0,0,0,7.88,13l-.75-.75v-.69h0l2.66-.38a.45.45,0,0,0,.18-.07l2.23-1.34a.58.58,0,0,0,.18-.17l1.24-2.07,1.16-.39a.51.51,0,0,0,.32-.32l.45-1.34a.51.51,0,0,0-.32-.63l-.08,0-2.58-.43-.34-.23.11,0a12.46,12.46,0,0,1,8.11.3l.1,0-.7.34H18.24a.52.52,0,0,0-.46.28l-.89,1.79a.5.5,0,0,0,0,.38.51.51,0,0,0,.25.29l.07,0L18.52,8a.44.44,0,0,0,.28,0l1.64-.41h0L21.64,8l.06,0,2.24.45a.52.52,0,0,0,.38-.08l1-.65,0,0a12.37,12.37,0,0,1,1.2,1.6l0,.05-.07,0-2,.69h0L22.1,9.74v0l-.76-1.14a.5.5,0,0,0-.42-.23H18.23a.51.51,0,0,0-.35.15L16.54,9.84a.49.49,0,0,0-.14.43l.44,3.12a.48.48,0,0,0,.31.39l3.12,1.34a.44.44,0,0,0,.32,0l1.57-.39h0l.91.61v1.51a.46.46,0,0,0,.05.23l1.73,3.48v1.65a.55.55,0,0,0,.15.36l.9.9,0,0A12.42,12.42,0,0,1,16,28.43Z" style="fill:#4d4d4d"/></svg>