<svg id="b28c8692-94dd-4914-b308-29ee427411d3" data-name="Livello 1" xmlns="http://www.w3.org/2000/svg" viewBox="0 0 32 32"><g id="a762212a-6e46-46e9-9454-fe052ef4c581" data-name="wild fauna"><path d="M7.64,16.39a4.12,4.12,0,0,1-3.93-2.83L2.28,9.26a5.31,5.31,0,0,1,5-7h1.2a.5.5,0,0,1,.5.5.5.5,0,0,1-.5.5H7.31A4.31,4.31,0,0,0,3.23,9l1.43,4.3a3.13,3.13,0,0,0,3,2.14.51.51,0,0,1,.5.5A.5.5,0,0,1,7.64,16.39Z" style="fill:#4d4d4d"/><path d="M20.32,16.39a.5.5,0,0,1-.5-.5.5.5,0,0,1,.5-.5A3.64,3.64,0,0,0,23.6,13.3l1.82-3.89a4.32,4.32,0,0,0-3.91-6.14H19.88a.5.5,0,0,1-.5-.5.5.5,0,0,1,.5-.5h1.63a5.31,5.31,0,0,1,4.81,7.56l-1.82,3.9A4.62,4.62,0,0,1,20.32,16.39Z" style="fill:#4d4d4d"/><path d="M17.26,9.83a.5.5,0,0,1-.5-.5,2.36,2.36,0,0,1,1.73-2.1L18,4.46a1.7,1.7,0,0,0-1.85-1.4l-.82.09a9.24,9.24,0,0,1-2.23,0l-.82-.09a1.7,1.7,0,0,0-1.85,1.4L9.94,7.29a2.24,2.24,0,0,1,1.69,2,.5.5,0,0,1-.5.5.5.5,0,0,1-.5-.5c0-.64-.69-1-1.1-1.17a1,1,0,0,1-.58-1L9.43,4.3a2.69,2.69,0,0,1,2.94-2.23l.82.09a9.65,9.65,0,0,0,2,0L16,2.07A2.68,2.68,0,0,1,19,4.3l.48,2.83a.94.94,0,0,1-.58,1c-.41.16-1.1.53-1.1,1.17A.5.5,0,0,1,17.26,9.83Z" style="fill:#4d4d4d"/><path d="M27.75,30H23.38a.5.5,0,0,1-.5-.5V25.51a.5.5,0,0,1,.5-.5.51.51,0,0,1,.5.5V29h3.37V22l1.19-6.59A6.06,6.06,0,0,0,27,10.34l-1-1.12a.5.5,0,0,1,.75-.65l1,1.11a7.05,7.05,0,0,1,1.64,5.92l-1.19,6.5v7.35A.5.5,0,0,1,27.75,30Z" style="fill:#4d4d4d"/><path d="M21.37,23.94a3.39,3.39,0,0,1-.45,0l-1.08-.1a.5.5,0,0,1-.46-.54.51.51,0,0,1,.55-.45l1.08.1A3.85,3.85,0,0,0,25.11,20l.41-1.62a.5.5,0,0,1,.6-.36.51.51,0,0,1,.37.61l-.41,1.61A4.84,4.84,0,0,1,21.37,23.94Z" style="fill:#4d4d4d"/><path d="M12,30H7.64a.5.5,0,0,1-.5-.5V22.89l.44-2.71a.5.5,0,0,1,1,.17L8.13,23v6h3.37a.5.5,0,0,1,1,.06v.44A.5.5,0,0,1,12,30Z" style="fill:#4d4d4d"/><path d="M29.5,23.39a.57.57,0,0,1-.28-.08c-1.51-1-1.53-3.38-1.53-3.48a.5.5,0,0,1,.5-.5h0a.5.5,0,0,1,.5.5s0,1.93,1.09,2.64a.51.51,0,0,1,.14.7A.52.52,0,0,1,29.5,23.39Z" style="fill:#4d4d4d"/><path d="M8.51,19A.5.5,0,0,1,8,18.36l1.75-5.25a.5.5,0,1,1,.94.32L9.24,17.9a2.34,2.34,0,0,0,1.36-1.17l.52-1.06a.5.5,0,0,1,.9.45l-.53,1.06A3.33,3.33,0,0,1,8.51,19Z" style="fill:#4d4d4d"/><path d="M19.44,19a3.33,3.33,0,0,1-3-1.84l-.53-1.06a.5.5,0,0,1,.23-.67.49.49,0,0,1,.67.22l.53,1.06a2.29,2.29,0,0,0,1.35,1.17l-1.49-4.47a.5.5,0,0,1,.32-.64.51.51,0,0,1,.63.32l1.75,5.25a.52.52,0,0,1-.07.45A.52.52,0,0,1,19.44,19Z" style="fill:#4d4d4d"/><path d="M12.67,27.32A3.35,3.35,0,0,1,9.32,24V22.89a.5.5,0,0,1,.5-.5.5.5,0,0,1,.5.5V24a2.35,2.35,0,0,0,2.35,2.34c.07,0,1.91,0,2.35-2.43l.43-5a.5.5,0,0,1,.54-.45.49.49,0,0,1,.45.54L16,24C15.53,26.64,13.68,27.32,12.67,27.32Z" style="fill:#4d4d4d"/><path d="M12.45,23.39a.5.5,0,0,1-.5-.45l0-.25a.81.81,0,0,0-1.6.2.5.5,0,0,1-.5.5.5.5,0,0,1-.5-.5,1.82,1.82,0,0,1,1.81-1.81,1.59,1.59,0,0,1,.62.11L11.51,19a.5.5,0,0,1,1-.11l.4,3.62a2.21,2.21,0,0,1,0,.37.51.51,0,0,1-.48.5Z" style="fill:#4d4d4d"/><path d="M17.85,13.8a.89.89,0,0,1-.31-.06,1.65,1.65,0,0,0-.66-.09.5.5,0,0,1-.56-.43.51.51,0,0,1,.44-.56,2.36,2.36,0,0,1,.9.08,12.55,12.55,0,0,0-.87-3.23.5.5,0,0,1,.93-.36c.94,2.42,1.16,3.9.67,4.42A.76.76,0,0,1,17.85,13.8Z" style="fill:#4d4d4d"/><path d="M10.13,13.8a.74.74,0,0,1-.54-.24c-.16-.19-.67-.77,1.12-4.45a.52.52,0,0,1,.67-.23.51.51,0,0,1,.23.67,15.09,15.09,0,0,0-1.21,3.17,2.16,2.16,0,0,1,.79-.06.5.5,0,1,1-.11,1,1.52,1.52,0,0,0-.64.09A1,1,0,0,1,10.13,13.8Z" style="fill:#4d4d4d"/><path d="M19.88,30H15.51a.5.5,0,0,1-.5-.5V27.7a.5.5,0,0,1,.5-.5.5.5,0,0,1,.5.5V29h3.37v-6.5a.5.5,0,0,1,1,0v7A.5.5,0,0,1,19.88,30Z" style="fill:#4d4d4d"/></g></svg>