<svg id="b61db4d0-d0a0-4823-afea-926c064c392e" data-name="Livello 1" xmlns="http://www.w3.org/2000/svg" viewBox="0 0 32 32"><path d="M30.69,28.77A.56.56,0,0,0,31,28.3V7.3a.55.55,0,0,0-.3-.49l-7.19-3.6h0a.51.51,0,0,0-.45,0h0L16,6.68h0L9.05,3.21H9a.51.51,0,0,0-.45,0h0l-7.2,3.6a.55.55,0,0,0-.3.49v21a.56.56,0,0,0,.26.47.55.55,0,0,0,.54,0l7-3.48h0l6.93,3.47a.55.55,0,0,0,.5,0l7-3.48h0l6.93,3.47A.55.55,0,0,0,30.69,28.77ZM25,14.45a2.45,2.45,0,0,1,2.45,2.45c0,.91-1.3,3-2.41,4.45l0,0,0,0c-1.11-1.49-2.41-3.54-2.41-4.45A2.45,2.45,0,0,1,25,14.45ZM9.35,4.59l6.1,3.05V13.9a.55.55,0,0,0,1.1,0V7.64l6.1-3v9.65l0,0a3.54,3.54,0,0,0-1.18,2.64c0,1.3,1.49,3.55,2.38,4.77l.06.08H13.3a.95.95,0,0,1,0-1.9h4.8a2.05,2.05,0,0,0,0-4.1h-10l.06-.08c.89-1.22,2.38-3.47,2.38-4.77A3.54,3.54,0,0,0,9.37,8.26l0,0Zm.1,6.31c0,.91-1.3,3-2.41,4.45l0,.05,0-.05c-1.11-1.49-2.41-3.54-2.41-4.45a2.45,2.45,0,1,1,4.9,0Zm20.4,16.51-6.4-3.21a.58.58,0,0,0-.5,0l-6.4,3.21V24.7a.55.55,0,1,0-1.1,0v2.71l-6.1-3.05V18.7a.55.55,0,1,0-1.1,0v5.66l-6.1,3.05V7.64l6.1-3v3l-.07,0A3.51,3.51,0,0,0,5,8a3.55,3.55,0,0,0-1.5,2.9c0,1.8,2.8,5.34,3.12,5.74,0,0,0,0,0,0l.13.1a.47.47,0,0,0,.28.09H18.1a.95.95,0,1,1,0,1.9H13.3a2.05,2.05,0,0,0,0,4.1H25a.65.65,0,0,0,.41-.19s0,0,0,0c.32-.4,3.12-3.94,3.12-5.74a3.55,3.55,0,0,0-1.5-2.9,3.51,3.51,0,0,0-3.23-.44l-.07,0v-9l6.1,3.05Z" style="fill:#4d4d4d"/><path d="M6.49,10.69a.78.78,0,0,0,0,.21.56.56,0,0,0,.45.54.55.55,0,0,0,.61-.34.54.54,0,0,0-.21-.66h0a.55.55,0,0,0-.3-.09.54.54,0,0,0-.39.16A.57.57,0,0,0,6.49,10.69Z" style="fill:#4d4d4d"/><path d="M24.49,16.69a.78.78,0,0,0,0,.21.56.56,0,0,0,.45.54.55.55,0,0,0,.61-.34.54.54,0,0,0-.21-.66.55.55,0,0,0-.3-.09.54.54,0,0,0-.39.16A.57.57,0,0,0,24.49,16.69Z" style="fill:#4d4d4d"/></svg>