<svg id="f82241d0-dabe-4234-935e-78b4967437b4" data-name="Livello 1" xmlns="http://www.w3.org/2000/svg" viewBox="0 0 32 32"><path d="M10.84,12.72a8.45,8.45,0,1,0,5.75,14.61.43.43,0,0,0,.13-.09l0-.06h0a8.44,8.44,0,0,0-5.93-14.45ZM15.71,25.6a.45.45,0,0,0-.63,0,.44.44,0,0,0-.13.32.4.4,0,0,0,.13.31l.66.67a7.47,7.47,0,0,1-4.5,1.8v-1a.45.45,0,1,0-.89,0v1a7.52,7.52,0,0,1-4.6-2L6.47,26a.44.44,0,0,0,0-.62.45.45,0,0,0-.32-.14h0a.41.41,0,0,0-.31.14l-.71.7A7.55,7.55,0,0,1,3.3,21.46H4.42a.45.45,0,1,0,0-.89H3.32a7.48,7.48,0,0,1,1.79-4.31l.82.82a.42.42,0,0,0,.31.13.44.44,0,0,0,.45-.44.48.48,0,0,0-.13-.32l-.83-.83a7.5,7.5,0,0,1,4.62-2v1.13a.45.45,0,1,0,.89,0V13.63a7.55,7.55,0,0,1,4.52,1.82l-.8.8a.44.44,0,0,0-.13.31.44.44,0,0,0,.45.45.44.44,0,0,0,.31-.13l.81-.81a7.52,7.52,0,0,1,2,4.5h-1a.45.45,0,1,0,0,.89h1.05a7.54,7.54,0,0,1-2,4.82Z" style="fill:#4d4d4d"/><path d="M11.22,16.13a.45.45,0,0,0-.85,0l-1.6,5a.45.45,0,0,0,0,.28l1.6,5a.45.45,0,0,0,.85,0l1.6-5a.45.45,0,0,0,0-.28Zm.7,5.11L10.8,24.76,9.66,21.24l1.14-3.52Z" style="fill:#4d4d4d"/><path d="M31.9,20.51,27.31,2.19A2.89,2.89,0,0,0,23.8.09L9.74,3.61a.43.43,0,0,0-.27.2.42.42,0,0,0-.05.34L11,10.33h-.12A10.84,10.84,0,1,0,20.32,26.4L29.8,24a2.89,2.89,0,0,0,2.1-3.52Zm-11.11.66a9.95,9.95,0,1,1-9.95-10A10,10,0,0,1,20.79,21.17ZM19.83,11l.41,1.61L18.75,13A5.74,5.74,0,0,1,18,11.49ZM17.66,8.8l1.5-.39.45,1.74-1.87.48A6.58,6.58,0,0,1,17.66,8.8ZM25,12.3a5.2,5.2,0,0,1-2.44,2.76,8.16,8.16,0,0,0,.89-2.36ZM23.5,10.07l1.79-.46a5.45,5.45,0,0,1,0,1.71l-1.69.43A6.31,6.31,0,0,0,23.5,10.07Zm-.86.22a6,6,0,0,1,.05,1.7l-1.58.4-.42-1.6Zm-.22-.86-2,.5L20,8.19l1.59-.41A7,7,0,0,1,22.42,9.43ZM22,6.77a8.29,8.29,0,0,0-1.55-1.49,5.23,5.23,0,0,1,2.4.71,6.25,6.25,0,0,1,.58.41Zm.55.78,1.63-.42a5.26,5.26,0,0,1,.92,1.61l-1.79.46A7.09,7.09,0,0,0,22.52,7.55ZM21,7l-1.21.32-.43-1.67A7.62,7.62,0,0,1,21,7Zm1.48,6a7.81,7.81,0,0,1-.77,1.82l-.39-1.52ZM17.81,7.84A7.41,7.41,0,0,1,18.53,6l.41,1.58ZM17.49,6a8.4,8.4,0,0,0-.64,2.06l-1.44.37A5.19,5.19,0,0,1,17.49,6Zm3,7.45.37,1.43a7.4,7.4,0,0,1-1.44-1.15Zm-5.35-4L16.74,9a7.45,7.45,0,0,0,.14,1.81l-1.63.42,0,0-.14-.06A5.28,5.28,0,0,1,15.11,9.46Zm2,2.26a8.59,8.59,0,0,0,.37.88,10.59,10.59,0,0,0-1-.71Zm3.22,3.93h-.16l-.1-.17Zm1.3,6.59,6.64-1.67a.45.45,0,0,0,.27-.2.45.45,0,0,0,0-.34.45.45,0,0,0-.2-.27.45.45,0,0,0-.34-.05L21.67,21.3h0a.49.49,0,0,0,0-.12,10.84,10.84,0,0,0-.12-1.62L27.87,18a.45.45,0,0,0,.27-.2.44.44,0,0,0-.49-.66l-6.26,1.57a10.86,10.86,0,0,0-.76-2.16,5.53,5.53,0,0,0,1.08-.17A6.09,6.09,0,0,0,26.06,9a6.08,6.08,0,0,0-7.39-4.38,6.06,6.06,0,0,0-4.53,6.28,10.76,10.76,0,0,0-2.24-.47l-1.51-6L24,1a2,2,0,0,1,2.43,1.46L31,20.73a2,2,0,0,1-1.46,2.43l-8.75,2.2A10.61,10.61,0,0,0,21.62,22.24Z" style="fill:#4d4d4d"/></svg>