<svg id="a40edfee-4f64-4659-9ec2-deb1c2875257" data-name="Livello 1" xmlns="http://www.w3.org/2000/svg" viewBox="0 0 32 32"><path d="M10.53,22A7.77,7.77,0,0,0,16,24.22a7.56,7.56,0,0,0,3-.59A7.73,7.73,0,1,0,10.53,22ZM9.45,15.18A6.69,6.69,0,0,1,14.7,9.93,6.37,6.37,0,0,1,16,9.8,6.68,6.68,0,1,1,12.29,22a6.74,6.74,0,0,1-2.46-3A6.63,6.63,0,0,1,9.45,15.18Z" style="fill:#4d4d4d"/><path d="M30.32,3.61a.55.55,0,0,0-.38-.16H29a4.35,4.35,0,0,0-3.09,1.28,4.4,4.4,0,0,0-1.29,3.1v.89A11.26,11.26,0,0,0,21,6.05a11.58,11.58,0,0,0-9-.47,11.66,11.66,0,0,0-3.84,2.3L8,4a.55.55,0,0,0-.18-.37.51.51,0,0,0-.38-.12.49.49,0,0,0-.36.17A.56.56,0,0,0,6.92,4l.31,4.77a4,4,0,0,1-1.76.42V4a.51.51,0,0,0-.15-.37.55.55,0,0,0-.38-.16.49.49,0,0,0-.37.16A.52.52,0,0,0,4.41,4V9.2a4.19,4.19,0,0,1-1.75-.42L3,4a.55.55,0,0,0-.13-.38.51.51,0,0,0-.36-.17h0a.56.56,0,0,0-.35.13A.59.59,0,0,0,1.9,4L1.53,9.78A2.31,2.31,0,0,0,2,11.36a2.29,2.29,0,0,0,1.41.81v4.74a.55.55,0,0,0-.32.16.52.52,0,0,0-.16.37v9.14A1.93,1.93,0,0,0,3.55,28a2,2,0,0,0,3.37-1.39V23.67A11.6,11.6,0,0,0,17.42,28a11.67,11.67,0,0,0,5.51-2.21,11.54,11.54,0,0,0,3.6-4.44v5.25A1.93,1.93,0,0,0,27.11,28a2,2,0,0,0,1.39.58A2,2,0,0,0,29.9,28a2,2,0,0,0,.57-1.39V4A.5.5,0,0,0,30.32,3.61ZM29.41,18v8.61a.87.87,0,0,1-.27.64.89.89,0,0,1-1.28,0,.87.87,0,0,1-.27-.64V18ZM4.51,16.91V12.2h.86v4.71ZM5.85,18v8.61a.9.9,0,0,1-.26.64.93.93,0,0,1-.65.27A.92.92,0,0,1,4,26.58V18Zm.91-.9a.57.57,0,0,0-.33-.16V12.17A2.28,2.28,0,0,0,8.35,9.78l0-.5A10.55,10.55,0,0,1,16.73,6a10.66,10.66,0,0,1,4.44,1.33,10.54,10.54,0,0,1,3.43,3.11v7a.55.55,0,0,0,.16.38.51.51,0,0,0,.37.15h1.29a10.53,10.53,0,0,1-7.33,8.57,10.51,10.51,0,0,1-9-1.35A10.38,10.38,0,0,1,6.92,21.8V17.44A.52.52,0,0,0,6.76,17.07ZM2.59,9.92a6.58,6.58,0,0,0,2.35.36A6.93,6.93,0,0,0,7.3,9.92a1.25,1.25,0,0,1-.08.42,1.29,1.29,0,0,1-.26.42,1.15,1.15,0,0,1-.41.28,1.12,1.12,0,0,1-.48.1H3.82a1.19,1.19,0,0,1-.49-.1,1.25,1.25,0,0,1-.41-.28,1.41,1.41,0,0,1-.26-.42A1.23,1.23,0,0,1,2.59,9.92ZM29.41,4.51v12.4H25.67V7.83A3.31,3.31,0,0,1,29,4.51Z" style="fill:#4d4d4d"/></svg>