<svg id="a04196e3-bb6e-4f5d-9398-d02665044faa" data-name="Livello 1" xmlns="http://www.w3.org/2000/svg" viewBox="0 0 32 32"><rect x="20.38" y="22.41" width="1.01" height="9.59" style="fill:#4d4d4d"/><rect x="10.8" y="22.41" width="1.01" height="9.59" style="fill:#4d4d4d"/><path d="M28.78,9.35,27.51,6.93A4.62,4.62,0,0,0,24.08,4.5a5.87,5.87,0,0,0,.05-.74A3.52,3.52,0,0,0,20.89,0a3.53,3.53,0,0,0-3.25,3.76,6.17,6.17,0,0,0,.08,1L16.25,5l-1.78-.3a5.65,5.65,0,0,0,.07-.93A3.52,3.52,0,0,0,11.3,0,3.52,3.52,0,0,0,8.06,3.76a5.87,5.87,0,0,0,0,.74A4.59,4.59,0,0,0,4.68,6.93L3.41,9.35A1.17,1.17,0,0,0,3.88,11a2.41,2.41,0,0,0,.78.27,2.4,2.4,0,0,0,0,.28V21.73a1.2,1.2,0,0,0,1.19,1.19,2.53,2.53,0,0,0,1.55-.54V32h1V12.83h-1v7.53a1.54,1.54,0,0,1-1.55,1.55.19.19,0,0,1-.18-.18V11.5c0-.11,0-.2,0-.31A2.56,2.56,0,0,0,7.36,10L8.36,8,8.64,8l1.65-.28a2.94,2.94,0,0,0,2,0l2.51,1.07a3.7,3.7,0,0,1,.59.32,4.59,4.59,0,0,0-1.14,3V32h1V12.08a3.63,3.63,0,0,1,.86-2.32A3.59,3.59,0,0,1,17,12.08V32h1V12.08a4.63,4.63,0,0,0-1.49-3.4l-.05,0h0a4.69,4.69,0,0,0-1.26-.81l-1.84-.78a3.49,3.49,0,0,0,.88-1.38l4.1.69a2.91,2.91,0,0,0,2.58,1.49,3.06,3.06,0,0,0,1-.18L23.54,8l.27.07,1,2a2.5,2.5,0,0,0,1.68,1.23c0,.1,0,.19,0,.3V21.73a.18.18,0,0,1-.18.18,1.55,1.55,0,0,1-1.55-1.55V12.83h-1V32h1V22.38a2.58,2.58,0,0,0,1.55.54,1.19,1.19,0,0,0,1.19-1.19V11.5c0-.1,0-.19,0-.28a2.76,2.76,0,0,0,.78-.26A1.19,1.19,0,0,0,28.78,9.35ZM8.46,7A4.43,4.43,0,0,0,8,7.09H7.71L6.47,9.47a1.55,1.55,0,0,1-2.1.6.18.18,0,0,1-.07-.25L5.57,7.4A3.58,3.58,0,0,1,8.32,5.5a3.63,3.63,0,0,0,.76,1.35Zm2.84-.11c-1.36,0-2.23-1.22-2.23-3.09A2.51,2.51,0,0,1,11.3,1a2.52,2.52,0,0,1,2.24,2.75C13.54,5.63,12.66,6.85,11.3,6.85Zm7.35-3.09A2.52,2.52,0,0,1,20.89,1a2.51,2.51,0,0,1,2.23,2.75c0,1.87-.88,3.09-2.23,3.09S18.65,5.63,18.65,3.76Zm9.17,6.31a1.39,1.39,0,0,1-.82.19,1.52,1.52,0,0,1-1.28-.77l-1.06-2V7.08h-.43A4.21,4.21,0,0,0,23.72,7l-.61-.11a3.63,3.63,0,0,0,.76-1.35,3.6,3.6,0,0,1,2.75,1.9l1.27,2.42A.18.18,0,0,1,27.82,10.07Z" style="fill:#4d4d4d"/></svg>