<svg id="f9b6fce8-8c85-41fb-8916-b1548d52f2e1" data-name="Livello 1" xmlns="http://www.w3.org/2000/svg" viewBox="0 0 32 32"><path d="M3.18,31.5H24.49a1,1,0,0,0,1-1v-.48a1.94,1.94,0,0,0-1.94-1.94h-1V18.16a1.93,1.93,0,0,0,1.7-1.92v-.72H25a1,1,0,0,1,1,1v7.63a1.93,1.93,0,0,0,1.93,1.94h1a1.94,1.94,0,0,0,1.94-1.94V10.67H31a1,1,0,0,0,1-1v0l-.24-4.36a1,1,0,0,0-.16-.48L29.66,1.9A1,1,0,0,0,29,1.47h-.1a1,1,0,0,0-.67.27L27.29.67A.5.5,0,0,0,26.6.61a.49.49,0,0,0-.06.68l.95,1.14,0,0a1,1,0,0,0-.2,1.08l.27.6-.65.34a1.53,1.53,0,0,0-.55,1.91l.77,1.83a.77.77,0,0,0,.45.45.67.67,0,0,0,.24,0,.76.76,0,0,0,.33-.08l.43-.24.08,1.35a1,1,0,0,0,1,.91h.24V24.11a1,1,0,0,1-1,1h-1a1,1,0,0,1-1-1V16.48A1.92,1.92,0,0,0,25,14.55h-.73V14.3a2,2,0,0,0-1.7-1.92v-7a2.18,2.18,0,0,0-2.18-2.18H7.3A2.18,2.18,0,0,0,5.12,5.34V28.11h-1a1.94,1.94,0,0,0-1.94,1.94v.48A1,1,0,0,0,3.18,31.5ZM27.89,7.66,27.21,6a.59.59,0,0,1,.1-.67l.6-.32.47,1,.08,1.27Zm1.69,2-.24-3.87L28.12,3.16l.73-.72,1.94,2.9L31,9.7Zm-7,3.67a1,1,0,0,1,.73.93v1.94a1,1,0,0,1-.73.94Zm-16.46-8A1.21,1.21,0,0,1,7.3,4.13H20.37a1.22,1.22,0,0,1,1.22,1.21v7.75H6.09Zm0,8.72h15.5V25.2H6.09Zm0,12.11h15.5v1.94H6.09ZM3.18,30.05a1,1,0,0,1,1-1H23.52a1,1,0,0,1,1,1v.48H3.18Z" style="fill:#4d4d4d"/><path d="M12,8.49A.48.48,0,0,0,11.52,8H10.07a.47.47,0,0,0-.48.48.48.48,0,0,0,.48.49h1.45A.49.49,0,0,0,12,8.49Z" style="fill:#4d4d4d"/><path d="M17.72,8.49A.48.48,0,0,0,17.23,8H15.78a.48.48,0,0,0-.49.48.49.49,0,0,0,.49.49h1.45A.49.49,0,0,0,17.72,8.49Z" style="fill:#4d4d4d"/><path d="M18.24,5.59H9.43A1.69,1.69,0,0,0,7.54,7.1V9.88A1.69,1.69,0,0,0,9.43,11.4h8.81a1.69,1.69,0,0,0,1.89-1.52V7.1A1.69,1.69,0,0,0,18.24,5.59Zm-4.89,4.84H9.43c-.51,0-.92-.25-.92-.55V7.1c0-.3.41-.55.92-.55h3.92Zm5.81-.55c0,.3-.41.55-.92.55H14.32V6.55h3.92c.51,0,.92.25.92.55Z" style="fill:#4d4d4d"/><path d="M15.78,18.26a1.79,1.79,0,0,1-1-2,1,1,0,0,0-1.72-.66c-.62.77-2.64,3.42-2.64,5a3.4,3.4,0,0,0,6.79,0A2.72,2.72,0,0,0,15.78,18.26ZM13.84,23a2.42,2.42,0,0,1-2.43-2.41c0-1.34,2.43-4.37,2.43-4.37-.18,3.13,2.42,2.45,2.42,4.37A2.41,2.41,0,0,1,13.84,23Z" style="fill:#4d4d4d"/><path d="M14.06,21.14a1.8,1.8,0,0,1-.76-.76.48.48,0,0,0-.65-.21.47.47,0,0,0-.21.65A2.78,2.78,0,0,0,13.61,22a.48.48,0,0,0,.65-.2.49.49,0,0,0-.19-.66Z" style="fill:#4d4d4d"/></svg>