<svg id="aaa8d797-0c4a-4d75-870a-4aef890009cc" data-name="Livello 1" xmlns="http://www.w3.org/2000/svg" viewBox="0 0 32 32"><path d="M31.56,6.63A2.63,2.63,0,0,0,28.94,4H3.06A2.63,2.63,0,0,0,.44,6.63V25.37A2.63,2.63,0,0,0,3.06,28H28.94a2.63,2.63,0,0,0,2.62-2.62ZM10.85,26.91H3.06a1.54,1.54,0,0,1-1.54-1.54v-12H4.63l.1.29A2.81,2.81,0,0,0,6,15.26a2.75,2.75,0,0,0,1.92.34l1.2-.24,0,0-2.3,3.43a.53.53,0,0,0,.15.75.53.53,0,0,0,.74-.15l3.18-4.76Zm-5.16-14A1.68,1.68,0,0,1,8.3,11.47l2.11,1.41h0L8.31,14.28a1.68,1.68,0,0,1-2.62-1.4Zm5.16-1-1.94-1.3A2.77,2.77,0,0,0,4.75,12l-.1.29h0l-.32.05H1.52V6.63A1.54,1.54,0,0,1,3.06,5.09h7.79Zm19.63,13.5a1.54,1.54,0,0,1-1.54,1.54h-17V14.65l0,0,3.14,4.72a.54.54,0,0,0,.34.23.5.5,0,0,0,.41-.08.53.53,0,0,0,.15-.75l-2.31-3.46h0l1.15.23a3.07,3.07,0,0,0,.53.05A2.78,2.78,0,0,0,18,13.76l.1-.3h0l.32,0h12ZM12.37,12.88h0l2.09-1.4a1.69,1.69,0,1,1,1.73,2.9,1.66,1.66,0,0,1-1.73-.09Zm18.11-.54H18.14L18,12a2.77,2.77,0,0,0-4.17-1.47l-1.94,1.3V5.09h17a1.54,1.54,0,0,1,1.54,1.54Z" style="fill:#4d4d4d"/><path d="M26.86,18.58H21.8a.54.54,0,1,0,0,1.08h5.06a.54.54,0,1,0,0-1.08Z" style="fill:#4d4d4d"/><path d="M26.86,22.74H21.8a.55.55,0,1,0,0,1.09h5.06a.55.55,0,0,0,0-1.09Z" style="fill:#4d4d4d"/></svg>