<svg id="a58b6188-0aa1-4889-a7df-bf48f1b0087e" data-name="Livello 1" xmlns="http://www.w3.org/2000/svg" viewBox="0 0 32 32"><path d="M29.5,17.24h.93a.52.52,0,0,0,.52-.52.52.52,0,0,0-.52-.52H29.28l-.06-.09-4-6.75V4.25h5.11a.52.52,0,0,0,.52-.52.53.53,0,0,0-.52-.52H25.18V2.29a.52.52,0,0,0-.52-.52.52.52,0,0,0-.52.52v.92H7.86V2.29a.52.52,0,0,0-.52-.52.52.52,0,0,0-.52.52v.92H1.71a.53.53,0,0,0-.52.52.52.52,0,0,0,.52.52H6.82V9.36l0,.05L2.72,16.2H1.57a.52.52,0,0,0-.52.52.52.52,0,0,0,.52.52H2.5v.19a13.51,13.51,0,0,0,27,0Zm-4.32-5.87.19.32,2.71,4.51h-2.9ZM7.86,4.25H24.14V9.36l0,.05L20,16.2H18.89a.52.52,0,0,0-.52.52.52.52,0,0,0,.52.52h.91l0,.22a8.06,8.06,0,0,1-3.66,6.08l-.12.08-.11-.08a8.09,8.09,0,0,1-3.67-6.08l0-.22h.91a.52.52,0,0,0,.52-.52.52.52,0,0,0-.52-.52H12l-.06-.09-4-6.75Zm16.28,7.12V16.2h-2.9l.09-.15Zm-16.28,0,.19.32,2.71,4.51H7.86ZM4,16.05l2.8-4.68V16.2H3.92Zm21.51,8.71a12.47,12.47,0,0,1-22-7.3v-.22h7.63v.19a9.17,9.17,0,0,0,14.08,7l1.14-.74Zm2.91-7.3a8.2,8.2,0,0,1-8.11,7.4,8.06,8.06,0,0,1-3-.55L17,24.18l.29-.22a9.15,9.15,0,0,0,3.5-6.53v-.19h7.63Z" style="fill:#4d4d4d"/></svg>