<svg id="bd4f01b6-6bd5-45f6-8782-cd72ff292ae9" data-name="Livello 1" xmlns="http://www.w3.org/2000/svg" viewBox="0 0 32 32"><path d="M20.1,28.1h0c.75,0,1.43.08,2,.13a5.71,5.71,0,0,0,4.7-1.72,5.64,5.64,0,0,0,1.39-4.37c-.05-.61-.1-1.28-.13-2h0a12.56,12.56,0,0,0,0-8.21h0c0-.8.08-1.48.13-2a5.64,5.64,0,0,0-1.39-4.37,5.61,5.61,0,0,0-4.7-1.72c-.61,0-1.29.1-2,.13h0a12.72,12.72,0,0,0-8.22,0h0c-.73,0-1.4-.08-2-.13a5.6,5.6,0,0,0-4.7,1.72A5.64,5.64,0,0,0,3.77,9.86c0,.59.09,1.27.13,2h0A12.55,12.55,0,0,0,3.21,16a12.71,12.71,0,0,0,.69,4.11h0c0,.75-.08,1.43-.13,2a5.64,5.64,0,0,0,1.39,4.37,5.49,5.49,0,0,0,4.12,1.75,5.49,5.49,0,0,0,.58,0c.6-.05,1.28-.1,2-.13h0a12.66,12.66,0,0,0,8.2,0ZM26.22,26a4.73,4.73,0,0,1-3.51,1.47,4,4,0,0,1-.49,0H22.1l-.24,0,.15-.08a10.64,10.64,0,0,0,1.38-.87,2.83,2.83,0,0,0,.28-.2,12.06,12.06,0,0,0,1.26-1.06c.24-.24.5-.51.77-.83l.24-.3L26,24c.13-.16.25-.33.37-.49s.25-.35.35-.51a1.76,1.76,0,0,0,.14-.23l.14-.21.28-.49.08-.15,0,.34A4.84,4.84,0,0,1,26.22,26Zm1-5.91a8.73,8.73,0,0,1-.45,1.08l0,.05,0,.07a12.38,12.38,0,0,1-1.42,2.23l-.12.14-.08.09c-.15.18-.31.35-.46.5l0,0-3.76-3.75,0,0,0,0,0,0,.18-.22h0l.21-.27c.06-.09.13-.18.18-.27s.11-.17.16-.25.12-.21.18-.31l.11-.24c.06-.12.11-.24.15-.34l.09-.24.12-.35c0-.07,0-.13,0-.2l0-.13c0-.1.05-.19.07-.28a2.51,2.51,0,0,0,0-.27l0-.16,0-.2c0-.22,0-.43,0-.64a6.94,6.94,0,0,0-.09-1.08v-.05a.06.06,0,0,0,0,0,5.56,5.56,0,0,0-.26-1l0-.05s0,0,0-.06a7.07,7.07,0,0,0-.43-.93l-.07-.11a5.78,5.78,0,0,0-.58-.85s0,0,0,0v0l0,0,0,0L24.83,8l.07.08.33.37.09.11.15.18a12.34,12.34,0,0,1,1.29,2.1s0,.07,0,.1l0,.09c.15.31.28.62.39.92A12.1,12.1,0,0,1,27.94,16,11.94,11.94,0,0,1,27.23,20ZM20,20.19A5.78,5.78,0,1,1,21.78,16,5.78,5.78,0,0,1,20,20.19ZM22.22,4.61a4.77,4.77,0,0,1,4,1.44,4.84,4.84,0,0,1,1.17,3.74c0,.06,0,.12,0,.18l0,.17L27.28,10a10.64,10.64,0,0,0-.87-1.38,2.83,2.83,0,0,0-.2-.28,10.93,10.93,0,0,0-1.06-1.25,10.74,10.74,0,0,0-.83-.78L24,6.06,24,6l-.5-.37L23,5.28l-.24-.15L22.47,5,22,4.72l-.15-.08Zm-11.38.63.05,0c.34-.16.69-.3,1.06-.44a11.87,11.87,0,0,1,8.1,0,11,11,0,0,1,1.05.44l0,0,.09,0a12.38,12.38,0,0,1,2.23,1.42l.15.13.08.07c.17.14.34.3.5.46l0,0,0,0-3.71,3.72,0,0,0,0,0,0-.2-.16,0,0-.27-.21-.26-.18-.27-.17-.29-.16L18.8,10l-.32-.14-.23-.08h0l-.34-.12-.24-.06-.08,0-.29-.07-.29,0h-.16l-.18,0a7,7,0,0,0-1.29,0l-.19,0-.12,0-.31,0-.26.06-.15,0-.2.05-.35.12-.25.09-.33.15-.24.12-.3.17-.27.16-.26.18-.28.22,0,0-.18.15,0,0-.05,0,0,0L7.76,7.38l.06-.06.47-.43a.39.39,0,0,0,.1-.08l.14-.12a12.38,12.38,0,0,1,2.23-1.42Zm-5.06.81a4.69,4.69,0,0,1,3.5-1.46,4.35,4.35,0,0,1,.51,0l.35,0L10,4.72,9.53,5l-.22.14L9,5.28l-.49.34c-.16.11-.32.24-.51.39L8,6.07a3.11,3.11,0,0,0-.28.23,9.39,9.39,0,0,0-.84.78A11.85,11.85,0,0,0,5.79,8.32l-.21.29A11.68,11.68,0,0,0,4.72,10l-.08.14,0-.16c0-.06,0-.12,0-.18A4.84,4.84,0,0,1,5.78,6.05Zm-1,5.89c.12-.31.24-.62.39-.93l0-.09,0-.09a12.34,12.34,0,0,1,1.29-2.1l.15-.18.08-.1.33-.37L7.17,8l3.76,3.76,0,0v0l0,0a6.43,6.43,0,0,0-.58.83l0,0,0,.1a6.4,6.4,0,0,0-.43.92l0,.1h0a5.78,5.78,0,0,0-.26,1v0a.09.09,0,0,1,0,.05A6.94,6.94,0,0,0,9.38,16c0,.21,0,.42,0,.64l0,.2s0,.06,0,.09V17a2.7,2.7,0,0,0,0,.28,2.86,2.86,0,0,0,.07.28l0,.13a1.94,1.94,0,0,0,.05.2l.12.36v0l.08.21a2.84,2.84,0,0,0,.15.34l.11.24.18.31a2.13,2.13,0,0,0,.16.25,2.11,2.11,0,0,0,.18.27c.07.09.14.19.21.27v0l.17.2,0,.05,0,0,0,0,0,0L7.38,24.24l0,0c-.16-.16-.32-.33-.47-.51l-.08-.09-.09-.11a11.39,11.39,0,0,1-1.43-2.25l0-.06,0,0c-.16-.35-.32-.73-.46-1.11a11.91,11.91,0,0,1-.7-4A12.05,12.05,0,0,1,4.77,11.94ZM10,27.38H9.78a4.07,4.07,0,0,1-.5,0A4.71,4.71,0,0,1,5.78,26a4.84,4.84,0,0,1-1.17-3.74l0-.34.09.15c.08.16.18.31.27.46l.13.23a2.13,2.13,0,0,1,.16.25l.34.5L6,24l.07.08.23.28a9.59,9.59,0,0,0,.73.79l0,0,0,0a13.42,13.42,0,0,0,1.26,1.06l.27.2a11.91,11.91,0,0,0,1.39.87l.14.08ZM16,28A12,12,0,0,1,12,27.23c-.32-.11-.64-.25-1-.39l-.06,0-.1,0a12.46,12.46,0,0,1-2.1-1.31l-.17-.13-.11-.09-.37-.32L8,24.83l0,0,3.73-3.72,0,0h0l0,0a7.33,7.33,0,0,0,.84.58l0,0,.09.05a6.52,6.52,0,0,0,.93.43l.08,0,0,0a6.59,6.59,0,0,0,1,.27h.09a6.53,6.53,0,0,0,2.16,0h.09a5.56,5.56,0,0,0,1-.26h0l.08,0a7.72,7.72,0,0,0,.93-.43l.09-.05,0,0a6.25,6.25,0,0,0,.84-.58l0,0h0l0,0,0,0L24,24.83l-.09.08c-.12.11-.25.23-.38.33l-.1.09-.17.13a11.79,11.79,0,0,1-2.1,1.3l-.1,0-.08,0q-.45.21-.93.39A12.06,12.06,0,0,1,16,28Z" style="fill:#4d4d4d"/></svg>