<svg id="e21cd621-cc32-476b-975e-f995e8f81b43" data-name="Livello 1" xmlns="http://www.w3.org/2000/svg" viewBox="0 0 32 32"><path d="M13.51,9v.46a2.39,2.39,0,0,0,2.39,2.39h.2a2.39,2.39,0,0,0,2.39-2.39V9A2.39,2.39,0,0,0,16.1,6.57h-.2A2.39,2.39,0,0,0,13.51,9Zm4,0v.46a1.39,1.39,0,0,1-1.39,1.39h-.2a1.39,1.39,0,0,1-1.39-1.39V9A1.39,1.39,0,0,1,15.9,7.57h.2A1.39,1.39,0,0,1,17.49,9Z" style="fill:#4d4d4d"/><path d="M26.54,8.69a.5.5,0,0,0,.26.08.52.52,0,0,0,.43-.24.5.5,0,0,0-.17-.69L16.26,1.19a.49.49,0,0,0-.52,0L13.21,2.75V.5a.5.5,0,0,0-.5-.5H9.63a.5.5,0,0,0-.5.5V5.26L4.94,7.84a.49.49,0,0,0-.17.68.51.51,0,0,0,.69.17L7.68,7.32v8h-.2A2.5,2.5,0,0,0,5,17.82v1.23a2.5,2.5,0,0,0,2.5,2.5h.28v10a.5.5,0,0,0,.5.5.5.5,0,0,0,.5-.5V29.86L16,27.23l7.24,2.63V31.5a.5.5,0,0,0,.5.5.5.5,0,0,0,.5-.5V21.55h.28a2.5,2.5,0,0,0,2.5-2.5V17.82a2.5,2.5,0,0,0-2.5-2.5h-.2v-8ZM10.13,1h2.08V3.33L10.13,4.61ZM6,19.05V17.82a1.5,1.5,0,0,1,1.5-1.5h2.88v4.23H7.48A1.5,1.5,0,0,1,6,19.05Zm9.52-2.73v4.23H11.36V16.32Zm5.14,0v4.23H16.5V16.32ZM8.76,28.79V24.61l5.77,2.09Zm8.71-2.09,5.77-2.09v4.18Zm5.77-5.15v2L16,26.17,8.76,23.54v-2H23.24ZM26,17.82v1.23a1.5,1.5,0,0,1-1.5,1.5H21.64V16.32h2.88A1.5,1.5,0,0,1,26,17.82Zm-2.7-2.5H8.68V6.71L16,2.2l7.32,4.51Z" style="fill:#4d4d4d"/></svg>