<svg id="b1421056-ac81-4cab-980d-f3168635962c" data-name="Livello 1" xmlns="http://www.w3.org/2000/svg" viewBox="0 0 32 32"><path d="M17.05,29.43h.29a13.43,13.43,0,0,0-.27-26.86H16a.58.58,0,0,0-.41.17.59.59,0,0,0-.16.4v4L1.77,15.51a.87.87,0,0,0-.17.16.85.85,0,0,0-.09.22.88.88,0,0,0,0,.23.62.62,0,0,0,.1.22l1.84,2.55a3.8,3.8,0,0,0,1.64,1.3,3.84,3.84,0,0,0,2.07.22,15.18,15.18,0,0,1,8.53.87l.56.25-4.1,5.74-.38-.18a12.79,12.79,0,0,1-2.89-1.93A.54.54,0,0,0,8.5,25h0a.63.63,0,0,0-.4.19.58.58,0,0,0,0,.81A13.38,13.38,0,0,0,17.05,29.43Zm.32-7.51h.23a7,7,0,0,0,6.47-7,.57.57,0,1,0-1.14,0,5.86,5.86,0,0,1-5.56,5.85h-.14l-.13-.08A15.77,15.77,0,0,0,7,19.29a2.66,2.66,0,0,1-1.45-.16,2.71,2.71,0,0,1-1.14-.9L2.89,16.17,16.3,7.92a.8.8,0,0,0,.2-.21.55.55,0,0,0,.07-.28V3.71h.5a12.31,12.31,0,0,1,11.4,7.71,12.29,12.29,0,0,1,.89,4.75h0a12.33,12.33,0,0,1-12,12.1h-.25a12.22,12.22,0,0,1-3.13-.41l-.7-.18Z" style="fill:#4d4d4d"/><path d="M17.32,11.47a1.11,1.11,0,0,0-.78-.33,1.12,1.12,0,0,0-1,.69,1.16,1.16,0,0,0-.06.64,1.1,1.1,0,0,0,.3.56,1.14,1.14,0,0,0,.57.31,1.09,1.09,0,0,0,.64-.07,1.06,1.06,0,0,0,.68-1A1.12,1.12,0,0,0,17.32,11.47Z" style="fill:#4d4d4d"/></svg>