<svg width="22" height="23" viewBox="0 0 22 23" fill="none" xmlns="http://www.w3.org/2000/svg">
<path opacity="0.85" d="M17.2153 0H4.28621C2.0698 0 0.222778 1.94963 0.222778 4.28918V8.83832V17.9366C0.222778 20.2761 2.0698 22.2258 4.28621 22.2258H17.2153C19.4318 22.2258 21.2788 20.2761 21.2788 17.9366V8.83832V4.28918C21.2788 1.94963 19.4318 0 17.2153 0ZM18.3235 2.5995H18.8161V3.11941V6.36879H15.2452V2.5995H18.3235ZM7.73398 8.83832C8.34965 7.79851 9.45786 7.14864 10.6892 7.14864C11.9206 7.14864 13.0288 7.79851 13.6444 8.83832C14.137 9.48819 14.3832 10.268 14.3832 11.1779C14.3832 13.3875 12.7825 15.0771 10.6892 15.0771C8.59592 15.0771 6.99517 13.3875 6.99517 11.1779C6.99517 10.268 7.24144 9.48819 7.73398 8.83832ZM19.1855 17.9366C19.1855 19.1064 18.3235 20.0162 17.2153 20.0162H4.28621C3.178 20.0162 2.31606 19.1064 2.31606 17.9366V8.83832H5.39442C5.14816 9.48819 5.02502 10.268 5.02502 11.0479C5.02502 14.4273 7.61085 17.1567 10.8123 17.1567C14.0138 17.1567 16.5997 14.4273 16.5997 11.0479C16.5997 10.268 16.4765 9.48819 16.2303 8.70834H19.3086V17.9366H19.1855Z" fill="white"/>
</svg>
