<svg id="ee54dbff-9490-4131-a638-8fa77a7f0970" data-name="Livello 1" xmlns="http://www.w3.org/2000/svg" viewBox="0 0 32 32"><path d="M16.35,17.79v4.87c0,5.71,6.42,8.51,6.7,8.63a.56.56,0,0,0,.44,0c.27-.12,6.7-2.94,6.7-8.63V17.79a.57.57,0,0,0-.38-.53L23.45,15.1l-.18,0a.52.52,0,0,0-.18,0l-6.36,2.16A.56.56,0,0,0,16.35,17.79Zm1.12.41h0l5.76-2,.11,0,5.68,1.94v4.46c0,4.23-4.32,6.74-5.64,7.41l-.15.08-.16-.08c-1.32-.67-5.64-3.18-5.64-7.41Z" style="fill:#4d4d4d"/><path d="M20.14,23.3l2.43,2.42a.55.55,0,0,0,.39.16h0a.57.57,0,0,0,.43-.22l3.64-4.84a.58.58,0,0,0-.11-.79.58.58,0,0,0-.42-.11.55.55,0,0,0-.37.22L22.9,24.46l-2-2a.56.56,0,0,0-.8,0,.58.58,0,0,0,0,.8Z" style="fill:#4d4d4d"/><path d="M21.71,5.94a3,3,0,0,0-3-3H4.8a3,3,0,0,0-3,3V24.71a3,3,0,0,0,3,3h9.49a.56.56,0,0,0,.56-.56.57.57,0,0,0-.56-.57H4.8a1.86,1.86,0,0,1-1.86-1.86V5.94A1.86,1.86,0,0,1,4.8,4.08H18.73a1.87,1.87,0,0,1,1.86,1.86v6.58a.56.56,0,0,0,1.12,0Z" style="fill:#4d4d4d"/><path d="M17.51,12.65H6a.56.56,0,0,0,0,1.12h11.5a.56.56,0,1,0,0-1.12Z" style="fill:#4d4d4d"/><path d="M12.67,17.49H6a.56.56,0,0,0-.56.56.57.57,0,0,0,.56.57h6.66a.57.57,0,0,0,.56-.57A.56.56,0,0,0,12.67,17.49Z" style="fill:#4d4d4d"/><path d="M11.46,7.8H6A.57.57,0,0,0,6,8.93h5.45a.57.57,0,0,0,0-1.13Z" style="fill:#4d4d4d"/></svg>