<svg id="b192fd84-a9bb-40bc-9d97-9fd0674247af" data-name="Livello 1" xmlns="http://www.w3.org/2000/svg" viewBox="0 0 32 32"><path d="M20.55,19a.94.94,0,1,0,.93.94A.94.94,0,0,0,20.55,19Z" style="fill:#4d4d4d"/><path d="M10.32,12.68a1.62,1.62,0,1,0,1.61,1.61A1.62,1.62,0,0,0,10.32,12.68Zm0,2.27a.66.66,0,1,1,.66-.66A.66.66,0,0,1,10.32,15Z" style="fill:#4d4d4d"/><path d="M25.09,28.41h2.27A1.62,1.62,0,0,0,29,26.79V21.11a.39.39,0,0,0-.07-.23l0-.05,0,0a.4.4,0,0,0,.07-.24V14.29a.48.48,0,0,0-.36-.46l-1.92-.48V12.5h1.8A.48.48,0,0,0,29,12V9.75a.49.49,0,0,0-.48-.48H26.38V9.19c-.55-3.82-1.22-4.83-1.68-5-1.09-.42-7.93-.58-8.71-.6-1.26,0-7.63.2-8.67.6-.46.17-1.13,1.18-1.68,5v.08H3.5A.49.49,0,0,0,3,9.75V12a.48.48,0,0,0,.48.48H5.29v.85l-.06,0-1.85.46a.48.48,0,0,0-.36.46v6.25a.4.4,0,0,0,.07.24l0,0,0,0a.44.44,0,0,0-.07.24v5.68a1.62,1.62,0,0,0,1.62,1.62H6.91a1.61,1.61,0,0,0,1.61-1.62v-5.2h.29v.07l.47,1.84a.46.46,0,0,0,.46.36h12.5a.49.49,0,0,0,.47-.36l.47-1.91h.29v5.2A1.61,1.61,0,0,0,25.09,28.41ZM28,26.79a.65.65,0,0,1-.66.66H25.09a.66.66,0,0,1-.66-.66v-5.2H26.8l.15,0L28,21.21Zm0-16.56v1.31H26.66v-.08c0-.37-.08-.75-.13-1.13v-.1Zm0,4.44v2.56H25.07l0-.11.42-2.91h.65ZM6.45,10.27c.23-1.73.73-4.76,1.17-5.17h0A64.56,64.56,0,0,1,16,4.55a74.56,74.56,0,0,1,8.32.5l0,0c.45.4.94,3,1.23,5.2v.12l-.12,0c-1.67-.26-7.29-1.1-9.44-1.1s-7.77.84-9.44,1.1l-.12,0Zm-.14,1.17v-.07h.1c.07,0,7.22-1.13,9.58-1.13s9.51,1.12,9.58,1.13h.1v.07l.06.57v1.24h-.66a.47.47,0,0,0-.47.41l-.51,3.57H7.89v-.08l-.5-3.49a.47.47,0,0,0-.47-.41H6.25V12.08ZM4,11.54V10.23H5.49v.1c-.05.36-.09.74-.13,1.13v.08Zm0,3.13.07,0,1.77-.44H6.5l.43,3H4ZM7.57,26.79a.66.66,0,0,1-.66.66H4.64A.65.65,0,0,1,4,26.79V21.21l1.07.36.15,0H7.57Zm15.25-6.16a.49.49,0,0,0-.47.37l-.47,1.91H10.12v-.07L9.65,21a.49.49,0,0,0-.47-.37H5.27L4,20.2v-2H28v2l-.06,0-1.26.41Z" style="fill:#4d4d4d"/><path d="M21.68,12.68a1.62,1.62,0,1,0,1.62,1.61A1.62,1.62,0,0,0,21.68,12.68Zm0,2.27a.66.66,0,1,1,.66-.66A.66.66,0,0,1,21.68,15Z" style="fill:#4d4d4d"/><path d="M11.45,19a.94.94,0,1,0,.94.94A.94.94,0,0,0,11.45,19Z" style="fill:#4d4d4d"/><path d="M16,13.82a.48.48,0,0,0-.48.47V16a.48.48,0,0,0,1,0V14.29A.48.48,0,0,0,16,13.82Z" style="fill:#4d4d4d"/><path d="M13.73,13.82a.47.47,0,0,0-.48.47V16a.48.48,0,0,0,.48.48.49.49,0,0,0,.48-.48V14.29A.48.48,0,0,0,13.73,13.82Z" style="fill:#4d4d4d"/><path d="M18.27,13.82a.48.48,0,0,0-.48.47V16a.49.49,0,0,0,.48.48.48.48,0,0,0,.48-.48V14.29A.47.47,0,0,0,18.27,13.82Z" style="fill:#4d4d4d"/></svg>