<svg id="f7887d63-1ae2-4509-b17e-5af3333ba503" data-name="Livello 1" xmlns="http://www.w3.org/2000/svg" viewBox="0 0 32 32"><path d="M12.21,17.19a.59.59,0,0,0,.09-.45l-.1-.48c-.36-1.78-1.58-7.89-1.62-8.11A.61.61,0,0,0,10,7.67H8.27a.6.6,0,0,0-.59.48L6,16.74a.61.61,0,0,0,.48.71.61.61,0,0,0,.7-.47l.59-3h2.8l.59,3a.6.6,0,0,0,.71.47A.59.59,0,0,0,12.21,17.19ZM8,12.82l.79-4H9.5l.79,4Z" style="fill:#4d4d4d"/><path d="M26.91,15.14a.6.6,0,0,0-.6-.6H23.47V13.42a.6.6,0,1,0-1.2,0v1.12H19.44a.6.6,0,1,0,0,1.2h.39l.06.18a10.43,10.43,0,0,0,2,3.68l.16.19-.19.17c-.5.46-1,.84-1.47,1.22l-.12.09-.34.27a.56.56,0,0,0-.22.4.61.61,0,0,0,.12.45.64.64,0,0,0,.41.22.59.59,0,0,0,.44-.13l.44-.34c.49-.39,1-.82,1.59-1.32l.17-.16.17.16c.56.51,1.13.95,1.59,1.31l.17.14.27.21a.6.6,0,0,0,.44.13.6.6,0,0,0,.54-.66.61.61,0,0,0-.23-.41l-.4-.32-.06,0c-.45-.36-1-.76-1.47-1.22l-.18-.17.15-.19a10.43,10.43,0,0,0,2-3.68l.06-.18h.4A.6.6,0,0,0,26.91,15.14Zm-2.38.94a9.56,9.56,0,0,1-1.46,2.59l-.2.25-.2-.25a9.28,9.28,0,0,1-1.45-2.59l-.13-.34h3.56Z" style="fill:#4d4d4d"/><path d="M28.08,6.81H15.46l-.39-3.18a2.33,2.33,0,0,0-2.3-2H3.92A2.32,2.32,0,0,0,1.6,3.92v19a2.32,2.32,0,0,0,2.32,2.32h7.47l.39,3.18a2.31,2.31,0,0,0,2.3,2h14a2.32,2.32,0,0,0,2.32-2.32V9.13A2.32,2.32,0,0,0,28.08,6.81ZM3.92,24A1.12,1.12,0,0,1,2.8,22.87v-19A1.12,1.12,0,0,1,3.92,2.8h8.85a1.11,1.11,0,0,1,1.1,1L16.39,24Zm8.68,1.2h3.16L13,28.39Zm16.6,2.89a1.12,1.12,0,0,1-1.12,1.12H13.88L17.52,25a.62.62,0,0,0,.15-.49L15.61,8H28.08A1.12,1.12,0,0,1,29.2,9.13Z" style="fill:#4d4d4d"/></svg>