<svg id="aaa856bc-0d9d-441f-9bbb-0cd95fa95e57" data-name="Livello 1" xmlns="http://www.w3.org/2000/svg" viewBox="0 0 32 32"><path d="M31.91,7.21H27.48a3.22,3.22,0,0,0-3.2-2.91H7.72a3.22,3.22,0,0,0-3.2,2.91H.09A.08.08,0,0,0,0,7.29v.79a.08.08,0,0,0,.08.07H4.48V27.23A.48.48,0,0,0,5,27.7H21.52a.47.47,0,0,0,.47-.47V20.14H27a.48.48,0,0,0,.48-.47V8.15h4.39A.08.08,0,0,0,32,8.08V7.29A.08.08,0,0,0,31.91,7.21ZM22,8.15h4.58v11H22ZM5.43,24.57H21.05v2.18H5.43ZM22,5.25a3.17,3.17,0,0,0-.4.49s0,0,0,.07a2.77,2.77,0,0,0-.26.48s0,.08,0,.12a4,4,0,0,0-.15.49,3.39,3.39,0,0,0-.06.64V21.38H5.43V7.54A2.28,2.28,0,0,1,7.72,5.25Zm-.95,18.38H5.43V22.32H21.05ZM26.54,7.21H22a2.28,2.28,0,0,1,4.51,0Z" style="fill:#4d4d4d"/></svg>