<svg id="b5252eae-8a98-42a1-8499-33caaf60f618" data-name="Livello 1" xmlns="http://www.w3.org/2000/svg" viewBox="0 0 32 32"><path d="M12.49,24a1.88,1.88,0,0,1-.33,0,.44.44,0,0,1-.28-.14L8.14,20.12A.5.5,0,0,1,8,19.84c-.33-2.45,3.11-5,5-6a3.38,3.38,0,0,1,2.13-.26c.64.08,1,.11,1.33-.23a1,1,0,0,1,1.4,0l.8.8a1,1,0,0,1,0,1.4c-.34.34-.31.69-.23,1.33A3.31,3.31,0,0,1,18.14,19C17.19,20.81,14.83,24,12.49,24Zm0-1h0c1.71,0,3.8-2.69,4.75-4.46h0A2.41,2.41,0,0,0,17.4,17a2.3,2.3,0,0,1,.52-2.15l-.8-.79A2.27,2.27,0,0,1,15,14.6a2.41,2.41,0,0,0-1.54.14c-1.79,1-4.51,3.08-4.46,4.8Z" style="fill:#4d4d4d"/><path d="M11.26,26.26a.52.52,0,0,1-.35-.14l-5-5a.51.51,0,0,1-.14-.45c.14-.67.8-1,1.56-1.42l.5-.27a.5.5,0,1,1,.49.87l-.52.28a6.18,6.18,0,0,0-.92.56l4.48,4.47a5.93,5.93,0,0,0,.54-.9l.29-.54a.51.51,0,0,1,.69-.19.49.49,0,0,1,.18.68c-.09.18-.19.35-.27.52-.4.75-.75,1.41-1.4,1.55Z" style="fill:#4d4d4d"/><path d="M9.05,27.44a.51.51,0,0,1-.35-.15l-4-4a.49.49,0,0,1-.13-.46c.13-.64.69-1.2,1.88-1.87a.51.51,0,0,1,.68.19.49.49,0,0,1-.19.68,4,4,0,0,0-1.29,1l3.5,3.5a4,4,0,0,0,1-1.3.5.5,0,0,1,.87.5c-.67,1.18-1.22,1.74-1.85,1.88Z" style="fill:#4d4d4d"/><path d="M6.82,28.48H6.77L4.4,28.26A.5.5,0,0,1,4,27.84l-.43-2.57a.33.33,0,0,1,0-.14,2.67,2.67,0,0,1,1.56-1.95.51.51,0,0,1,.68.23.51.51,0,0,1-.23.67,1.75,1.75,0,0,0-1,1.11l.35,2.11,1.92.18a1.82,1.82,0,0,0,1.12-1,.5.5,0,0,1,.67-.22.5.5,0,0,1,.22.67,2.68,2.68,0,0,1-1.93,1.57Z" style="fill:#4d4d4d"/><path d="M4,27.91a.71.71,0,0,1-.2,0C3,27.53.73,26.26.3,24.83a1.46,1.46,0,0,1,.14-1.21c.6-1.34,3.88-.94,4.93-.55A.5.5,0,1,1,5,24c-1.25-.47-3.51-.38-3.67,0a1,1,0,0,1,0,.1.45.45,0,0,0-.05.42c.25.83,1.9,1.95,3,2.4a.5.5,0,0,1,.26.66A.52.52,0,0,1,4,27.91Z" style="fill:#4d4d4d"/><path d="M7.63,31.77a1.47,1.47,0,0,1-.46-.07c-1.43-.43-2.7-2.74-3-3.51a.5.5,0,0,1,.92-.4c.45,1.05,1.57,2.7,2.4,2.95a.42.42,0,0,0,.42,0l.1,0c.41-.16.49-2.42,0-3.67a.5.5,0,1,1,.93-.35c.39,1.05.79,4.32-.55,4.93A1.44,1.44,0,0,1,7.63,31.77Z" style="fill:#4d4d4d"/><path d="M18.73,14.85a.54.54,0,0,1-.37-.16.5.5,0,0,1,0-.71c1.9-1.75,3.3-2.64,4.17-2.64h0a.5.5,0,0,1,0,1h0c-.17,0-1,.13-3.49,2.38A.53.53,0,0,1,18.73,14.85Z" style="fill:#4d4d4d"/><path d="M17.65,13.77a.51.51,0,0,1-.37-.84c2.29-2.49,2.39-3.36,2.38-3.5a.5.5,0,0,1,.49-.52.52.52,0,0,1,.51.49c0,.86-.86,2.27-2.64,4.21A.52.52,0,0,1,17.65,13.77Z" style="fill:#4d4d4d"/><path d="M17,7.38c-1.76,0-3.58-.55-4.06-1.88a2.39,2.39,0,0,1,.18-1.88A7.06,7.06,0,0,1,17,.45c1.95-.64,2.86.18,3.84,1.33a.54.54,0,0,1,.08.53.5.5,0,0,1-.44.3,2.26,2.26,0,0,0-1.71,1,3.09,3.09,0,0,0,1.76-.32.72.72,0,0,1,.76,0,.59.59,0,0,1,.24.46c0,1.24,0,2.64-2.16,3.34A7.74,7.74,0,0,1,17,7.38Zm1.21-6.15a3.17,3.17,0,0,0-.92.17A6.12,6.12,0,0,0,14,4.06a1.39,1.39,0,0,0-.14,1.1c.44,1.21,3.28,1.55,5.15.92a1.73,1.73,0,0,0,1.45-1.7,4.05,4.05,0,0,1-2.55.08A4.43,4.43,0,0,1,15.4,5.61a.5.5,0,0,1-.13-1,3.45,3.45,0,0,0,2.14-1.05l0,0c.15-.15.29-.31.43-.47A4.21,4.21,0,0,1,19.45,1.8,1.72,1.72,0,0,0,18.19,1.23Z" style="fill:#4d4d4d"/><path d="M27.19,19.2a2,2,0,0,1-.69-.12c-2-.72-2.22-4.33-1.53-6.41s2.1-2.13,3.34-2.16a.54.54,0,0,1,.46.24.72.72,0,0,1-.05.76,3.09,3.09,0,0,0-.32,1.76,2.26,2.26,0,0,0,1-1.7.51.51,0,0,1,.3-.45.51.51,0,0,1,.53.08c1.15,1,2,1.89,1.32,3.84a7,7,0,0,1-3.16,3.86A2.72,2.72,0,0,1,27.19,19.2Zm.43-7.66A1.74,1.74,0,0,0,25.92,13c-.63,1.87-.29,4.71.92,5.15a1.39,1.39,0,0,0,1.1-.14,6.12,6.12,0,0,0,2.66-3.27,1.88,1.88,0,0,0-.4-2.18A4.21,4.21,0,0,1,29,14.12c-.16.14-.32.28-.47.43l0,0a3.45,3.45,0,0,0-1.05,2.14.52.52,0,0,1-.56.43.51.51,0,0,1-.44-.56,4.43,4.43,0,0,1,1.15-2.51A4.13,4.13,0,0,1,27.62,11.54Z" style="fill:#4d4d4d"/><path d="M12.86,14.15a.5.5,0,0,1-.42-.22l-.14-.21c-.79-1.15-2.43-3.54.79-8a.49.49,0,0,1,.69-.12.5.5,0,0,1,.12.7c-2.81,3.92-1.54,5.78-.78,6.88l.16.23a.5.5,0,0,1-.15.69A.45.45,0,0,1,12.86,14.15Z" style="fill:#4d4d4d"/><path d="M21.44,20.83a5.27,5.27,0,0,1-3.16-1.13l-.21-.14a.5.5,0,0,1-.14-.69.49.49,0,0,1,.69-.15l.23.16c1.1.76,3,2,6.88-.78a.5.5,0,0,1,.7.12.49.49,0,0,1-.12.69A8.5,8.5,0,0,1,21.44,20.83Z" style="fill:#4d4d4d"/><path d="M20.55,23a6,6,0,0,1-4.25-2.09.5.5,0,0,1,.07-.7.49.49,0,0,1,.7.06A5.17,5.17,0,0,0,20.65,22a.5.5,0,0,1,0,1Z" style="fill:#4d4d4d"/><path d="M18.54,24.91l-.15,0a7.77,7.77,0,0,1-3.3-2.56.5.5,0,0,1,.1-.7.51.51,0,0,1,.7.1,6.81,6.81,0,0,0,2.79,2.2.5.5,0,0,1,.34.62A.51.51,0,0,1,18.54,24.91Z" style="fill:#4d4d4d"/><path d="M11.43,15.81a.46.46,0,0,1-.32-.11A6,6,0,0,1,9,11.32a.49.49,0,0,1,.5-.48h0a.5.5,0,0,1,.49.51,5.09,5.09,0,0,0,1.72,3.58.5.5,0,0,1-.32.88Z" style="fill:#4d4d4d"/><path d="M10,17a.47.47,0,0,1-.3-.1,7.77,7.77,0,0,1-2.56-3.3A.49.49,0,0,1,7.45,13a.48.48,0,0,1,.62.33,6.81,6.81,0,0,0,2.2,2.79.5.5,0,0,1-.3.9Z" style="fill:#4d4d4d"/></svg>