<svg id="abd68ca8-48e5-49b9-8d76-7502f12585fd" data-name="Livello 1" xmlns="http://www.w3.org/2000/svg" viewBox="0 0 32 32"><path d="M29.21,17.93l-11.1,2.7a3.42,3.42,0,0,0,.24-1.24,3.51,3.51,0,1,0-7,0,3.47,3.47,0,0,0,.88,2.29l-2.06,1.48-.1,0a3.44,3.44,0,0,0,.87-2.29A3.5,3.5,0,1,0,5,23.34l-.23.1a4.54,4.54,0,0,0-2.69,3.73L1.5,31.45a.48.48,0,0,0,.42.54H2a.5.5,0,0,0,.49-.42L3,27.29v0a3.58,3.58,0,0,1,2.11-2.94L5.93,24a3.42,3.42,0,0,0,1.5.36,3.47,3.47,0,0,0,1.8-.52.42.42,0,0,0,.22.11,1.09,1.09,0,0,1,.9.94v0l1,6.33a.48.48,0,0,0,.48.41h.08a.48.48,0,0,0,.4-.55l-1-6.33a2,2,0,0,0-.39-.93L13,22.33a3.44,3.44,0,0,0,1.88.56,3.5,3.5,0,0,0,2.52-1.08L27.69,19.3c.22.9,0,1.33-.75,1.62L18,23.17a.49.49,0,0,0-.37.5l.41,7.76a.48.48,0,0,0,.48.46h0a.5.5,0,0,0,.46-.52L18.65,24l8.55-2.16.05,0a2.09,2.09,0,0,0,1.43-1.4,2.88,2.88,0,0,0,0-1.36l.8-.2a.48.48,0,0,0,.36-.59A.49.49,0,0,0,29.21,17.93ZM4.9,20.83a2.53,2.53,0,1,1,2.53,2.53A2.53,2.53,0,0,1,4.9,20.83Zm10,1.09a2.53,2.53,0,1,1,2.53-2.53A2.53,2.53,0,0,1,14.85,21.92Z" style="fill:#4d4d4d"/><path d="M.52,9.26a.46.46,0,0,0,.33-.13L9.07,1.36l1.49,4.3-3,1.55a.51.51,0,0,0-.26.33L7,9.23a.49.49,0,0,0,.38.57h.1a.48.48,0,0,0,.48-.38L8.21,8l3.17-1.63a.48.48,0,0,0,.24-.59L10.32,2l7.77,6.53a.5.5,0,0,0,.69-.06.49.49,0,0,0-.06-.69l-1-.86,5.89-4.3,7.13,5.91a.45.45,0,0,0,.31.11.49.49,0,0,0,.31-.86L23.91,1.62a.5.5,0,0,0-.6,0L16.92,6.26,9.6.11l-.06,0L9.47,0l-.1,0H9.29L9.18,0H9.11L9,.1,9,.13H9L.18,8.42a.5.5,0,0,0,0,.69A.51.51,0,0,0,.52,9.26Z" style="fill:#4d4d4d"/><path d="M10.45,11.32a.49.49,0,0,0,0-1H.52a.49.49,0,1,0,0,1Z" style="fill:#4d4d4d"/><path d="M14,13.16a.49.49,0,0,0-.49-.49H7.14a.49.49,0,1,0,0,1h6.4A.49.49,0,0,0,14,13.16Z" style="fill:#4d4d4d"/><path d="M23,13.65a.49.49,0,0,0,0-1H20.57a.49.49,0,0,0,0,1Z" style="fill:#4d4d4d"/><path d="M4.93,13.65a.49.49,0,0,0,0-1h-1a.49.49,0,1,0,0,1Z" style="fill:#4d4d4d"/><path d="M4,15.69h4.3a.49.49,0,0,0,.49-.49.48.48,0,0,0-.49-.48H4a.47.47,0,0,0-.48.48A.48.48,0,0,0,4,15.69Z" style="fill:#4d4d4d"/><path d="M2.32,15.2a.48.48,0,0,0-.49-.48H.8a.48.48,0,0,0-.49.48.49.49,0,0,0,.49.49h1A.49.49,0,0,0,2.32,15.2Z" style="fill:#4d4d4d"/><path d="M16.23,13.65h1a.49.49,0,0,0,0-1h-1a.49.49,0,0,0,0,1Z" style="fill:#4d4d4d"/><path d="M17.07,10.83a.49.49,0,0,0-.49-.49H12.9a.49.49,0,0,0,0,1h3.68A.49.49,0,0,0,17.07,10.83Z" style="fill:#4d4d4d"/><path d="M31.48,10.34H19.91a.49.49,0,0,0,0,1H31.48a.49.49,0,1,0,0-1Z" style="fill:#4d4d4d"/></svg>