<svg id="fcb3a3a3-426d-4e51-a2a7-44510d2cb317" data-name="Livello 1" xmlns="http://www.w3.org/2000/svg" viewBox="0 0 32 32"><path d="M19.12,28.71H8.4c-2.36,0-4.27-2.46-4.27-5.5V8.79c0-3,1.91-5.5,4.27-5.5H19.12c2.36,0,4.28,2.46,4.28,5.5v2.12a.5.5,0,0,1-.5.5.5.5,0,0,1-.5-.5V8.79c0-2.49-1.47-4.5-3.28-4.5H8.4c-1.8,0-3.27,2-3.27,4.5V23.21c0,2.49,1.47,4.5,3.27,4.5H19.12c1.81,0,3.28-2,3.28-4.5v-1.8a.5.5,0,0,1,.5-.5.51.51,0,0,1,.5.5v1.8C23.4,26.25,21.48,28.71,19.12,28.71Z" style="fill:#4d4d4d"/><path d="M31.5,16.5H14a.5.5,0,0,1,0-1H31.5a.5.5,0,0,1,0,1Z" style="fill:#4d4d4d"/><path d="M31.5,16.49a.48.48,0,0,1-.33-.13l-3.66-3.15a.51.51,0,0,1-.05-.71.49.49,0,0,1,.7-.05l3.67,3.16a.5.5,0,0,1-.33.88Z" style="fill:#4d4d4d"/><path d="M27.84,19.67a.52.52,0,0,1-.38-.17.51.51,0,0,1,.05-.71l3.66-3.15a.51.51,0,0,1,.71,0,.49.49,0,0,1-.05.7l-3.67,3.16A.49.49,0,0,1,27.84,19.67Z" style="fill:#4d4d4d"/></svg>