<svg id="bc39719e-aab1-42f4-8b0d-f8f1510edeb9" data-name="Livello 1" xmlns="http://www.w3.org/2000/svg" viewBox="0 0 32 32"><path d="M5,5.88a.46.46,0,0,1-.38-.18l-.88-1-1,1a.5.5,0,0,1-.8-.6L2.65,4,1.38,3.38a.5.5,0,0,1,.32-.94L3,2.75l.16-1.39a.48.48,0,0,1,.5-.45.53.53,0,0,1,.5.46l.11,1.35,1.37-.28a.5.5,0,0,1,.29,1L4.7,3.91l.69,1.22a.51.51,0,0,1-.15.66A.49.49,0,0,1,5,5.88Z" style="fill:#4d4d4d"/><path d="M11.12,5.88a.49.49,0,0,1-.38-.18l-.88-1-.95,1a.49.49,0,0,1-.66.06.5.5,0,0,1-.13-.66L8.82,4,7.54,3.38a.5.5,0,0,1,.32-.94l1.32.31.16-1.39a.47.47,0,0,1,.5-.45.51.51,0,0,1,.49.46l.11,1.35,1.38-.28a.5.5,0,0,1,.29,1l-1.24.52.69,1.22a.5.5,0,0,1-.44.75Z" style="fill:#4d4d4d"/><path d="M17.29,5.88a.49.49,0,0,1-.38-.18l-.88-1-1,1a.5.5,0,0,1-.67.06.5.5,0,0,1-.12-.66L15,4l-1.28-.59A.5.5,0,0,1,14,2.44l1.31.31.16-1.39A.51.51,0,0,1,16,.91h0a.51.51,0,0,1,.49.46l.11,1.35L18,2.44a.49.49,0,0,1,.58.34.5.5,0,0,1-.28.61L17,3.91l.69,1.22a.5.5,0,0,1-.14.66A.52.52,0,0,1,17.29,5.88Z" style="fill:#4d4d4d"/><path d="M23.45,5.88a.46.46,0,0,1-.37-.18l-.88-1-.95,1a.51.51,0,0,1-.67.06.5.5,0,0,1-.13-.66L21.15,4l-1.28-.59a.51.51,0,0,1-.26-.62.5.5,0,0,1,.59-.32l1.31.31.16-1.39a.54.54,0,0,1,.5-.45.51.51,0,0,1,.49.46l.11,1.35,1.38-.28a.5.5,0,0,1,.58.34.51.51,0,0,1-.29.61l-1.24.52.69,1.22a.51.51,0,0,1-.15.66A.52.52,0,0,1,23.45,5.88Z" style="fill:#4d4d4d"/><path d="M29.62,5.88a.49.49,0,0,1-.38-.18l-.88-1-.95,1a.5.5,0,0,1-.67.06.5.5,0,0,1-.12-.66L27.32,4,26,3.38a.5.5,0,0,1,.32-.94l1.32.31.16-1.39a.52.52,0,0,1,.5-.45.51.51,0,0,1,.49.46l.11,1.35,1.38-.28a.49.49,0,0,1,.57.34.49.49,0,0,1-.28.61l-1.25.52.7,1.22a.5.5,0,0,1-.44.75Z" style="fill:#4d4d4d"/><path d="M24.33,31.09a.5.5,0,0,1-.5-.5V9.07A.89.89,0,0,0,23,8.35H9a.87.87,0,0,0-.85.79V30.59a.5.5,0,0,1-.5.5.51.51,0,0,1-.5-.5V9.08A1.89,1.89,0,0,1,9,7.35H23A1.89,1.89,0,0,1,24.82,9V30.59A.51.51,0,0,1,24.33,31.09Z" style="fill:#4d4d4d"/><path d="M3.39,31.06a.5.5,0,0,1-.5-.47L2.12,12.83A2,2,0,0,1,4,10.78H6.86a.51.51,0,0,1,.5.5.5.5,0,0,1-.5.5H4a1,1,0,0,0-.85,1l.77,17.73a.5.5,0,0,1-.48.52Z" style="fill:#4d4d4d"/><path d="M28.61,31.06h0a.5.5,0,0,1-.48-.52l.77-17.76a1,1,0,0,0-.85-1H25.14a.5.5,0,0,1-.5-.5.51.51,0,0,1,.5-.5H28a2,2,0,0,1,1.85,2l-.77,17.78A.5.5,0,0,1,28.61,31.06Z" style="fill:#4d4d4d"/><path d="M21.78,11.78H10.22a.5.5,0,0,1-.5-.5.51.51,0,0,1,.5-.5H21.78a.51.51,0,0,1,.5.5A.5.5,0,0,1,21.78,11.78Z" style="fill:#4d4d4d"/><path d="M21.78,15H10.22a.5.5,0,1,1,0-1H21.78a.5.5,0,0,1,0,1Z" style="fill:#4d4d4d"/><path d="M21.78,18.14H10.22a.51.51,0,0,1-.5-.5.5.5,0,0,1,.5-.5H21.78a.5.5,0,0,1,.5.5A.51.51,0,0,1,21.78,18.14Z" style="fill:#4d4d4d"/><path d="M21.78,21.31H10.22a.5.5,0,0,1-.5-.5.51.51,0,0,1,.5-.5H21.78a.51.51,0,0,1,.5.5A.5.5,0,0,1,21.78,21.31Z" style="fill:#4d4d4d"/><path d="M21.78,24.49H10.22a.5.5,0,0,1-.5-.5.51.51,0,0,1,.5-.5H21.78a.51.51,0,0,1,.5.5A.5.5,0,0,1,21.78,24.49Z" style="fill:#4d4d4d"/><path d="M21.78,27.67H10.22a.5.5,0,1,1,0-1H21.78a.5.5,0,0,1,0,1Z" style="fill:#4d4d4d"/><path d="M30.5,31.09H1.5a.5.5,0,0,1-.5-.5.5.5,0,0,1,.5-.5h29a.5.5,0,0,1,.5.5A.5.5,0,0,1,30.5,31.09Z" style="fill:#4d4d4d"/></svg>