<svg width="16" height="15" viewBox="0 0 16 15" fill="none" xmlns="http://www.w3.org/2000/svg">
<path d="M14.8 13.9024L11.7 10.8024C12.7 9.70243 13.2 8.20243 13.2 6.60243C13.2 3.00243 10.2 0.00242995 6.6 0.00242995C3 -0.0975701 0 2.90243 0 6.50243C0 10.1024 3 13.1024 6.6 13.1024C8.2 13.1024 9.7 12.5024 10.8 11.6024L13.9 14.7024C14 14.8024 14.2 14.9024 14.3 14.9024C14.5 14.9024 14.6 14.8024 14.7 14.7024C15.1 14.5024 15.1 14.1024 14.8 13.9024ZM1.2 6.50243C1.2 3.50243 3.6 1.10243 6.6 1.10243C9.6 1.10243 12 3.50243 12 6.50243C12 9.50243 9.6 11.9024 6.6 11.9024C3.6 11.9024 1.2 9.50243 1.2 6.50243Z" fill="#4D4D4D"/>
</svg>
