<svg id="ed77f811-4e0f-4cb8-8afb-6f9e85ce5306" data-name="Livello 1" xmlns="http://www.w3.org/2000/svg" viewBox="0 0 32 32"><path d="M30.78,4.42a.45.45,0,0,0-.45,0l-7,4.07L16.22,4.42a.43.43,0,0,0-.44,0L8.72,8.49l-7-4.07a.45.45,0,0,0-.45,0A.43.43,0,0,0,1,4.8V23a.43.43,0,0,0,.22.38l7.28,4.2a.45.45,0,0,0,.45,0L16,23.51l7.05,4.07a.46.46,0,0,0,.23.06.46.46,0,0,0,.22-.06l7.28-4.2A.43.43,0,0,0,31,23V4.8A.43.43,0,0,0,30.78,4.42ZM26.1,12.21A22.79,22.79,0,0,0,23.72,14V9.26l6.39-3.68v5.79A4.79,4.79,0,0,0,26.1,12.21Zm3.13,6.94-.36.31c-.4.36-.8.77-1.16,1.13v0a20.58,20.58,0,0,1-1.63,1.52,7.42,7.42,0,0,1-2.35,1v-8A23,23,0,0,1,26.58,13a3.81,3.81,0,0,1,3.53-.65v6.06c-.26.24-.52.46-.74.65Zm-5.51,4.94a8.39,8.39,0,0,0,2.9-1.26,17.29,17.29,0,0,0,1.73-1.61c.37-.37.75-.76,1.12-1.09l.49-.44.11-.09,0,0v3.18l-6.39,3.68ZM22,11.17l-.25-.06L21.43,11l-.55-.1-.21,0-.94-.17-.24,0a2.61,2.61,0,0,0-.56.08h0a1,1,0,0,1-.68,0,1.75,1.75,0,0,1-.45-.36,1.69,1.69,0,0,1,.73-.38l.23-.09h0a3.14,3.14,0,0,1,1.09-.28,2.32,2.32,0,0,1,1.59.78A1.92,1.92,0,0,1,22,11.17Zm.1-1.39a3.27,3.27,0,0,0-2.19-1,3.94,3.94,0,0,0-1.41.33l-.25.09c-.59.21-1.27.53-1.33,1.14s.66,1.08.9,1.22a1.45,1.45,0,0,0,.71.19,2.79,2.79,0,0,0,.61-.09h.05a1.26,1.26,0,0,1,.41,0l.94.17.76.14.17.05h0a2.81,2.81,0,0,0,.68.13.73.73,0,0,0,.3-.06.71.71,0,0,0,.37-.46v2.91c-.27-.05-.49-.07-.68-.09-1.19-.09-1.86.92-2.39,1.72a6.13,6.13,0,0,1-.4.57,1.49,1.49,0,0,0-.56,1.1c-.14,2,3,5.19,4,6.15v2.48l-6.38-3.68V5.58l6.38,3.68V11A2.74,2.74,0,0,0,22.07,9.78Zm-2.38,8.07a.54.54,0,0,1,.24-.46l.08-.08a6.41,6.41,0,0,0,.5-.7c.43-.65.88-1.32,1.5-1.32h.07c.23,0,.48.05.75.1v7.3c-2-2-3.2-3.89-3.14-4.84ZM11,9.28A7.64,7.64,0,0,1,9.62,13l-.45.59V9.26L11.1,8.15A11.22,11.22,0,0,1,11,9.28Zm3,6.33a1.66,1.66,0,0,1,0,.75,5.94,5.94,0,0,1-1.74,3.18l-.13.15a39.69,39.69,0,0,0-3,3.61V20.66l.62-.8C11.65,17.44,13.41,15.67,14,15.61ZM9.91,23.82a37.9,37.9,0,0,1,2.95-3.54l.12-.14a6.76,6.76,0,0,0,2-3.69A1.85,1.85,0,0,0,14.67,15a.82.82,0,0,0-.63-.27c-1.23,0-3.54,2.76-4.87,4.48V15l.05-.05c.37-.46.75-.93,1.12-1.43a8.5,8.5,0,0,0,1.53-4.1A11.45,11.45,0,0,0,12,7.64l3.56-2.06V22.74L9.17,26.42V24.91l.22-.32C9.57,24.31,9.75,24,9.91,23.82ZM6.35,15.08a3.2,3.2,0,0,1-1.59.55l-.27,0a3.49,3.49,0,0,1-2.6-2.2V5.58L8.28,9.26v5.17a4.12,4.12,0,0,0-1.15.25C6.86,14.8,6.6,14.94,6.35,15.08Zm-2,1.42.37,0a4,4,0,0,0,2-.66,7.38,7.38,0,0,1,.68-.35,3.17,3.17,0,0,1,.81-.18V20.1c-1.1.13-2.29.35-2.77,1.25-.39.73-.78,2.82.54,3.7a2.5,2.5,0,0,0,1.4.41,3.34,3.34,0,0,0,.83-.11v1.07L1.89,22.74V15.05A3.75,3.75,0,0,0,4.39,16.5Zm1.9,5.28c.27-.5,1.15-.67,2-.78v3.44a3.07,3.07,0,0,1-.83.13,1.54,1.54,0,0,1-.9-.27C5.73,23.76,6.08,22.18,6.29,21.78Z" style="fill:#4d4d4d"/></svg>