<svg id="f4b81ae4-6ab8-4116-8790-21191766fee5" data-name="Livello 1" xmlns="http://www.w3.org/2000/svg" viewBox="0 0 32 32"><path d="M23,13.26a.51.51,0,0,0,0-.4.52.52,0,0,0-.31-.27h0s-1.11-.37-2.47-.74A18.44,18.44,0,0,0,16,11.11a18.45,18.45,0,0,0-4.24.74c-1.13.31-2.08.62-2.44.73h0a.57.57,0,0,0-.32.27.58.58,0,0,0,0,.41.55.55,0,0,0,.28.3.49.49,0,0,0,.41,0c.11,0,1.14-.38,2.4-.72a20.43,20.43,0,0,1,4-.71,20.12,20.12,0,0,1,4,.71c1.1.3,2,.6,2.38.71h0A.52.52,0,0,0,23,13.26Z" style="fill:#4d4d4d"/><path d="M22.93,15.62h0a.56.56,0,0,0-.37-.15H9.45a.56.56,0,0,0-.38.15.53.53,0,0,0,0,.76.56.56,0,0,0,.37.15H22.55a.52.52,0,0,0,.38-.15.53.53,0,0,0,0-.76Z" style="fill:#4d4d4d"/><path d="M23.08,18.83a.51.51,0,0,0-.23-.38.55.55,0,0,0-.47,0h0c-.35.11-1.28.41-2.38.71a20.12,20.12,0,0,1-4,.71,20.43,20.43,0,0,1-4-.71c-1.11-.3-2-.6-2.38-.71h0a.56.56,0,0,0-.47.06.51.51,0,0,0-.23.34.54.54,0,0,0,.36.6h0c.36.12,1.31.43,2.45.74a18.45,18.45,0,0,0,4.24.74,18.44,18.44,0,0,0,4.25-.74c1.37-.37,2.46-.74,2.47-.74A.51.51,0,0,0,23.08,18.83Z" style="fill:#4d4d4d"/><path d="M25.65,9.66h0l-.09,0c-.47-.27-1.73-1-3.34-1.74A16.53,16.53,0,0,0,16,6,16.53,16.53,0,0,0,9.78,7.89c-1.62.75-2.87,1.47-3.33,1.74h0l-.08,0A6.26,6.26,0,0,0,.2,16a6.26,6.26,0,0,0,6.15,6.34h0l.09,0c.36.21,1.67,1,3.33,1.74A16.53,16.53,0,0,0,16,26a16.53,16.53,0,0,0,6.22-1.87c1.61-.75,2.87-1.47,3.34-1.74h0l.09,0A6.26,6.26,0,0,0,31.8,16,6.26,6.26,0,0,0,25.65,9.66ZM6,21.27l-.23,0A5.19,5.19,0,0,1,1.25,16a5.19,5.19,0,0,1,4.54-5.25l.23,0Zm18.91.24-.1.06c-.94.54-2,1.08-3.06,1.59-.89.41-3.92,1.77-5.78,1.77s-4.88-1.36-5.76-1.77c-1.1-.52-2.13-1.05-3.06-1.59l-.1-.06v-11l.1-.06c.94-.54,2-1.08,3.06-1.59.88-.41,3.91-1.77,5.76-1.77s4.89,1.36,5.78,1.77c1.1.52,2.16,1.07,3.06,1.59l.1.06Zm1.28-.26-.23,0V10.72l.23,0A5.19,5.19,0,0,1,30.75,16,5.19,5.19,0,0,1,26.21,21.25Z" style="fill:#4d4d4d"/></svg>