<svg id="f7c9681f-7ad2-4f45-b724-3304634ba946" data-name="Livello 1" xmlns="http://www.w3.org/2000/svg" viewBox="0 0 32 32"><path d="M11.94,9.33A3.93,3.93,0,1,1,15.87,5.4,3.94,3.94,0,0,1,11.94,9.33Zm0-6.86A2.93,2.93,0,1,0,14.87,5.4,2.94,2.94,0,0,0,11.94,2.47Z" style="fill:#4d4d4d"/><path d="M26.94,26.42a3.93,3.93,0,1,1,3.93-3.93A3.94,3.94,0,0,1,26.94,26.42Zm0-6.86a2.93,2.93,0,1,0,2.93,2.93A2.94,2.94,0,0,0,26.94,19.56Z" style="fill:#4d4d4d"/><path d="M29.67,30.53H23.09a2,2,0,0,1-1.95-1.34l-1.32-3.13L1.5,26.3V28a.5.5,0,0,1-1,0V25.8h0V22.26A1.53,1.53,0,0,1,2,20.76L19.16,19.4a2.59,2.59,0,0,1,2.62,2l2.35,5.52h5.54a1.83,1.83,0,1,1,0,3.65Zm-9.52-5.47a.51.51,0,0,1,.46.3l1.45,3.44a1,1,0,0,0,1,.73h6.58a.83.83,0,1,0,0-1.65H23.8a.51.51,0,0,1-.46-.3l-2.5-5.89a1.62,1.62,0,0,0-1.61-1.29L2.05,21.75a.56.56,0,0,0-.55.51v3l18.64-.23Z" style="fill:#4d4d4d"/><path d="M5.24,21H5.13a.49.49,0,0,1-.38-.59l1.87-9.07A2,2,0,0,1,8.48,9.56H14.4A2.71,2.71,0,0,1,16.65,11L19,17.17a1.83,1.83,0,0,1-3.42,1.29l-1-2.59-1.37,4.26a.5.5,0,1,1-1-.3l1.8-5.63a.5.5,0,0,1,.47-.35.48.48,0,0,1,.48.32l1.49,3.94a.79.79,0,0,0,.43.45.77.77,0,0,0,.63,0,.82.82,0,0,0,.48-1.06l-2.33-6.16a1.78,1.78,0,0,0-1.32-.8H8.48c-.63,0-.83.74-.88,1L5.72,20.6A.48.48,0,0,1,5.24,21Z" style="fill:#4d4d4d"/><path d="M18.74,28.62h0L1,28.47a.5.5,0,0,1,0-1H1l17.74.15a.51.51,0,0,1,.5.51A.5.5,0,0,1,18.74,28.62Z" style="fill:#4d4d4d"/></svg>