<svg id="b0d4624f-6e2f-4516-8651-6d15013967c6" data-name="Livello 1" xmlns="http://www.w3.org/2000/svg" viewBox="0 0 32 32"><path d="M23.52,24.08a2,2,0,1,0,2,2A2,2,0,0,0,23.52,24.08Zm0,3A1.06,1.06,0,1,1,24.58,26,1.06,1.06,0,0,1,23.52,27.09Z" style="fill:#4d4d4d"/><path d="M8.48,24.08a2,2,0,1,0,1.95,2A2,2,0,0,0,8.48,24.08Zm0,3a1.06,1.06,0,1,1,0-2.11,1.06,1.06,0,0,1,0,2.11Z" style="fill:#4d4d4d"/><path d="M26,11H4A3.46,3.46,0,0,0,.5,14.5V26a.46.46,0,0,0,.45.46H4.54v0a4,4,0,0,0,7.85,0v0h7.18v0a4,4,0,0,0,7.85,0v0h3.59A.46.46,0,0,0,31.5,26V19.51a.45.45,0,0,0,0-.16l-2.28-6.07A3.47,3.47,0,0,0,26,11ZM1.4,21H2.51v1.37L1.4,23.44Zm7.08,8.12A3.06,3.06,0,1,1,11.54,26,3.06,3.06,0,0,1,8.48,29.09Zm15,0A3.06,3.06,0,1,1,26.58,26,3.07,3.07,0,0,1,23.52,29.09Zm7.08-6.52H29.49v-1.1H30.6Zm0-2H29a.45.45,0,0,0-.45.45v2a.46.46,0,0,0,.45.46H30.6v2.1H27.46v0a4,4,0,0,0-7.85,0v0H12.41v0a4,4,0,0,0-7.85,0v0H1.4v-1.1h.05a.46.46,0,0,0,.32-.13l1.51-1.51a.46.46,0,0,0,.13-.32v-2A.46.46,0,0,0,3,20.06H1.4V14.5A2.56,2.56,0,0,1,4,11.94H26a2.58,2.58,0,0,1,2.4,1.66l2.25,6Z" style="fill:#4d4d4d"/><path d="M25.79,13H4A1.45,1.45,0,0,0,2.51,14.5v4A.45.45,0,0,0,3,19H28a.45.45,0,0,0,.36-.18.44.44,0,0,0,.07-.4l-1.29-4.3A1.46,1.46,0,0,0,25.79,13Zm-20.27,5H3.41V14.5A.55.55,0,0,1,4,14H5.52Zm5,0H6.42V14h4.11Zm5,0H11.44V14h4.11Zm5.52,0H16.45V14h4.62Zm.9,0V14h3.82a.55.55,0,0,1,.53.39l1.11,3.72Z" style="fill:#4d4d4d"/><rect x="20.56" y="20.06" width="1.91" height="0.9" style="fill:#4d4d4d"/><rect x="14.55" y="20.06" width="1.91" height="0.9" style="fill:#4d4d4d"/><path d="M25,6A2.06,2.06,0,0,1,23,4a.45.45,0,1,0-.9,0A2.06,2.06,0,0,1,20,6a.45.45,0,1,0,0,.9A2.06,2.06,0,0,1,22.07,9,.45.45,0,0,0,23,9,2.06,2.06,0,0,1,25,6.92.45.45,0,1,0,25,6Zm-1.63.49a2.8,2.8,0,0,0-.84.84l0,.06,0-.06a2.89,2.89,0,0,0-.83-.84l-.07,0,.07,0a3,3,0,0,0,.83-.83l0-.07,0,.07a2.89,2.89,0,0,0,.84.83l.06,0Z" style="fill:#4d4d4d"/><path d="M31.05,2.51A2.06,2.06,0,0,1,29,.45a.45.45,0,0,0-.9,0A2.06,2.06,0,0,1,26,2.51a.45.45,0,1,0,0,.9,2.06,2.06,0,0,1,2.06,2.06.45.45,0,0,0,.9,0,2.06,2.06,0,0,1,2.06-2.06.45.45,0,0,0,0-.9ZM29.41,3a3,3,0,0,0-.83.83l0,.07,0-.07A3,3,0,0,0,27.67,3L27.6,3l.07,0a3,3,0,0,0,.83-.83l0-.07,0,.07a3,3,0,0,0,.83.83l.07,0Z" style="fill:#4d4d4d"/><path d="M6,6A2.06,2.06,0,0,1,3.91,4,.45.45,0,0,0,3,4,2.06,2.06,0,0,1,1,6a.45.45,0,0,0,0,.9A2.06,2.06,0,0,1,3,9a.45.45,0,0,0,.9,0A2.06,2.06,0,0,1,6,6.92.45.45,0,0,0,6,6Zm-1.64.49a2.89,2.89,0,0,0-.83.84l0,.06,0-.06a2.89,2.89,0,0,0-.83-.84l-.07,0,.07,0a3,3,0,0,0,.83-.83l0-.07,0,.07a3,3,0,0,0,.83.83l.07,0Z" style="fill:#4d4d4d"/><path d="M12,2.51A2.06,2.06,0,0,1,9.93.45a.45.45,0,1,0-.9,0A2.06,2.06,0,0,1,7,2.51a.45.45,0,0,0,0,.9A2.06,2.06,0,0,1,9,5.47a.45.45,0,1,0,.9,0A2.06,2.06,0,0,1,12,3.41a.45.45,0,0,0,0-.9ZM10.35,3a3,3,0,0,0-.83.83l0,.07,0-.07A3,3,0,0,0,8.61,3L8.54,3l.07,0a3,3,0,0,0,.83-.83l0-.07,0,.07a3,3,0,0,0,.83.83l.07,0Z" style="fill:#4d4d4d"/></svg>