<svg id="a0c53e35-6c5d-46b0-818b-9d26ed4a638d" data-name="Livello 1" xmlns="http://www.w3.org/2000/svg" viewBox="0 0 32 32"><path d="M18.28,10.42H13.53a2.23,2.23,0,1,0,0,4.46h4.75a2.23,2.23,0,0,0,2.23-2.23A2.26,2.26,0,0,0,18.28,10.42Zm0,3.58H13.53a1.31,1.31,0,0,1,0-2.61h4.75a1.31,1.31,0,0,1,1.3,1.31A1.33,1.33,0,0,1,18.28,14Z" style="fill:#4d4d4d"/><path d="M15.91,17.81a3.06,3.06,0,0,0-3.07,3v7a3,3,0,1,0,6.09,0v-7A3,3,0,0,0,15.91,17.81ZM18,27.86a2.12,2.12,0,1,1-4.23,0v-7a2.12,2.12,0,1,1,4.23,0Z" style="fill:#4d4d4d"/><path d="M27.82,3.81H25.54A1.57,1.57,0,0,0,24,5.39v.14L21.21,6c-.93-3-3.3-4.84-5.3-4.84S11.49,3,10.6,6L8,5.58V5.44A1.56,1.56,0,0,0,6.46,3.86H4.18A1.58,1.58,0,0,0,4.18,7H6.46a1.63,1.63,0,0,0,1.21-.56l2.7.42a9.51,9.51,0,0,0-.14,1.63l-2.14.84a2.78,2.78,0,0,0-1.67,3.16L8.6,21.72a.5.5,0,0,0,.47.37h2.32v3.35a.45.45,0,0,0,.47.47.44.44,0,0,0,.46-.47V19.72c0-2,1.82-3,3.54-3s3.58.93,3.58,3v1.86h0v3.81a.45.45,0,0,0,.47.47.44.44,0,0,0,.46-.47V22.09H22.7a.45.45,0,0,0,.46-.37l2.24-9.16a2.74,2.74,0,0,0-1.63-3.17l-2.19-.88a8.6,8.6,0,0,0-.14-1.63l2.89-.42a1.52,1.52,0,0,0,1.21.61h2.28A1.57,1.57,0,0,0,29.4,5.49,1.6,1.6,0,0,0,27.82,3.81ZM6.46,6H4.18a.65.65,0,1,1,0-1.3H6.46a.64.64,0,0,1,.65.65A.6.6,0,0,1,6.46,6Zm9.45-4a4.86,4.86,0,0,1,3.53,2.28L17.07,6.7a1.58,1.58,0,0,1-2.28,0L12.42,4.32A4.55,4.55,0,0,1,15.91,2Zm7.49,8.14a1.77,1.77,0,0,1,1.07,2.1L24.05,14H22.33a.45.45,0,0,0-.47.47.44.44,0,0,0,.47.46h1.53l-.42,1.77h-1.9a.45.45,0,0,0-.47.47.44.44,0,0,0,.47.46h1.67l-.88,3.54h-2v-1.4c0-2.56-2.28-3.95-4.51-3.95S11.39,17,11.39,19.68v1.44h-2l-.88-3.58h1.81a.47.47,0,1,0,0-.94h-2L8,14.84H9.49a.44.44,0,0,0,.46-.47.43.43,0,0,0-.46-.46H7.72L7.3,12.28a1.85,1.85,0,0,1,1.07-2.1l2.47-1a.45.45,0,0,0,.27-.47,7.58,7.58,0,0,1,.75-3.63L14.05,7.3a2.6,2.6,0,0,0,3.62,0l2.19-2.19a7.8,7.8,0,0,1,.74,3.63.53.53,0,0,0,.28.47Zm4.42-4.09H25.54a.65.65,0,1,1,0-1.3h2.28a.64.64,0,0,1,.65.65A.61.61,0,0,1,27.82,6.09Z" style="fill:#4d4d4d"/></svg>