<svg id="af4ce6ca-287e-4eeb-853e-3e51121da639" data-name="Livello 1" xmlns="http://www.w3.org/2000/svg" viewBox="0 0 32 32"><path d="M26.05,4.13H26v-.8A1.83,1.83,0,0,0,24.17,1.5H7.83A1.83,1.83,0,0,0,6,3.33v.8H6a4.34,4.34,0,0,0,.3,8.67,3,3,0,0,0,1.22-.25l.07,0v1.22h0a1.83,1.83,0,0,0,0,3.6h0v8.81H6.4a2.18,2.18,0,0,0-2.18,2.17V30a.52.52,0,0,0,.52.52H27.26a.52.52,0,0,0,.52-.52V28.33a2.18,2.18,0,0,0-2.18-2.17H24.46V17.35h0a1.83,1.83,0,0,0,0-3.6h0V12.52l.07,0a3,3,0,0,0,1.22.25,4.34,4.34,0,0,0,.3-8.67ZM25.6,27.2a1.14,1.14,0,0,1,1.14,1.13v1.13H5.26V28.33A1.14,1.14,0,0,1,6.4,27.2ZM20,19.61a.53.53,0,0,0-.52.52v6H16.52v-6a.53.53,0,0,0-.52-.52.52.52,0,0,0-.52.52v6H12.55v-6a.53.53,0,0,0-.52-.52.52.52,0,0,0-.52.52v6H8.57V17.37H23.43v8.79H20.49v-6A.52.52,0,0,0,20,19.61Zm5-4.07a.79.79,0,0,1-.79.79H7.83a.79.79,0,0,1,0-1.58H24.17A.79.79,0,0,1,25,15.54ZM9,8.34l0-.07h14.1l0,.07a3,3,0,0,0-.34,1.38v0H9.33v0A3,3,0,0,0,9,8.34Zm.14,2.5v0H22.86v0a3.12,3.12,0,0,0,.54.89l0,0v2H8.57v-2l0,0A3.26,3.26,0,0,0,9.13,10.84Zm16.62.93a2,2,0,1,1,0-4.06.76.76,0,1,1,0,1.51.51.51,0,0,0-.51.52.52.52,0,0,0,.51.52,1.8,1.8,0,1,0,0-3.59A3.08,3.08,0,0,0,24,7.22H8a3.08,3.08,0,0,0-1.76-.55,1.8,1.8,0,1,0,0,3.59.52.52,0,0,0,.51-.52.51.51,0,0,0-.51-.52.76.76,0,1,1,0-1.51,2,2,0,0,1,2.05,2,2.1,2.1,0,0,1-.05.43v0a2.06,2.06,0,0,1-2,1.58,3.31,3.31,0,1,1,0-6.61h7.19a.52.52,0,0,0,0-1H7V3.33a.79.79,0,0,1,.79-.79H24.17a.79.79,0,0,1,.79.79v.79h-6.4a.52.52,0,1,0,0,1h7.19a3.31,3.31,0,1,1,0,6.61Z" style="fill:#4d4d4d"/></svg>