<svg id="ac4bc410-adbd-4b57-babe-7bc6f6ff3748" data-name="Livello 1" xmlns="http://www.w3.org/2000/svg" viewBox="0 0 32 32"><path d="M22.25,11.76a.62.62,0,0,0-1,.8l0,0a.63.63,0,0,0,.46.2.61.61,0,0,0,.42-.16A.63.63,0,0,0,22.25,11.76Z" style="fill:#4d4d4d"/><path d="M17.31,24.15l.74,0a10.08,10.08,0,0,0,7.23-2.91c.49-.49,1-1.48.47-3.36a15.17,15.17,0,0,0-2.21-4.43.63.63,0,0,0-.87-.16.62.62,0,0,0-.16.87,14.06,14.06,0,0,1,2,4c.27,1,.21,1.78-.16,2.15-.56.56-2,.4-3.75-.45a21.14,21.14,0,0,1-4.21-2.76,3.08,3.08,0,0,0,.19-3.61l3.25-3.25a2.07,2.07,0,0,0,.91.22A2,2,0,0,0,22.21,7.1,2,2,0,0,0,19,9.44l-3.25,3.25a3,3,0,0,0-1.67-.5,3,3,0,0,0-1.93.68A20.43,20.43,0,0,1,9.4,8.7C8.56,6.91,8.39,5.51,9,5c.84-.84,3.8-.1,7.61,2.93a.63.63,0,0,0,.78-1,18.82,18.82,0,0,0-5.29-3.12c-2.26-.79-3.41-.28-4,.29h0a10.14,10.14,0,0,0-2.88,8A12.94,12.94,0,0,0,9,20.31a17,17,0,0,0,1.28,1.13h0L8.56,27H7.08A4.38,4.38,0,0,0,2.7,31.38a.62.62,0,0,0,.62.62H20.43a.63.63,0,0,0,.63-.62A4.38,4.38,0,0,0,16.68,27h-2V23.68A12.35,12.35,0,0,0,17.31,24.15ZM20.24,8a.76.76,0,0,1,.54-.22.75.75,0,0,1,.54.22.76.76,0,1,1-1.08,0Zm-6.18,5.46a1.83,1.83,0,0,1,1.28.53h0a1.8,1.8,0,0,1,.14,2.39c-.44-.38-.86-.79-1.29-1.21s-.85-.88-1.25-1.32A1.81,1.81,0,0,1,14.06,13.44Zm-2.68,8.75a12.26,12.26,0,0,0,2,1V27H9.87Zm5.3,6.06a3.13,3.13,0,0,1,3.07,2.5H4a3.12,3.12,0,0,1,3.07-2.5ZM9.92,19.43A11.64,11.64,0,0,1,6.44,12a9.3,9.3,0,0,1,1-5,9.53,9.53,0,0,0,.79,2.3,25.72,25.72,0,0,0,5,6.8,25.72,25.72,0,0,0,6.8,5,9.53,9.53,0,0,0,2.3.79C18.64,23.88,13.49,23,9.92,19.43Z" style="fill:#4d4d4d"/><path d="M20.79,3.34a.63.63,0,0,0,0,1.25,3.93,3.93,0,0,1,3.93,3.92.63.63,0,1,0,1.25,0A5.18,5.18,0,0,0,20.79,3.34Z" style="fill:#4d4d4d"/><path d="M20.79,0a.63.63,0,0,0,0,1.25,7.27,7.27,0,0,1,7.26,7.26.63.63,0,1,0,1.25,0A8.52,8.52,0,0,0,20.79,0Z" style="fill:#4d4d4d"/></svg>