<svg id="ea8830b4-5f1f-4295-a323-7b230c88d6cb" data-name="Livello 1" xmlns="http://www.w3.org/2000/svg" viewBox="0 0 32 32"><path d="M29.42,13.22H25.37V4.6A2.58,2.58,0,0,0,22.8,2H5.71A2.58,2.58,0,0,0,3.14,4.6V25.83A4.13,4.13,0,0,0,7.28,30H28.52a.4.4,0,0,0,.15,0A3.41,3.41,0,0,0,32,26.56V15.8A2.59,2.59,0,0,0,29.42,13.22ZM4.14,4.6A1.57,1.57,0,0,1,5.71,3h5.66v9.66a.67.67,0,0,1-.67.67H4.14ZM7.27,29a3.14,3.14,0,0,1-3.13-3.17V14.1H10.7a1.43,1.43,0,0,0,1.42-1.42V3H22.8A1.57,1.57,0,0,1,24.37,4.6V25.85A4.16,4.16,0,0,0,25.82,29ZM31,26.56A2.41,2.41,0,0,1,28.59,29l-.1,0a3.16,3.16,0,0,1-3.12-3.15V14.22h4.05A1.58,1.58,0,0,1,31,15.8Z" style="fill:#4d4d4d"/><path d="M22.34,13.22h-8a.5.5,0,0,0-.5.5.5.5,0,0,0,.5.5h8.05a.5.5,0,0,0,.5-.5A.5.5,0,0,0,22.34,13.22Z" style="fill:#4d4d4d"/><path d="M22.34,10h-8a.5.5,0,0,0-.5.5.5.5,0,0,0,.5.5h8.05a.5.5,0,0,0,.5-.5A.5.5,0,0,0,22.34,10Z" style="fill:#4d4d4d"/><path d="M22.34,6.83h-8a.5.5,0,0,0-.5.5.5.5,0,0,0,.5.5h8.05a.5.5,0,0,0,.5-.5A.5.5,0,0,0,22.34,6.83Z" style="fill:#4d4d4d"/><path d="M22.33,16.42H6.18a.5.5,0,0,0-.5.5.51.51,0,0,0,.5.5H22.33a.51.51,0,0,0,.5-.5A.5.5,0,0,0,22.33,16.42Z" style="fill:#4d4d4d"/><polygon points="8.69 22.57 7.01 19.39 6.41 19.39 6.41 23.7 7.04 23.7 7.04 20.52 8.71 23.76 9.3 23.76 9.3 19.43 8.69 19.43 8.69 22.57" style="fill:#4d4d4d"/><polygon points="11.35 21.75 12.82 21.75 12.82 21.3 11.35 21.3 11.35 19.91 13.07 19.91 13.07 19.44 10.75 19.44 10.75 23.76 13.08 23.76 13.08 23.31 11.35 23.31 11.35 21.75" style="fill:#4d4d4d"/><polygon points="17.19 22.51 16.45 19.43 15.92 19.43 15.18 22.51 14.61 19.43 13.99 19.43 14.87 23.75 15.42 23.75 16.19 20.68 16.94 23.75 17.5 23.75 18.39 19.43 17.75 19.43 17.19 22.51" style="fill:#4d4d4d"/><path d="M20.9,21.33a1.93,1.93,0,0,1-.63-.34.7.7,0,0,1-.19-.47.75.75,0,0,1,.19-.51.57.57,0,0,1,.49-.2.64.64,0,0,1,.53.24.91.91,0,0,1,.21.61h.57a1.18,1.18,0,0,0-.36-.92,1.27,1.27,0,0,0-1-.37,1.38,1.38,0,0,0-.93.33,1.11,1.11,0,0,0-.35.84,1.09,1.09,0,0,0,.32.8,2.37,2.37,0,0,0,.94.5,1.35,1.35,0,0,1,.59.34.74.74,0,0,1,.18.49.66.66,0,0,1-.2.51.69.69,0,0,1-.52.19.8.8,0,0,1-.58-.22A.85.85,0,0,1,20,22.5h-.59a1.16,1.16,0,0,0,.41,1,1.54,1.54,0,0,0,1,.33,1.34,1.34,0,0,0,.94-.31,1,1,0,0,0,.37-.84,1.06,1.06,0,0,0-.31-.81A2.24,2.24,0,0,0,20.9,21.33Z" style="fill:#4d4d4d"/><path d="M5.72,11.64H9.66V6.84A6.23,6.23,0,0,1,5.72,8.93Z" style="fill:#4d4d4d"/></svg>