<svg id="f73b7dca-d87f-4f75-8270-a7d914deb4bd" data-name="Livello 1" xmlns="http://www.w3.org/2000/svg" viewBox="0 0 32 32"><path d="M4.63,15.55a12,12,0,0,0,12,12A11.83,11.83,0,0,0,27.3,20.79a.64.64,0,0,0-.08-.69h0a.63.63,0,0,0-.66-.2A11.63,11.63,0,0,1,12.23,5.57a.63.63,0,0,0-.61-.81.58.58,0,0,0-.28.07A11.84,11.84,0,0,0,4.63,15.55Zm5.89-8.77.17-.12,0,.21a12.64,12.64,0,0,0-.14,1.83A12.92,12.92,0,0,0,23.43,21.61a12.42,12.42,0,0,0,1.83-.14l.21,0-.12.18A10.66,10.66,0,1,1,10.52,6.78Z" style="fill:#4d4d4d"/><path d="M20.61,9.53V9.6l-.35,2.11a.59.59,0,0,0,.23.55.57.57,0,0,0,.58,0l1.83-1,.06,0,1.77,1a.55.55,0,0,0,.59,0,.54.54,0,0,0,.22-.54l-.35-2.18L26.68,8a.56.56,0,0,0-.31-.94l-2.05-.31-.93-2a.59.59,0,0,0-1,0l-.92,2-2,.31A.56.56,0,0,0,19.1,8ZM21.93,7.8a.57.57,0,0,0,.41-.31l.55-1.17.55,1.17a.57.57,0,0,0,.42.31L25.14,8l-.95,1a.6.6,0,0,0-.15.48l.22,1.33-1.1-.61a.57.57,0,0,0-.54,0l-1.1.61.22-1.33A.57.57,0,0,0,21.59,9l-.94-1Z" style="fill:#4d4d4d"/></svg>