<svg id="b30c3442-a9af-430d-92c7-9f53b9cc0c26" data-name="Livello 1" xmlns="http://www.w3.org/2000/svg" viewBox="0 0 32 32"><g id="b5892b95-3302-44c2-85cf-36f0943caa44" data-name="Outline"><path d="M31.6,9.81a2.4,2.4,0,0,0-.29-1l0,0V8.72a2.38,2.38,0,0,0-2-1.21H29l0-.07A2.65,2.65,0,0,0,25.91,4a1.94,1.94,0,0,0-.57.2l-.07,0V4.15a3.29,3.29,0,0,0-5.2-2.44,3.53,3.53,0,0,0-.6.56l0,.06,0-.07a3.7,3.7,0,0,0-4.84-2,3.64,3.64,0,0,0-2,2l0,.07-.05-.06a3.53,3.53,0,0,0-.6-.56,3.28,3.28,0,0,0-4.58.74A3,3,0,0,0,7,2.94a3.07,3.07,0,0,0-.32,1.21v.08l-.07,0A1.94,1.94,0,0,0,6.06,4,2.66,2.66,0,0,0,3,7.45l0,.07h-.3A2.38,2.38,0,0,0,.74,8.71v0h0A2.39,2.39,0,0,0,1.58,12a2.43,2.43,0,0,0,1,.32h.14a2.37,2.37,0,0,0,1.49-.52l0,0h0l6.05,3v0l1.71,4.41H10.64a1.56,1.56,0,0,0,0,3.11h2.72v2.29h0L12,27a1.6,1.6,0,0,0-.11,1.38L12.94,31a1.55,1.55,0,1,0,2.87-1.15l-.78-2v0l.76-1.27.57,1.71a1.57,1.57,0,0,0,1,1l2.73.91a1.54,1.54,0,0,0,1.67-.47,1.55,1.55,0,0,0-.68-2.48h0l-2.21-.74a.49.49,0,0,0-.62.3.47.47,0,0,0,0,.37.49.49,0,0,0,.28.25l2.25.75a.59.59,0,0,1,.37.74.52.52,0,0,1-.11.19.57.57,0,0,1-.63.17l-2.73-.91a.59.59,0,0,1-.37-.37l-.93-2.74A.47.47,0,0,0,16,25h0a.48.48,0,0,0-.46.33.54.54,0,0,1-.05.11l-1.33,2.21a.49.49,0,0,0,0,.44l.87,2.18a.6.6,0,0,1-.31.75h0a.6.6,0,0,1-.76-.33L12.77,28a.6.6,0,0,1,0-.52l1.45-2.4a.42.42,0,0,0,.07-.24V22l.88-1.76h1.53l0,0L17.64,22V25.1a.49.49,0,0,0,1,0V22.38h2.72a1.56,1.56,0,0,0,0-3.11H19.89l0-.07,1.67-4.38h0l6.06-3,0,0a2.38,2.38,0,0,0,1.49.53h.17A2.4,2.4,0,0,0,31.6,9.81ZM26.13,5a1.69,1.69,0,0,1,1.28.22,1.7,1.7,0,0,1,.47,2.43l-1.35,1.9,0,0L24.07,8.29v0l.8-2.2A1.69,1.69,0,0,1,26.13,5ZM19.68,4.4a2.3,2.3,0,0,1,2.68-2.28,2.31,2.31,0,0,1,1.81,3.07L23.14,8h0l-3.42-.44Zm-11.75-1A2.24,2.24,0,0,1,9.27,2.21,2.19,2.19,0,0,1,10,2.07,2.34,2.34,0,0,1,12.3,4.4V7.57h-.05L8.83,8,8.6,7.36,7.81,5.18A2.24,2.24,0,0,1,7.93,3.39Zm-3.65,2v0h0a1.7,1.7,0,0,1,1.19-.48,1.55,1.55,0,0,1,.37,0,1.71,1.71,0,0,1,1.23,1.1l.82,2.24,0,0L5.48,9.54l-.35-.49-1-1.43A1.69,1.69,0,0,1,4.28,5.43Zm.35,4.66L3.79,11a1.37,1.37,0,0,1-.87.41l.06,0H2.74a1.4,1.4,0,0,1-1-.46,1.4,1.4,0,0,1-.2-1.62l-.45-.25,0-.09.44.21a1.4,1.4,0,0,1,1.14-.7h.09A1.38,1.38,0,0,1,4,9.08l.7,1Zm5.13,3.35L5.05,11.08l.54-.55L8.24,9.21l0,0,1.61,4.23ZM9.18,8.93l2.9-.36-1.44,4.26Zm4.37,12.48H10.64a.59.59,0,0,1,0-1.17h3.49ZM16,19.27a1.66,1.66,0,1,1,1.65-1.65A1.65,1.65,0,0,1,16,19.27Zm5.34,1a.59.59,0,0,1,0,1.17H18.42v0l-.57-1.14Zm-2.47-1H18l.06-.08a2.63,2.63,0,1,0-4.19,0l.06.08h-.84v0l-1.9-5v0l1.92-5.76h3.92A.48.48,0,0,0,17.54,8a.49.49,0,0,0-.49-.49H13.26V3.72a2.73,2.73,0,0,1,5.45,0V8a.4.4,0,0,0,0,.15l2,6.1Zm2.47-6.44,0-.14L19.91,8.57l2.9.36,0,.06Zm5.53-1.72L22.1,13.49l0-.12,1.59-4.16.05,0,2.61,1.3.53.54Zm3.44-.26h0a1.44,1.44,0,0,1-1,.52h-.11a1.4,1.4,0,0,1-1-.42l-.87-.88,0,0,.68-1a1.43,1.43,0,0,1,2-.33,1.53,1.53,0,0,1,.4.44h0v0A1.42,1.42,0,0,1,30.3,10.85Z" style="fill:#4d4d4d"/><path d="M9.32,26.8a1.49,1.49,0,0,0,0-1.19,1.54,1.54,0,0,0-.8-.88,1.9,1.9,0,0,0-.36-.12h0v0a2.09,2.09,0,0,0-2.84-.82,2.09,2.09,0,0,0-.82.82v0H4.23a1.56,1.56,0,0,0,0,3.11h0a1.54,1.54,0,0,0,.95-.33l0,0,0,0a2.12,2.12,0,0,0,2,.15h0A1.56,1.56,0,0,0,9.32,26.8ZM7,26.56a1.11,1.11,0,0,1-1.46-.2.46.46,0,0,0-.42-.16.45.45,0,0,0-.37.25.59.59,0,0,1-.79.23.58.58,0,0,1-.24-.79.59.59,0,0,1,.51-.31h0a.63.63,0,0,1,.32.1.49.49,0,0,0,.67-.14.44.44,0,0,0,.06-.16,1.12,1.12,0,0,1,2.14-.11.48.48,0,0,0,.45.32H8a.59.59,0,0,1,0,1.17h0a.56.56,0,0,1-.34-.15A.49.49,0,0,0,7,26.56Z" style="fill:#4d4d4d"/></g></svg>