<svg id="e0dcada0-b210-4d8e-8848-89bc3ed9ee0c" data-name="Livello 1" xmlns="http://www.w3.org/2000/svg" viewBox="0 0 32 32"><g id="ac50f294-0845-4cf3-8813-3aa938e96cb5" data-name="pasta spaghetti"><path d="M5.24,2.94H4.31a.5.5,0,0,1-.5-.5.5.5,0,0,1,.5-.5h.93a.5.5,0,0,1,.5.5A.5.5,0,0,1,5.24,2.94Z" style="fill:#4d4d4d"/><path d="M10.39,4.81H9a.51.51,0,0,1-.5-.5.5.5,0,0,1,.5-.5h1.41a.5.5,0,0,1,.5.5A.51.51,0,0,1,10.39,4.81Z" style="fill:#4d4d4d"/><path d="M5.24,4.81H4.31a.5.5,0,0,1-.5-.5.5.5,0,0,1,.5-.5h.93a.5.5,0,0,1,.5.5A.5.5,0,0,1,5.24,4.81Z" style="fill:#4d4d4d"/><path d="M10.39,6.68H9a.51.51,0,0,1-.5-.5.5.5,0,0,1,.5-.5h1.41a.5.5,0,0,1,.5.5A.51.51,0,0,1,10.39,6.68Z" style="fill:#4d4d4d"/><path d="M5.24,6.68H4.31a.5.5,0,0,1-.5-.5.5.5,0,0,1,.5-.5h.93a.5.5,0,0,1,.5.5A.5.5,0,0,1,5.24,6.68Z" style="fill:#4d4d4d"/><path d="M5.24,20.71a.5.5,0,0,1-.5-.5V1.5a.5.5,0,0,1,.5-.5.5.5,0,0,1,.5.5V20.21A.5.5,0,0,1,5.24,20.71Z" style="fill:#4d4d4d"/><path d="M7.11,20.71a.5.5,0,0,1-.5-.5V1.5a.5.5,0,0,1,.5-.5.5.5,0,0,1,.5.5V20.21A.5.5,0,0,1,7.11,20.71Z" style="fill:#4d4d4d"/><path d="M10.85,8.55a.51.51,0,0,1-.5-.5.5.5,0,0,1,.5-.5c.7,0,1.84-.77,1.84-1.37v-.5H26.76a.44.44,0,0,0,.43-.44.43.43,0,0,0-.43-.43H12.69v-.5c0-.61-1.14-1.37-1.84-1.37H9a.51.51,0,0,1-.5-.5.5.5,0,0,1,.5-.5h1.87a3.23,3.23,0,0,1,2.76,1.87H26.76a1.44,1.44,0,0,1,0,2.87H13.61A3.23,3.23,0,0,1,10.85,8.55Z" style="fill:#4d4d4d"/><path d="M5.24,8.55H4.31a.5.5,0,0,1-.5-.5.5.5,0,0,1,.5-.5h.93a.5.5,0,0,1,.5.5A.5.5,0,0,1,5.24,8.55Z" style="fill:#4d4d4d"/><path d="M9.45,14.16a.5.5,0,0,1-.35-.85,1.68,1.68,0,0,0,.32-1.05A2.91,2.91,0,0,0,9,11.08a3.77,3.77,0,0,1-.52-1.63V4.31a.5.5,0,0,1,.5-.5.5.5,0,0,1,.5.5V9.45a2.91,2.91,0,0,0,.42,1.18,3.77,3.77,0,0,1,.52,1.63A2.44,2.44,0,0,1,9.8,14,.47.47,0,0,1,9.45,14.16Z" style="fill:#4d4d4d"/><path d="M23.52,31h-15V29.45C4.39,28,1,24.66,1,22.08v-.5H31v.5c0,2.58-3.39,5.89-7.48,7.37Zm-14-1h13V28.74l.34-.12c3.87-1.29,6.66-4.07,7.08-6H2.06c.42,2,3.21,4.75,7.08,6l.34.12Z" style="fill:#4d4d4d"/><path d="M27.23,24.45H2.44a.5.5,0,0,1-.5-.5.5.5,0,0,1,.5-.5H27.23a.51.51,0,0,1,.5.5A.5.5,0,0,1,27.23,24.45Z" style="fill:#4d4d4d"/><path d="M20.21,20.71a.5.5,0,0,1-.5-.5,5.12,5.12,0,0,0-10.23,0,.5.5,0,0,1-.5.5.5.5,0,0,1-.5-.5,6.12,6.12,0,0,1,12.23,0A.5.5,0,0,1,20.21,20.71Z" style="fill:#4d4d4d"/><path d="M18.34,20.71a.5.5,0,0,1-.5-.5,3.25,3.25,0,0,0-6.49,0,.5.5,0,0,1-.5.5.5.5,0,0,1-.5-.5,4.25,4.25,0,0,1,8.49,0A.5.5,0,0,1,18.34,20.71Z" style="fill:#4d4d4d"/><path d="M16.47,20.71a.5.5,0,0,1-.5-.5,1.37,1.37,0,1,0-2.74,0,.5.5,0,0,1-.5.5.5.5,0,0,1-.5-.5,2.37,2.37,0,1,1,4.74,0A.5.5,0,0,1,16.47,20.71Z" style="fill:#4d4d4d"/><path d="M26.76,20.71a.5.5,0,0,1-.5-.5,4.17,4.17,0,0,0-5.45-4,.51.51,0,0,1-.63-.33.49.49,0,0,1,.33-.62A4.87,4.87,0,0,1,22.08,15a5.18,5.18,0,0,1,5.18,5.18A.5.5,0,0,1,26.76,20.71Z" style="fill:#4d4d4d"/><path d="M24.89,20.71a.5.5,0,0,1-.5-.5,2.32,2.32,0,0,0-2.31-2.31,2.43,2.43,0,0,0-.38,0,.5.5,0,1,1-.15-1,3.07,3.07,0,0,1,.53-.05,3.32,3.32,0,0,1,3.31,3.31A.5.5,0,0,1,24.89,20.71Z" style="fill:#4d4d4d"/><path d="M23,20.71a.5.5,0,0,1-.5-.5.44.44,0,0,0-.44-.44.5.5,0,0,1-.5-.5.5.5,0,0,1,.5-.5,1.45,1.45,0,0,1,1.44,1.44A.5.5,0,0,1,23,20.71Z" style="fill:#4d4d4d"/></g></svg>