<svg width="41" height="22" viewBox="0 0 41 22" fill="none" xmlns="http://www.w3.org/2000/svg">
<g opacity="0.85">
<path d="M27.9971 13.3538C28.4656 13.5533 28.9327 13.7587 29.4059 13.9433C29.633 14.0332 29.7185 14.1821 29.7659 14.4174C29.872 14.9551 29.7866 15.4707 29.6597 15.9887C29.5652 16.3822 29.3898 16.5229 28.9906 16.5875C28.8728 16.607 28.7541 16.6762 28.6572 16.7513C28.5696 16.8193 28.49 16.8978 28.4092 16.9752C29.3736 17.3858 30.3716 17.8427 31.3672 18.3537C31.8447 18.5995 32.2658 18.9063 32.62 19.2709L32.9466 19.6089V21.2276C35.5516 21.2276 38.1565 21.2276 40.7605 21.2276C40.5401 19.7508 39.6402 18.8754 38.2801 18.3723C37.3939 18.0457 36.5252 17.6673 35.6635 17.2774C35.4178 17.1631 35.2354 16.9185 35.0152 16.7501C34.9183 16.6762 34.7983 16.6059 34.6842 16.5852C34.2828 16.5218 34.1075 16.3798 34.0127 15.9852C33.8894 15.4684 33.7981 14.9516 33.9066 14.4151C33.9539 14.1798 34.0392 14.0309 34.2666 13.941C34.7418 13.7575 35.2057 13.551 35.6753 13.3515C36.0272 13.2026 36.0467 13.0816 35.921 12.7181C35.5173 11.5771 35.2184 10.4142 35.1216 9.19356C35.0581 8.42289 35.0788 7.635 34.8944 6.87805H34.8656C34.8493 6.80768 34.8414 6.7373 34.8228 6.66808C34.4825 5.33322 33.052 4.60759 31.8486 4.53026C31.837 4.5291 31.8279 4.52678 31.8198 4.52678C31.7276 4.52098 31.6398 4.5349 31.5499 4.5407C31.0435 4.61107 30.628 4.93184 30.1458 5.07259C29.5194 5.25724 29.134 5.83399 28.8999 6.45463C28.5689 7.33725 28.63 8.27865 28.5549 9.19221C28.4581 10.414 28.158 11.5746 27.7555 12.7156C27.6244 13.0814 27.6476 13.2061 27.9971 13.3538Z" fill="white"/>
<path d="M8.72266 19.6232L9.08944 19.2782C9.42277 18.9656 9.82087 18.6887 10.3435 18.4107L10.7103 18.2123C11.2306 17.932 11.7485 17.6516 12.2839 17.3966C12.5654 17.2628 12.8585 17.1439 13.1468 17.0217C13.0857 16.8533 13.0256 16.6849 12.9738 16.5142C12.9057 16.2972 12.863 16.0791 12.5815 16.0203C12.5111 16.0053 12.4247 15.8854 12.4131 15.8034C12.3566 15.3846 12.3139 14.9624 12.2851 14.5389C12.2781 14.4513 12.3243 14.3336 12.3866 14.2667C12.7545 13.8549 12.96 13.3773 13.043 12.8292C13.0857 12.5569 13.2402 12.2996 13.3187 12.032C13.4248 11.6697 13.5113 11.3006 13.5944 10.9326C13.6244 10.8 13.6072 10.6569 13.6278 10.5208C13.6578 10.3224 13.652 10.1689 13.4144 10.0927C13.3475 10.0709 13.2943 9.91507 13.2932 9.8182C13.2804 9.22985 13.2885 8.6415 13.2862 8.05314C13.2816 7.69314 13.2862 7.32868 13.2609 6.96983C13.2089 6.27881 12.804 5.79312 12.2965 5.37434C11.5534 4.76414 10.6905 4.18719 9.75494 4.26221C9.73193 4.26337 9.71337 4.26917 9.69152 4.27265C9.66967 4.26917 9.65227 4.26337 9.6281 4.26221C8.69134 4.18719 7.82728 4.76414 7.08773 5.37434C6.5802 5.79312 6.17514 6.27881 6.12332 6.96983C6.098 7.32984 6.09916 7.69314 6.098 8.05314C6.09567 8.64266 6.10264 9.23101 6.09103 9.8182C6.08872 9.91507 6.03458 10.0721 5.96884 10.0927C5.73122 10.1689 5.72542 10.3223 5.75655 10.5208C5.77839 10.6569 5.76003 10.8 5.79 10.9326C5.87197 11.3006 5.9584 11.6687 6.06455 12.032C6.14305 12.2996 6.29637 12.5569 6.34026 12.8292C6.42456 13.3771 6.62757 13.8549 6.99783 14.2667C7.05892 14.3371 7.10397 14.4513 7.09817 14.5389C7.06937 14.9624 7.02664 15.3823 6.96902 15.8034C6.95742 15.8842 6.87099 16.0064 6.80061 16.0203C6.52026 16.0791 6.47637 16.2961 6.40948 16.5142C6.32189 16.8026 6.22715 17.0909 6.1152 17.3701C6.08059 17.4544 5.99398 17.5455 5.90755 17.5859C5.4091 17.8028 4.90041 18.0012 4.39849 18.2135C3.86427 18.4362 3.32445 18.6518 2.80416 18.901C2.26317 19.1583 1.74269 19.449 1.21911 19.7305C0.907627 19.8965 0.617995 20.08 0.375732 20.3072V21.2312C3.15721 21.2312 5.93636 21.2312 8.7157 21.2312V19.6241H8.72266V19.6232Z" fill="white"/>
<path d="M30.8374 19.3869C29.0031 18.4478 27.1064 17.6678 25.1867 16.9308C25.0424 16.8755 24.8717 16.767 24.8129 16.64C24.6571 16.2939 24.5488 15.9281 24.4369 15.5636C24.3665 15.3318 24.3066 15.1114 24.0492 15.0018C23.9812 14.973 23.9212 14.8369 23.9212 14.7514C23.9351 13.9092 23.7412 13.0244 24.3653 12.2884C24.386 12.2642 24.3895 12.2319 24.4057 12.2064C24.7414 11.468 24.8027 10.6258 25.2733 9.93824C25.2849 9.922 25.2872 9.90016 25.2895 9.87947C25.3437 9.35569 25.4026 8.83308 25.4454 8.3093C25.45 8.24357 25.3934 8.1293 25.3369 8.10861C25.0772 8.01639 25.0912 7.80873 25.0935 7.59992C25.0935 6.57654 25.0935 5.55335 25.0912 4.52997C25.0912 3.93466 24.9158 3.40509 24.467 3.00138C23.956 2.54219 23.4288 2.09691 22.9038 1.65163C22.6488 1.43586 22.6293 1.2721 22.8657 1.03447C22.9719 0.930648 23.1069 0.85679 23.2258 0.769205C23.2016 0.728795 23.1737 0.689546 23.1496 0.649136C22.9893 0.649136 22.8277 0.627289 22.6743 0.652617C22.0929 0.746003 21.5069 0.827982 20.9369 0.964097C19.8467 1.22144 18.7865 1.56289 17.8993 2.292C17.2947 2.79276 16.8125 3.37415 16.7491 4.19549C16.7203 4.62703 16.7237 5.05955 16.7203 5.4911C16.7168 6.19372 16.7261 6.89865 16.711 7.59992C16.7087 7.71535 16.6418 7.90212 16.5644 7.92764C16.2806 8.01987 16.2725 8.20103 16.3094 8.43865C16.3359 8.60126 16.3164 8.77198 16.351 8.9313C16.449 9.37077 16.554 9.81044 16.6798 10.243C16.7744 10.5649 16.9579 10.8694 17.0087 11.1971C17.1102 11.8512 17.3525 12.4223 17.7954 12.915C17.867 12.9958 17.9234 13.1331 17.9155 13.2416C17.8809 13.7458 17.8301 14.2487 17.7608 14.7495C17.7458 14.8475 17.6431 14.9929 17.559 15.0113C17.2245 15.0828 17.1725 15.339 17.094 15.5996C16.9878 15.9445 16.8771 16.2883 16.7409 16.6218C16.7005 16.7256 16.5955 16.8353 16.494 16.8792C15.8976 17.14 15.292 17.3788 14.6921 17.6278C14.0529 17.8954 13.4104 18.1527 12.7886 18.4491C12.1447 18.7571 11.5218 19.1009 10.8942 19.4391C10.5251 19.6351 10.1778 19.8544 9.88818 20.1289V21.2306C17.1874 21.2306 24.4868 21.2306 31.7871 21.2306V20.0827C31.5182 19.8045 31.2032 19.5738 30.8374 19.3869Z" fill="white"/>
</g>
</svg>
