<svg id="b2233fd9-9303-461d-a94a-d304178dc026" data-name="Livello 1" xmlns="http://www.w3.org/2000/svg" viewBox="0 0 32 32"><path d="M26.87,26l-.56-1.89.79-.8a1.5,1.5,0,0,0-1.74-2.4l-.51-1.72.84-.84A1.5,1.5,0,0,0,23.89,16l-.83-2.8,3.79-3.78a10.51,10.51,0,0,0,2.47-3.94,2.29,2.29,0,0,0-.11-1.93,2.12,2.12,0,0,0-2.5-.94A10.43,10.43,0,0,0,22.6,5.17L18.81,9,16,8.12a1.51,1.51,0,0,0-.25-1.79,1.52,1.52,0,0,0-2.13,0l-.83.84-1.72-.51a1.51,1.51,0,0,0-.28-1.74,1.49,1.49,0,0,0-2.12,0l-.8.79L6,5.14a.51.51,0,0,0-.5.13L3.37,7.39a.57.57,0,0,0-.14.45.51.51,0,0,0,.14.26.49.49,0,0,0,.15.1l11,5-3,3-.06.07L10,18.53l-5.4-1.35a.53.53,0,0,0-.48.13L2.66,18.73a.51.51,0,0,0-.14.39.55.55,0,0,0,.14.32l.07,0L7.22,22.7a1.66,1.66,0,0,0,.4,1.69h0a1.69,1.69,0,0,0,1.7.4l3.21,4.49.05.06a.5.5,0,0,0,.31.15.49.49,0,0,0,.4-.15l1.42-1.41a.53.53,0,0,0,.13-.48l-1.35-5.41,2.21-1.49.07-.06,3-3,5,11a.72.72,0,0,0,.11.15.43.43,0,0,0,.26.13.5.5,0,0,0,.44-.13l2.13-2.13A.49.49,0,0,0,26.87,26Zm-1.18-4.1a.49.49,0,0,1,.7.7L26,23l-.35-1.16Zm-1.42-5A.5.5,0,0,1,25,17a.51.51,0,0,1,0,.71l-.46.45L24.2,17ZM14.35,7a.51.51,0,0,1,.71,0,.5.5,0,0,1,0,.71L15,7.82,13.9,7.49Zm-5-1.42a.51.51,0,0,1,.71,0,.5.5,0,0,1,0,.71l.05,0L9,6Zm-4.8,2L6,6.19,18,9.76l-2.7,2.7Zm0,10.63,4.78,1.19L7.73,21.83,3.79,19Zm3.74,5.47a.67.67,0,0,1,0-.89l4-5.88,11-11A9.61,9.61,0,0,1,27,3.56a1.1,1.1,0,0,1,1.3.47,1.28,1.28,0,0,1,.05,1.1,9.51,9.51,0,0,1-2.24,3.58l-4,4L18.6,16.25l-3.5,3.51-5.9,4A.67.67,0,0,1,8.33,23.69Zm5.47,3.74-.8.8-2.81-3.94,2.41-1.64Zm10.63,0L19.56,16.71l2.7-2.7,3.57,12Z" style="fill:#4d4d4d"/><path d="M26.75,5.27a1.19,1.19,0,0,0-1.4-.21l-1,.47.45.9,1-.48A.2.2,0,0,1,26,6a.19.19,0,0,1,0,.22l-.49,1,.9.45.48-1A1.22,1.22,0,0,0,26.75,5.27Z" style="fill:#4d4d4d"/></svg>