<svg id="b75cc379-2297-4449-99a6-8c54050753db" data-name="Livello 1" xmlns="http://www.w3.org/2000/svg" viewBox="0 0 32 32"><path d="M14.23,26.44a.54.54,0,0,0,.17.43,2.45,2.45,0,0,0,1.45.55,1.52,1.52,0,0,0,.42-.06,2.81,2.81,0,0,0,1.75-2l3.75-11.1h0l7.41-3.45a4.9,4.9,0,0,0,2.58-2.59,2.61,2.61,0,0,0-.05-2,2.76,2.76,0,0,0-2.15-1.5,5.08,5.08,0,0,0-3,.47L18,9.13h0l-9.2-3.6a2.77,2.77,0,0,0-2.67,0,2.2,2.2,0,0,0-.81,1.76.5.5,0,0,0,.22.4L11.76,12,8.12,13.75h0L2.16,12.24a.5.5,0,0,0-.57.24L.11,15.15a.51.51,0,0,0,0,.42.55.55,0,0,0,.3.3l4.51,1.86-1,.48a.51.51,0,0,0-.25.67l1.25,2.7a.5.5,0,0,0,.29.26.47.47,0,0,0,.17,0h0a.52.52,0,0,0,.21,0l9.58-4.48v.09ZM6.32,7.07V7a1,1,0,0,1,.35-.64c.34-.24.93-.21,1.73.09L16.7,9.72l-.1,0-3.76,1.76,0,0ZM5.53,20.7l0-.05L4.7,18.93l0,0,1.58-.74a.51.51,0,0,0,0-.93l-5.06-2.1,1-1.81h0l5.72,1.42a.5.5,0,0,0,.34,0L27,6.05a4.13,4.13,0,0,1,2.42-.39,1.84,1.84,0,0,1,1.4.91,1.86,1.86,0,0,1-.25,1.76,4.19,4.19,0,0,1-1.79,1.51l-6.55,3.08,0-.12.39-1.15a.5.5,0,0,0,0-.4.51.51,0,0,0-.95.07L17.06,25c-.29.8-.64,1.27-1,1.37l-.19,0a1,1,0,0,1-.53-.15l0,0v0L16.4,14.46a.51.51,0,0,0-.46-.55.53.53,0,0,0-.38.11.52.52,0,0,0-.18.35l-.18,1.82h0Z" style="fill:#4d4d4d"/></svg>