<svg id="e6082598-af87-44b8-8f70-4486c4cf0268" data-name="Livello 1" xmlns="http://www.w3.org/2000/svg" viewBox="0 0 32 32"><path d="M29.83,9.41a2.36,2.36,0,0,0-3.27,0l-5.75,5.75-4-4,5.77-5.76a2.32,2.32,0,0,0,0-3.28,2.36,2.36,0,0,0-3.26,0L13.54,7.93,12.16,6.54a.61.61,0,0,0-.86,0L8.92,8.93a.58.58,0,0,0-.18.43.56.56,0,0,0,.18.42l.78.78L5.94,14.32a6.65,6.65,0,0,0-.45,8.91L1.67,27.05a.6.6,0,0,0,0,.86.62.62,0,0,0,.85,0l3.8-3.8,1.57,1.56-3.81,3.8a.61.61,0,0,0,.43,1,.6.6,0,0,0,.43-.18L8.76,26.5a6.65,6.65,0,0,0,8.91-.45l3.76-3.76.78.78a.6.6,0,0,0,.85,0l2.45-2.38a.64.64,0,0,0,.18-.43.62.62,0,0,0-.18-.44l-1.42-1.41,5.75-5.74A2.33,2.33,0,0,0,29.83,9.41ZM20.17,3a1.11,1.11,0,0,1,1.56,0,1.09,1.09,0,0,1,0,1.55L16,10.34,14.4,8.78ZM22.64,21.8,21.85,21A.61.61,0,0,0,21,21L16.81,25.2a5.43,5.43,0,0,1-7.68,0L6.79,22.87a5.44,5.44,0,0,1,0-7.69L11,11a.59.59,0,0,0,0-.85l-.78-.78,1.53-1.54L13.11,9.2h0l7.26,7.23h0l3.83,3.82Zm6.34-10-5.75,5.75L21.67,16l5.75-5.75a1.11,1.11,0,0,1,1.56,0A1.09,1.09,0,0,1,29,11.82Z" style="fill:#4d4d4d"/></svg>