<svg id="bea049d9-d8d1-459c-be16-114bb4f41df7" data-name="Livello 1" xmlns="http://www.w3.org/2000/svg" viewBox="0 0 32 32"><path d="M13.26,21.85a.5.5,0,0,1-.5-.5V4.52a2.52,2.52,0,0,1,5,0,.5.5,0,0,1-1,0,1.52,1.52,0,0,0-3,0V21.35A.5.5,0,0,1,13.26,21.85Z" style="fill:#4d4d4d"/><path d="M25.26,21.85a.5.5,0,0,1-.5-.5V4.52a2.53,2.53,0,0,1,5,0,.5.5,0,0,1-.5.5.5.5,0,0,1-.5-.5,1.53,1.53,0,0,0-3,0V21.35A.5.5,0,0,1,25.26,21.85Z" style="fill:#4d4d4d"/><path d="M24.78,12.58H13.26a.5.5,0,0,1-.5-.5.5.5,0,0,1,.5-.5H24.78a.5.5,0,0,1,.5.5A.51.51,0,0,1,24.78,12.58Z" style="fill:#4d4d4d"/><path d="M24.78,18.4H13.26a.5.5,0,0,1-.5-.5.5.5,0,0,1,.5-.5H24.78a.5.5,0,0,1,.5.5A.51.51,0,0,1,24.78,18.4Z" style="fill:#4d4d4d"/><path d="M26.24,25a4.27,4.27,0,0,1-3.41-1.68,4.31,4.31,0,0,1-6.83,0,4.31,4.31,0,0,1-6.83,0,4.3,4.3,0,0,1-7.39-1,.49.49,0,0,1,.27-.65A.49.49,0,0,1,2.7,22a3.32,3.32,0,0,0,6,.2.52.52,0,0,1,.89,0,3.31,3.31,0,0,0,5.93,0,.51.51,0,0,1,.45-.28h0a.51.51,0,0,1,.45.28,3.31,3.31,0,0,0,5.93,0,.52.52,0,0,1,.89,0,3.32,3.32,0,0,0,6-.2.5.5,0,0,1,.92.38A4.29,4.29,0,0,1,26.24,25Z" style="fill:#4d4d4d"/><path d="M26.24,30a4.27,4.27,0,0,1-3.41-1.68,4.31,4.31,0,0,1-6.83,0,4.31,4.31,0,0,1-6.83,0,4.3,4.3,0,0,1-7.39-1A.5.5,0,1,1,2.7,27a3.32,3.32,0,0,0,6,.2.52.52,0,0,1,.89,0,3.31,3.31,0,0,0,5.93,0,.51.51,0,0,1,.45-.28h0a.51.51,0,0,1,.45.28,3.31,3.31,0,0,0,5.93,0,.52.52,0,0,1,.89,0,3.32,3.32,0,0,0,6-.2.5.5,0,1,1,.92.38A4.29,4.29,0,0,1,26.24,30Z" style="fill:#4d4d4d"/></svg>