<svg id="b92a23e6-b8e1-45f8-b2d3-0616be162385" data-name="Livello 1" xmlns="http://www.w3.org/2000/svg" viewBox="0 0 32 32"><path d="M26.81,26.47h-1V22.92a3.84,3.84,0,0,0-.55-2,3.47,3.47,0,0,0-.75-.86,50.44,50.44,0,0,0-5-3.09l.48-.88a49.54,49.54,0,0,1,5.19,3.19,4.72,4.72,0,0,1,1,1.11,4.86,4.86,0,0,1,.7,2.57Z" style="fill:#4d4d4d"/><path d="M6.18,26.47h-1V22.92a4.86,4.86,0,0,1,.71-2.57,4.72,4.72,0,0,1,1-1.11,49.54,49.54,0,0,1,5.19-3.19l.48.88a50.44,50.44,0,0,0-5,3.09,3.47,3.47,0,0,0-.75.86,3.88,3.88,0,0,0-.56,2Z" style="fill:#4d4d4d"/><path d="M16,18.93c-3.14,0-5.69-3.12-5.69-6.95S12.86,5,16,5s5.69,3.12,5.69,7S19.14,18.93,16,18.93ZM16,6c-2.59,0-4.69,2.67-4.69,6s2.1,5.95,4.69,5.95,4.69-2.67,4.69-5.95S18.59,6,16,6Z" style="fill:#4d4d4d"/></svg>