<svg id="b636b629-d786-4c9b-b920-05ac9e95de60" data-name="Livello 1" xmlns="http://www.w3.org/2000/svg" viewBox="0 0 32 32"><g id="a535cefa-8b40-4927-a17e-704cf832657e" data-name="rafting"><path d="M27.74,29a1,1,0,0,1-.89-.62L25.59,25a.42.42,0,0,1,0-.22l.11-1a.48.48,0,0,1,.32-.41l1.69-.63a.5.5,0,0,1,.52.1l.74.69a.47.47,0,0,1,.12.19l1.26,3.38a1,1,0,0,1,0,.73,1,1,0,0,1-.53.5l-1.7.63A1,1,0,0,1,27.74,29ZM26.56,24.8l1.23,3.27,1.59-.65L28.17,24.2l-.43-.4-1.11.42Zm2.86,2.61h0Z" style="fill:#4d4d4d"/><path d="M27.17,24.46a.5.5,0,0,1-.47-.32L22.29,12.57a.5.5,0,0,1,.94-.36l4.4,11.58a.5.5,0,0,1-.29.64A.47.47,0,0,1,27.17,24.46Z" style="fill:#4d4d4d"/><path d="M25,16.5H22.76a.5.5,0,0,1,0-1H25a.5.5,0,0,1,0,1Z" style="fill:#4d4d4d"/><path d="M4.26,29A1,1,0,0,1,3.93,29l-1.69-.63a1,1,0,0,1-.54-.5,1,1,0,0,1,0-.73l1.26-3.38a.47.47,0,0,1,.12-.19l.74-.69a.5.5,0,0,1,.52-.1L6,23.39a.48.48,0,0,1,.32.41l.11,1a.42.42,0,0,1,0,.22L5.15,28.42A1,1,0,0,1,4.26,29ZM2.63,27.43,4.28,28,5.44,24.8l-.07-.58L4.26,23.8l-.43.4Zm0,0Z" style="fill:#4d4d4d"/><path d="M4.83,24.46a.47.47,0,0,1-.17,0,.5.5,0,0,1-.29-.64l4.4-11.58a.51.51,0,0,1,.65-.29.5.5,0,0,1,.29.65L5.3,24.14A.5.5,0,0,1,4.83,24.46Z" style="fill:#4d4d4d"/><path d="M9.21,16.5H7a.5.5,0,1,1,0-1H9.21a.5.5,0,0,1,0,1Z" style="fill:#4d4d4d"/><path d="M19.15,19.21H12.82a.5.5,0,0,1,0-1h6.33a.5.5,0,0,1,0,1Z" style="fill:#4d4d4d"/><path d="M19.15,13.79H12.82a.5.5,0,0,1,0-1h6.33a.5.5,0,0,1,0,1Z" style="fill:#4d4d4d"/><path d="M18.8,30.5H13.18A4.1,4.1,0,0,1,10,29L7.37,25.8a.5.5,0,0,1,.77-.63l2.63,3.2a3.12,3.12,0,0,0,2.41,1.13H18.8a3.1,3.1,0,0,0,2.4-1.13l2.64-3.2a.49.49,0,0,1,.7-.07.5.5,0,0,1,.07.7L22,29A4.1,4.1,0,0,1,18.8,30.5Z" style="fill:#4d4d4d"/><path d="M26.82,17.86a.51.51,0,0,1-.5-.5V11.3a4,4,0,0,0-.91-2.56L21.2,3.63A3.1,3.1,0,0,0,18.8,2.5H13.18a3.12,3.12,0,0,0-2.41,1.13L6.56,8.74a4,4,0,0,0-.91,2.56v6.06a.51.51,0,0,1-.5.5.5.5,0,0,1-.5-.5V11.3A5,5,0,0,1,5.79,8.11L10,3a4.12,4.12,0,0,1,3.18-1.5H18.8A4.1,4.1,0,0,1,22,3l4.21,5.11a5,5,0,0,1,1.14,3.19v6.06A.5.5,0,0,1,26.82,17.86Z" style="fill:#4d4d4d"/><path d="M17.79,25.08H14.18a.5.5,0,0,1-.38-.17L10.64,21.3a.5.5,0,0,1-.12-.33V11a.5.5,0,0,1,.12-.33L13.8,7.09a.5.5,0,0,1,.38-.17h3.61a.5.5,0,0,1,.38.17l3.16,3.61a.5.5,0,0,1,.12.33V21a.5.5,0,0,1-.12.33l-3.16,3.61A.5.5,0,0,1,17.79,25.08Zm-3.38-1h3.16l2.88-3.3V11.22l-2.88-3.3H14.41l-2.89,3.3v9.56Z" style="fill:#4d4d4d"/><path d="M17.79,7.92a.59.59,0,0,1-.22,0,.49.49,0,0,1-.22-.67L18.7,4.49a.5.5,0,0,1,.67-.23.49.49,0,0,1,.22.67L18.24,7.64A.49.49,0,0,1,17.79,7.92Z" style="fill:#4d4d4d"/><path d="M14.18,7.92a.5.5,0,0,1-.45-.28L12.38,4.93a.49.49,0,0,1,.22-.67.5.5,0,0,1,.67.23L14.63,7.2a.51.51,0,0,1-.23.67A.59.59,0,0,1,14.18,7.92Z" style="fill:#4d4d4d"/><path d="M11,11.53a.63.63,0,0,1-.19,0l-2.26-.91a.49.49,0,0,1-.27-.65A.51.51,0,0,1,9,9.66l2.25.91a.5.5,0,0,1-.18,1Z" style="fill:#4d4d4d"/><path d="M21,11.53a.51.51,0,0,1-.46-.31.5.5,0,0,1,.28-.65L23,9.66a.51.51,0,0,1,.65.28.51.51,0,0,1-.28.65l-2.26.91A.58.58,0,0,1,21,11.53Z" style="fill:#4d4d4d"/><path d="M19.15,27.86a.5.5,0,0,1-.45-.27l-1.35-2.71a.5.5,0,0,1,.89-.45l1.35,2.71a.49.49,0,0,1-.22.67A.44.44,0,0,1,19.15,27.86Z" style="fill:#4d4d4d"/><path d="M12.82,27.86a.44.44,0,0,1-.22-.05.49.49,0,0,1-.22-.67l1.35-2.71a.49.49,0,0,1,.67-.22.5.5,0,0,1,.23.67l-1.36,2.71A.5.5,0,0,1,12.82,27.86Z" style="fill:#4d4d4d"/><path d="M8.76,22.44a.5.5,0,0,1-.19-1l2.26-.9a.5.5,0,1,1,.37.92L9,22.41A.63.63,0,0,1,8.76,22.44Z" style="fill:#4d4d4d"/><path d="M23.21,22.44a.57.57,0,0,1-.18,0l-2.26-.91a.5.5,0,1,1,.37-.92l2.26.9a.51.51,0,0,1,.28.65A.51.51,0,0,1,23.21,22.44Z" style="fill:#4d4d4d"/></g></svg>