<svg id="a7780c12-bc19-42f0-8acc-4f4979328e3f" data-name="Livello 1" xmlns="http://www.w3.org/2000/svg" viewBox="0 0 32 32"><path d="M13.29,20.58a.51.51,0,0,1-.5-.5V18.63a1.25,1.25,0,0,0-.18-.68,1.31,1.31,0,0,0-.24-.28,18.78,18.78,0,0,0-2-1.23.49.49,0,0,1-.2-.68.5.5,0,0,1,.68-.2A19.87,19.87,0,0,1,13,16.89a2.12,2.12,0,0,1,.46.53,2.22,2.22,0,0,1,.34,1.21v1.45A.51.51,0,0,1,13.29,20.58Z" style="fill:#4d4d4d"/><path d="M4.87,20.58a.5.5,0,0,1-.5-.5V18.63a2.27,2.27,0,0,1,.33-1.21,2.18,2.18,0,0,1,.47-.53,19.87,19.87,0,0,1,2.16-1.33.5.5,0,1,1,.48.88,19.12,19.12,0,0,0-2,1.24.9.9,0,0,0-.24.27,1.26,1.26,0,0,0-.19.68v1.45A.5.5,0,0,1,4.87,20.58Z" style="fill:#4d4d4d"/><path d="M9.08,17.29a2.91,2.91,0,0,1-2.62-3.13A2.92,2.92,0,0,1,9.08,11a2.92,2.92,0,0,1,2.63,3.14A2.91,2.91,0,0,1,9.08,17.29Zm0-5.26c-.89,0-1.61,1-1.61,2.13s.72,2.13,1.61,2.13a1.94,1.94,0,0,0,1.62-2.13A1.93,1.93,0,0,0,9.08,12Z" style="fill:#4d4d4d"/><path d="M29.49,27.22h-27A2.52,2.52,0,0,1,0,24.71V7.29A2.52,2.52,0,0,1,2.51,4.78h27A2.52,2.52,0,0,1,32,7.29V24.71A2.52,2.52,0,0,1,29.49,27.22ZM2.51,5.78A1.51,1.51,0,0,0,1,7.29V24.71a1.51,1.51,0,0,0,1.5,1.51h27A1.51,1.51,0,0,0,31,24.71V7.29a1.51,1.51,0,0,0-1.5-1.51Z" style="fill:#4d4d4d"/><path d="M25.9,13.27H18.27a.51.51,0,1,1,0-1H25.9a.51.51,0,0,1,0,1Z" style="fill:#4d4d4d"/><path d="M25.9,16.5H18.27a.5.5,0,1,1,0-1H25.9a.5.5,0,0,1,0,1Z" style="fill:#4d4d4d"/><path d="M25.9,19.74H18.27a.51.51,0,1,1,0-1H25.9a.51.51,0,0,1,0,1Z" style="fill:#4d4d4d"/></svg>