<svg id="a7241cf2-6266-4059-827f-9ec162a7ed40" data-name="Livello 1" xmlns="http://www.w3.org/2000/svg" viewBox="0 0 32 32"><path d="M31.83,16.08a27.7,27.7,0,0,0-1.94-6V10a3.23,3.23,0,0,0-.41-2.37,2.7,2.7,0,0,0-1.31-1.08l0,0,0,0a25.64,25.64,0,0,0-1.46-2.29c-.1-.16-.21-.32-.32-.47-.42-.58-.77-1.1-1.06-1.59L25.16,2l-.22-.05C24.67,1.88,18.43.52,16,1.8l0,0-.05,0c-1-.54-3.35-.95-8.86.12L7,1.94,6.75,2l-.14.24c-.31.51-.7,1.14-1.07,1.68C5,4.75,4.46,5.58,4,6.51v0h0A2.86,2.86,0,0,0,2.64,7.63,3.13,3.13,0,0,0,2.22,10v.07A32.42,32.42,0,0,0,.11,16l0,.23,9,14.5H22.9l9-14.46ZM28.49,8.33a2,2,0,0,1,.09,2,3.6,3.6,0,0,1-.78.92l-.13.12,0-.18A10.13,10.13,0,0,0,26.36,7.8l-.06-.11.12,0a1.87,1.87,0,0,1,.62-.1A1.47,1.47,0,0,1,28.49,8.33Zm-25,0a1.57,1.57,0,0,1,1.36-.78H5a1.84,1.84,0,0,1,.41.06l.19,0,.15,0-.08.13A9.71,9.71,0,0,0,4.37,11.2l0,.18-.13-.13a4.11,4.11,0,0,1-.78-.91A2,2,0,0,1,3.53,8.29ZM30.66,16l-2.37,3.9-.09-.09a12.62,12.62,0,0,0-1.69-1.31l-.58.94a8.56,8.56,0,0,1,1.68,1.35l.05.06,0,.06-1.25,2-.09-.08a11.67,11.67,0,0,0-1.55-1.19l-.59,1a9,9,0,0,1,1.56,1.22l.05.05-1.39,2.22L24.27,26a10.65,10.65,0,0,0-1.65-1.29l-.59,1A8.79,8.79,0,0,1,23.68,27l.06.06,0,.07L22.15,29.6H9.63l0-.05L8.11,27.17l.05-.05a8.65,8.65,0,0,1,1.78-1.45l-.59-1A12.53,12.53,0,0,0,7.57,26.1l-.09.09-.06-.11L6.09,24l.06,0A8.12,8.12,0,0,1,7.8,22.57l-.59-1A11,11,0,0,0,5.56,22.9L5.47,23l-.06-.11-1.2-1.94,0-.06A9.27,9.27,0,0,1,6.05,19.4l-.59-.95a9.29,9.29,0,0,0-1.78,1.41l-.09.1,0-.06L1.13,16v0a34.2,34.2,0,0,1,1.55-4.5l.07-.15.1.13A9.47,9.47,0,0,0,4.1,12.59l0,0v.05c0,.6,0,1.21,0,1.84l1.11-.09c-.23-3.61,1-6.74,3.24-8.19l-.59-1A7,7,0,0,0,6.46,6.53l0,0-.07,0a4.57,4.57,0,0,0-1-.23l-.15,0,.08-.13c.15-.26.31-.51.47-.76L6,5.05l.39-.62c.17-.3.36-.59.56-.9l.14-.21c.08-.14.17-.27.26-.41l0,0h0c2.66-.53,7-1,8.1-.07l.37.3.36-.3c1.05-.91,5.37-.51,8.11.07h0l.23.35c.25.38.49.73.75,1.07l.29.42c.33.49.65,1,1,1.47l.08.12-.16,0a6.65,6.65,0,0,0-.93.23h-.06l0,0a7.43,7.43,0,0,0-1.45-1.25l-.59,1c2.24,1.45,3.47,4.58,3.24,8.19l1.12.09c0-.63,0-1.24,0-1.84v-.05l.11-.09a12.25,12.25,0,0,0,1.17-1.09l.11-.11.06.14a25.55,25.55,0,0,1,1.39,4.47v0Z" style="fill:#4d4d4d"/><path d="M8.59,19.43a7.77,7.77,0,0,0,3.13,4.07l0,0v0c.23,1.93,1.73,3,4.13,3s3.93-1.11,4.12-3v0l0,0a7.68,7.68,0,0,0,3.13-4.1C25.38,13.49,25,9.59,22,7.8A6.8,6.8,0,0,0,19.21,7L19,7l.7-.76-.81-.76L16,8.65l-3.11-3.1-.78.78.66.7-.19,0a6.82,6.82,0,0,0-2.9.84C6.78,9.75,6.44,13.52,8.59,19.43Zm10.16,4.8c-.42.84-1.38,1.27-2.83,1.27-.83,0-2.3-.17-2.83-1.31L13,24.05h.15a.38.38,0,0,1,.17,0l.16,0,.17,0a3,3,0,0,0,2.17-1l.07-.08.07.08a3.09,3.09,0,0,0,2.56.92h.27Zm-4.64-5.91h0c0-.49,1.13-.56,1.81-.56s1.82.07,1.82.56a3,3,0,0,1-1.82,1.62A3.28,3.28,0,0,1,14.11,18.32Zm-3.85-9.5h0A7.84,7.84,0,0,1,13.74,8h0l2.2,2.2L18,8h0a8.37,8.37,0,0,1,3.38.67c2.42,1.55,2.67,5,.74,10.35h0c-.81,2.19-2.32,3.76-3.75,3.89l-.25,0a2.06,2.06,0,0,1-1.69-1l0,0v-1l.06,0c1.05-.41,2.32-1.67,2.32-2.61,0-1.12-1-1.69-2.94-1.69S13,17.16,13,18.28c0,.94,1.26,2.2,2.31,2.61l.06,0v1l0,0a2,2,0,0,1-1.7,1h-.2c-1.46-.17-3-1.78-3.78-3.93C7.73,13.65,7.92,10.32,10.26,8.82Z" style="fill:#4d4d4d"/><path d="M11.63,11.94a3.65,3.65,0,0,0-.51.06h0l-.19,0-.11.11a2,2,0,0,0-.56,1.42,2.1,2.1,0,0,0,2.07,2.07,2,2,0,0,0,1.42-.56l.11-.11,0-.23a2.61,2.61,0,0,0,0-.48,2.16,2.16,0,0,0-.64-1.6A2.32,2.32,0,0,0,11.63,11.94Zm1.26,2.48h-.05l0,0a1.13,1.13,0,0,1-.48.14,1,1,0,0,1-1-1,.74.74,0,0,1,.15-.49l0,0h.11a1.25,1.25,0,0,1,1.23,1.23Z" style="fill:#4d4d4d"/><path d="M20.91,12.06l-.22,0a2.63,2.63,0,0,0-.48-.06,2.35,2.35,0,0,0-2.34,2.35,3.46,3.46,0,0,0,.06.52L18,15l.11.11a2,2,0,0,0,1.42.56,2.1,2.1,0,0,0,2.07-2.08A2,2,0,0,0,21,12.21Zm-1.39,2.52a.79.79,0,0,1-.49-.15l0,0v-.08a1.23,1.23,0,0,1,.38-.89,1.29,1.29,0,0,1,.91-.34h.06l0,.05a1,1,0,0,1,.14.47A1,1,0,0,1,19.52,14.58Z" style="fill:#4d4d4d"/></svg>