<svg id="b06a3d88-9b33-49f5-85f7-c76bcc12ee4d" data-name="Livello 1" xmlns="http://www.w3.org/2000/svg" viewBox="0 0 32 32"><path d="M15.94,2.56V23.12H2.56a.51.51,0,0,0-.48.32.53.53,0,0,0,.11.57L7.82,29.8A.57.57,0,0,0,8.2,30H26.28a.53.53,0,0,0,.46-.28l3.16-5.79a.52.52,0,0,0,0-.51.54.54,0,0,0-.45-.26H17V20.59H27a.55.55,0,0,0,.4-.18.54.54,0,0,0,.12-.42A26.55,26.55,0,0,0,16.75,2.12a.52.52,0,0,0-.54,0A.5.5,0,0,0,15.94,2.56ZM17,15h1.46a.53.53,0,0,0,0-1.05H17V11.84h3.43a.52.52,0,0,0,.52-.52.52.52,0,0,0-.52-.53H17V3.58l.44.36a26.37,26.37,0,0,1,8.91,15.29l.06.31H17Zm11.57,9.17-.22.4L26,28.91H8.43l-.07-.06L3.81,24.17Z" style="fill:#4d4d4d"/><path d="M13.19,5.58H13a.49.49,0,0,0-.44.26l-8.06,14a.49.49,0,0,0,0,.52.49.49,0,0,0,.45.26h8.06a.52.52,0,0,0,.53-.52v-14A.52.52,0,0,0,13.19,5.58Zm-.66,14H5.9l.23-.4,6.4-11.1Z" style="fill:#4d4d4d"/></svg>