<svg width="12" height="13" viewBox="0 0 12 13" fill="none" xmlns="http://www.w3.org/2000/svg">
<path d="M9.75 8.3C9.00898 8.3 8.35598 8.66453 7.94583 9.21887L4.39975 7.4031C4.45863 7.20243 4.5 6.99445 4.5 6.775C4.5 6.47735 4.43897 6.19438 4.33355 5.9341L8.04467 3.7009C8.45767 4.1856 9.06472 4.5 9.75 4.5C10.9907 4.5 12 3.49073 12 2.25C12 1.00927 10.9907 0 9.75 0C8.50928 0 7.5 1.00927 7.5 2.25C7.5 2.53593 7.55888 2.80715 7.65655 3.05895L3.93438 5.2987C3.52172 4.8284 2.92342 4.525 2.25 4.525C1.00927 4.525 0 5.53428 0 6.775C0 8.01573 1.00927 9.025 2.25 9.025C3.00325 9.025 3.66728 8.64978 4.07588 8.07985L7.61028 9.88972C7.54518 10.0999 7.5 10.3188 7.5 10.55C7.5 11.7907 8.50928 12.8 9.75 12.8C10.9907 12.8 12 11.7907 12 10.55C12 9.30927 10.9907 8.3 9.75 8.3Z" fill="#FF4758"/>
</svg>
