<svg id="ac632edc-13a2-43ff-bf2d-ce0cedfae1a6" data-name="Livello 1" xmlns="http://www.w3.org/2000/svg" viewBox="0 0 32 32"><path d="M26.25,26.67a2.87,2.87,0,0,0,2.73,2h1.17a.44.44,0,0,0,.44-.44V22.59A1.66,1.66,0,0,0,29,20.93h-.08l0-.07a1.75,1.75,0,0,0,.16-.71V17.71a1.67,1.67,0,0,0-1.66-1.66h-.78v0a1.07,1.07,0,0,0-1-.94H10.14a.44.44,0,0,0-.43.44v.54H8.27l0-.07a1.71,1.71,0,0,0,.14-.92L7.78,9.7A1.66,1.66,0,0,0,6.14,8.24H5.51a1.8,1.8,0,0,0-.72.16l-.06,0V8.36A1.65,1.65,0,0,0,3.07,6.78H1.85a.44.44,0,0,0-.44.44V9.61h.88v-2h.78a.8.8,0,0,1,.78.79v16.4H2.29V10.68H1.41V28.2a.44.44,0,0,0,.44.44H3a2.87,2.87,0,0,0,2.73-2l.32-1H22.78v-.87h-18v-3h24.2a.8.8,0,0,1,.79.78v2.25H23.86v.87h2.07Zm-21.11-1-.22.68A2,2,0,0,1,3,27.76H2.29V25.71ZM13.51,16H25.64a.18.18,0,0,1,.17.17V19H13.51Zm-2.93,0h2.05v3H10.58Zm-5.85-6a.78.78,0,0,1,.78-.78h.63a.78.78,0,0,1,.77.68l.68,5.37a.86.86,0,0,1-.16.58.84.84,0,0,1-.52.3H4.73ZM28.25,20.15a.78.78,0,0,1-.78.78H4.73v-4h5v2.49a.44.44,0,0,0,.43.44H26.25a.44.44,0,0,0,.44-.44V16.93h.78a.78.78,0,0,1,.78.78Zm1.47,5.56v2.05H29a2,2,0,0,1-1.9-1.37l-.22-.68Z" style="fill:#4d4d4d"/><path d="M19.43,9.83l-.56,1h0l-1,.56a.43.43,0,0,0-.18.59.45.45,0,0,0,.18.18l1,.56h0l.55,1A.45.45,0,0,0,20,14a.58.58,0,0,0,.17-.18l.56-1h0l1-.55a.45.45,0,0,0,.17-.6.46.46,0,0,0-.17-.17l-1-.56v0l-.55-1a.44.44,0,0,0-.6-.17A.46.46,0,0,0,19.43,9.83ZM19.81,11l.24.44a.42.42,0,0,0,.18.17l.43.24-.43.24a.42.42,0,0,0-.18.17l-.24.44-.23-.44A.42.42,0,0,0,19.4,12L19,11.8l.43-.24a.42.42,0,0,0,.18-.17Z" style="fill:#4d4d4d"/><path d="M13.47,4.57l-.56,1h0l-1,.55a.44.44,0,0,0-.18.6.42.42,0,0,0,.18.17l1,.56h0l.55,1a.44.44,0,0,0,.6.17.46.46,0,0,0,.17-.17l.56-1h0l1-.55A.49.49,0,0,0,16,6.66a.46.46,0,0,0-.21-.51l-1-.56h0l-.55-1a.43.43,0,0,0-.39-.23.46.46,0,0,0-.2,0A.39.39,0,0,0,13.47,4.57Zm.39,1.12.23.43a.39.39,0,0,0,.18.18l.43.24-.43.23a.39.39,0,0,0-.18.18l-.23.43L13.62,7a.39.39,0,0,0-.18-.18L13,6.54l.43-.24a.39.39,0,0,0,.18-.18Z" style="fill:#4d4d4d"/><path d="M25,4.2l-1-.56h0l-.55-1a.49.49,0,0,0-.26-.21.45.45,0,0,0-.34,0,.46.46,0,0,0-.17.17l-.56,1h0l-1,.55a.43.43,0,0,0-.18.59.39.39,0,0,0,.18.18l1,.56h0l.55,1a.41.41,0,0,0,.26.21.45.45,0,0,0,.34,0,.42.42,0,0,0,.17-.18l.56-1h0L25,5a.49.49,0,0,0,.21-.26.45.45,0,0,0,0-.34A.46.46,0,0,0,25,4.2Zm-1.56.62a.39.39,0,0,0-.18.18L23,5.43,22.79,5a.39.39,0,0,0-.18-.18l-.43-.24.43-.23a.39.39,0,0,0,.18-.18L23,3.74l.23.43a.39.39,0,0,0,.18.18l.43.23Z" style="fill:#4d4d4d"/></svg>