<svg id="f2077fef-89b3-4d49-bd07-79b23ea7c2d9" data-name="Livello 1" xmlns="http://www.w3.org/2000/svg" viewBox="0 0 32 32"><path d="M20.24,6.32H9.44a4,4,0,0,0,0,8.09h1.38a.47.47,0,0,0,.38-.2c.22-.32.43-.61.63-.86,1.14-1.48,2.07-2.13,3-2.13.41,0,1.64,0,3.65,3a.47.47,0,0,0,.39.21h1.36a4,4,0,1,0,0-8.09Zm3.1,4a3.1,3.1,0,0,1-3.1,3.1H19.13c-2-2.87-3.4-3.2-4.29-3.2-1.26,0-2.42.77-3.76,2.5l-.51.7H9.44a3.1,3.1,0,1,1,0-6.2h10.8A3.1,3.1,0,0,1,23.34,10.37Z" style="fill:#4d4d4d"/><path d="M29.76,1.21H27.47a.47.47,0,0,0-.47.47v5.4A.88.88,0,0,0,26.73,7H25.1a5.92,5.92,0,0,0-4.86-2.56H9.44A5.92,5.92,0,0,0,4.58,7H2.93A1.16,1.16,0,0,0,1.77,8.19v3a1.17,1.17,0,0,0,1.16,1.17h1a5.9,5.9,0,0,0,5.54,3.89h2.38a.46.46,0,0,0,.4-.23c1-1.61,2.17-3,2.62-3s1.64,1.36,2.62,3a.47.47,0,0,0,.4.23h2.38a5.9,5.9,0,0,0,5.54-3.89h.95a1.31,1.31,0,0,0,.27-.06v10a5.28,5.28,0,0,1-10.56,0v-.76a3.38,3.38,0,0,0,1.81-3,.47.47,0,0,0-.47-.47H11.9a.47.47,0,0,0-.47.47,3.39,3.39,0,0,0,1.78,3v.78a8.51,8.51,0,0,0,17,0V1.68A.47.47,0,0,0,29.76,1.21ZM14.15,21.87a3.82,3.82,0,0,0,.68.07h0a2,2,0,0,0,.24,0l.42,0v.4a6.22,6.22,0,0,0,12.44,0V2.15h1.35V22.28a7.57,7.57,0,0,1-15.14,0Zm.23-.92-.19-.05-.25-.08A2.47,2.47,0,0,1,12.42,19h4.85a2.51,2.51,0,0,1-1.55,1.83l-.23.07-.2.05a2.31,2.31,0,0,1-.46.05h-.06A2.58,2.58,0,0,1,14.38,21Zm5.86-5.62H18.12c-.61-1-2.12-3.2-3.28-3.2s-2.66,2.21-3.28,3.2H9.44a5,5,0,0,1-4.81-3.82l-.06-.26a5.15,5.15,0,0,1-.09-.88,5.16,5.16,0,0,1,.09-.89,1.55,1.55,0,0,1,0-.23,5.33,5.33,0,0,1,.22-.71s0-.09,0-.13a5,5,0,0,1,4.55-3h10.8a5,5,0,0,1,4.18,2.31v0A5.26,5.26,0,0,1,25,9L25,9c.05.21.1.42.13.64h0a5.34,5.34,0,0,1,.05.69,5,5,0,0,1-4.94,5Zm5.9-5A5.88,5.88,0,0,0,25.63,8h1.1a.22.22,0,0,1,.22.23v3a.23.23,0,0,1-.22.23H26A5.46,5.46,0,0,0,26.14,10.37ZM3.9,8.35a2,2,0,0,0-.08.22c0,.16-.09.32-.13.49a.31.31,0,0,0,0,.08c0,.2-.08.4-.1.6h0c0,.2,0,.41,0,.62a5.33,5.33,0,0,0,.09,1v.09h-.7a.23.23,0,0,1-.22-.23v-3A.22.22,0,0,1,2.93,8H4.05L4,8Z" style="fill:#4d4d4d"/></svg>