<svg id="a540a782-d17b-404c-80d6-54baba7bf3b5" data-name="Livello 1" xmlns="http://www.w3.org/2000/svg" viewBox="0 0 32 32"><path d="M31.56,16.89h-7v0C23.08,10,20.29,7,18.21,5.59a4.11,4.11,0,0,0-4.42,0C11.71,7,8.92,10,7.48,16.85v0h-7a.44.44,0,0,0-.44.44,13.38,13.38,0,0,0,2.43,7.55.43.43,0,0,0,.35.17H29.22a.43.43,0,0,0,.35-.17A13.45,13.45,0,0,0,32,17.33.44.44,0,0,0,31.56,16.89ZM8.4,16.83c1.39-6.39,4-9.23,5.88-10.5a3.28,3.28,0,0,1,3.44,0c1.92,1.27,4.49,4.11,5.88,10.5l0,.06H8.38ZM2.73,23.77l0-.06a11.2,11.2,0,0,1-1.38-3.26v-.06h4l-.06.07Zm.82.39.05-.07,2.54-3.27,2.6,3.34Zm3.39-3.77h5l-.05.07L9.45,23.63Zm3.23,3.77.06-.07,2.53-3.27,0,.05,2.56,3.29ZM16,23.59l-2.48-3.2h5l-.06.07-2.46,3.18Zm.75.57.05-.07,2.54-3.27L22,24.16Zm3.38-3.77h5l-.06.07-2.46,3.17Zm3.24,3.77.05-.07L26,20.82l0,.05,2.56,3.29Zm7.27-3.71a11.58,11.58,0,0,1-1.31,3.16l0,.06,0-.05-2.51-3.23h3.9Zm.41-2.63a13,13,0,0,1-.2,1.65v0H1.12v0a13,13,0,0,1-.2-1.65v-.05H31.1Z" style="fill:#4d4d4d"/></svg>