<svg id="b7a28d28-9a6c-42f1-9cc2-ede33669f4c0" data-name="Livello 1" xmlns="http://www.w3.org/2000/svg" viewBox="0 0 32 32"><path d="M16,8.05a8,8,0,1,0,8,8A8,8,0,0,0,16,8.05Zm6.78,8A6.78,6.78,0,1,1,16,9.28,6.78,6.78,0,0,1,22.78,16.06Z" style="fill:#4d4d4d"/><path d="M16,6a.61.61,0,0,0,.61-.61V1.49a.61.61,0,1,0-1.22,0V5.38A.61.61,0,0,0,16,6Z" style="fill:#4d4d4d"/><path d="M16,26a.61.61,0,0,0-.61.61v3.89a.61.61,0,1,0,1.22,0V26.62A.61.61,0,0,0,16,26Z" style="fill:#4d4d4d"/><path d="M21.27,7.49a.62.62,0,0,0,.32.09.58.58,0,0,0,.52-.29L24.16,4a.62.62,0,0,0-.66-.92.63.63,0,0,0-.38.28L21.07,6.65A.6.6,0,0,0,21.27,7.49Z" style="fill:#4d4d4d"/><path d="M10.73,24.51a.62.62,0,0,0-.46-.08.63.63,0,0,0-.38.28L7.84,28a.61.61,0,0,0,.2.84.62.62,0,0,0,.32.09.6.6,0,0,0,.52-.29l2-3.31A.6.6,0,0,0,10.73,24.51Z" style="fill:#4d4d4d"/><path d="M25.37,11.61a.59.59,0,0,0,.29-.07L29.09,9.7A.62.62,0,0,0,29,8.57a.64.64,0,0,0-.47,0l-3.43,1.84a.62.62,0,0,0-.3.36.62.62,0,0,0,.59.79Z" style="fill:#4d4d4d"/><path d="M6.34,20.49,2.9,22.33a.63.63,0,0,0-.25.83.62.62,0,0,0,.54.32.59.59,0,0,0,.29-.07l3.44-1.84a.61.61,0,1,0-.58-1.08Z" style="fill:#4d4d4d"/><path d="M30.52,15.36h-3.9a.62.62,0,0,0,0,1.23h3.89a.63.63,0,0,0,.62-.62A.62.62,0,0,0,30.52,15.36Z" style="fill:#4d4d4d"/><path d="M6,16a.62.62,0,0,0-.62-.61H1.48a.65.65,0,0,0-.44.18.65.65,0,0,0-.18.44.62.62,0,0,0,.62.61h3.9A.62.62,0,0,0,6,16Z" style="fill:#4d4d4d"/><path d="M29,22.43l-3.42-1.87a.61.61,0,0,0-.83.24.64.64,0,0,0-.05.47.6.6,0,0,0,.3.36l3.42,1.87a.6.6,0,0,0,.83-.24A.61.61,0,0,0,29,22.43Z" style="fill:#4d4d4d"/><path d="M7,10.36,3.55,8.49a.6.6,0,0,0-.47-.05.61.61,0,0,0-.36.29A.63.63,0,0,0,3,9.57l3.42,1.87a.6.6,0,0,0,.3.07.59.59,0,0,0,.53-.32.57.57,0,0,0,0-.46A.6.6,0,0,0,7,10.36Z" style="fill:#4d4d4d"/><path d="M22.16,24.69h0a.61.61,0,0,0-1.12.18.57.57,0,0,0,.08.46l2.07,3.31a.6.6,0,0,0,.52.29.55.55,0,0,0,.32-.1.6.6,0,0,0,.19-.84Z" style="fill:#4d4d4d"/><path d="M9.85,7.31a.61.61,0,0,0,.52.29.55.55,0,0,0,.32-.1A.56.56,0,0,0,11,7.12a.62.62,0,0,0-.07-.46L8.82,3.35a.61.61,0,0,0-1,.65Z" style="fill:#4d4d4d"/></svg>