<svg id="e17572f6-72b1-423d-a76a-de97f9f88ed8" data-name="Livello 1" xmlns="http://www.w3.org/2000/svg" viewBox="0 0 32 32"><g id="ecb6494c-44e2-4d69-a7e2-58d832cb1fa4" data-name="13 Sunrise"><g id="b1406383-5e5e-4ee5-9fe1-61840e7cb18d" data-name="13 Sunrise"><path d="M9.09,8.92l-.17,0A.62.62,0,0,0,8.6,9a.63.63,0,0,0-.3.38.67.67,0,0,0,.07.5l.9,1.55a.6.6,0,0,0,.38.3.67.67,0,0,0,.5-.06.66.66,0,0,0,.23-.88l-.9-1.56A.66.66,0,0,0,9.09,8.92Z" style="fill:#4d4d4d"/><path d="M5.59,15.14,4,14.23a.6.6,0,0,0-.31-.08.64.64,0,0,0-.33,1.2l1.58.91A.64.64,0,0,0,5.82,16,.66.66,0,0,0,5.59,15.14Z" style="fill:#4d4d4d"/><path d="M30.25,21.31h-1.7a.65.65,0,0,0,0,1.29h1.7a.65.65,0,0,0,0-1.29Z" style="fill:#4d4d4d"/><path d="M3.61,21.31H1.75a.64.64,0,0,0-.64.64.65.65,0,0,0,.64.65H3.61a.65.65,0,1,0,0-1.29Z" style="fill:#4d4d4d"/><path d="M29,15a.6.6,0,0,0-.07-.49.63.63,0,0,0-.56-.32.71.71,0,0,0-.31.08l-1.45.83a.64.64,0,0,0-.3.4.62.62,0,0,0,.07.48.64.64,0,0,0,.88.24h0l1.44-.83A.59.59,0,0,0,29,15Z" style="fill:#4d4d4d"/><path d="M21.79,10.78a.64.64,0,0,0-.06.49.67.67,0,0,0,.3.4.62.62,0,0,0,.48.06.64.64,0,0,0,.4-.3L23.72,10a.62.62,0,0,0-.24-.88.67.67,0,0,0-.34-.09.59.59,0,0,0-.53.32Z" style="fill:#4d4d4d"/><path d="M3.34,25.53a.64.64,0,0,0,.65.64H28.22a.64.64,0,0,0,.65-.64.66.66,0,0,0-.65-.65H26.28l0-.12a10.93,10.93,0,0,0,.4-2.88,10.63,10.63,0,0,0-21.26,0,10.22,10.22,0,0,0,.4,2.88l0,.12H4A.65.65,0,0,0,3.34,25.53Zm12.75-13a9.35,9.35,0,0,1,9.34,9.35A9.45,9.45,0,0,1,25,24.81l0,.07H7.24l0-.06a9.36,9.36,0,0,1,8.88-12.29Z" style="fill:#4d4d4d"/><path d="M28.55,28.21H3.66a.65.65,0,1,0,0,1.29H28.55a.65.65,0,0,0,.65-.65A.66.66,0,0,0,28.55,28.21Z" style="fill:#4d4d4d"/></g></g><path d="M16.1,10.05a.65.65,0,0,0,.65-.65V4.69l1,1a.64.64,0,1,0,.91-.91L16.58,2.7a.67.67,0,0,0-.93,0L13.54,4.79a.63.63,0,0,0,0,.91.61.61,0,0,0,.44.19h0a.64.64,0,0,0,.45-.19l1-1V9.4A.65.65,0,0,0,16.1,10.05Z" style="fill:#4d4d4d"/></svg>