<svg id="a6766c42-6780-4db4-9f3f-818f2be2911f" data-name="Livello 1" xmlns="http://www.w3.org/2000/svg" viewBox="0 0 32 32"><path d="M13,3.12a15.88,15.88,0,0,0-2.13,4.35,23.82,23.82,0,0,0-1.08,6.81,41.1,41.1,0,0,0,1.59,12.49,26.32,26.32,0,0,0,1.81,4.68l.24.45,2.19-1h0L17.73,32l.27-.44A25.43,25.43,0,0,0,20,27a41,41,0,0,0,2.2-12.39,23.61,23.61,0,0,0-.74-6.86,16,16,0,0,0-1.92-4.45A10.06,10.06,0,0,0,16.62.15h0L16.36,0l-.27.14A9.89,9.89,0,0,0,13,3.12Zm6.6,21.68c-.17.62-.36,1.21-.56,1.77a29.75,29.75,0,0,1-1.61,3.82l-.09.16,0,0-1.65-.88-1.74.82-.07-.17a29.9,29.9,0,0,1-1.43-3.89c-.17-.57-.33-1.17-.48-1.79l0-.11,4-3.76,0,0,3.73,3.92Zm1-4.41c-.15.91-.34,1.83-.56,2.75l-.08.33-.07-.06-4-4.2-4.26,4.06-.06-.33c-.18-.92-.32-1.86-.43-2.78l-.06-.5.24.23L16,15.44l.12.14,4.32,4.53.24-.18ZM15.77,1.66l-.09,3.89,1.08,0,.1-3.89.3.3a11,11,0,0,1,1.55,2,15.25,15.25,0,0,1,1.75,4.13,22.87,22.87,0,0,1,.69,6.48c0,1.33-.13,2.67-.29,4l-.05.39-.07-.08L16,13.91,11,18.7l0-.39c-.09-1.32-.13-2.67-.09-4a22.77,22.77,0,0,1,1-6.44,14.86,14.86,0,0,1,2-4A11.17,11.17,0,0,1,15.46,2Z" style="fill:#4d4d4d"/></svg>