<svg id="e08475be-5aac-4de1-8582-8c58634dfe73" data-name="Livello 1" xmlns="http://www.w3.org/2000/svg" viewBox="0 0 32 32"><path d="M2.24,12.41l4.66-1a.49.49,0,0,1,.59.38s0,.07,0,.1v17h17v-17a.5.5,0,0,1,.5-.5l.14,0,4.62,1,1.16-5.35L21.45,3.31a5.4,5.4,0,0,1-1.57,3.14,5.48,5.48,0,0,1-7.76,0,5.4,5.4,0,0,1-1.57-3.14L1.08,7.06ZM20.46,3.19A29,29,0,0,1,16,3.53a30.34,30.34,0,0,1-4.46-.34,4.39,4.39,0,0,0,1.28,2.55,4.51,4.51,0,0,0,6.36,0A4.39,4.39,0,0,0,20.46,3.19ZM11.11,2.1A28,28,0,0,0,16,2.53a28.06,28.06,0,0,0,4.9-.43h0a.42.42,0,0,1,.27,0l10.5,4.15a.5.5,0,0,1,.31.57l-1.36,6.26a.5.5,0,0,1-.59.38l-4.54-1V29.41a.5.5,0,0,1-.5.5H7a.5.5,0,0,1-.5-.5V12.54L2,13.49a.5.5,0,0,1-.59-.38L0,6.87a.49.49,0,0,1,.3-.59L10.8,2.14a.46.46,0,0,1,.2-.05ZM22,11.49a.5.5,0,0,1,.5.5.5.5,0,0,1-.5.5H18a.5.5,0,0,1-.5-.5.5.5,0,0,1,.5-.5Z" style="fill:#4d4d4d"/></svg>