<svg id="a3d324f7-dcbe-4732-8255-b92f80e60249" data-name="Livello 1" xmlns="http://www.w3.org/2000/svg" viewBox="0 0 32 32"><path d="M.94,26,.78,26a.51.51,0,0,1-.34-.48V23.2a.5.5,0,0,1,.5-.5.5.5,0,0,1,.5.5V24L16.65,3.2a.5.5,0,0,1,.7-.11.51.51,0,0,1,.11.7l-16.12,22A.51.51,0,0,1,.94,26Z" style="fill:#4d4d4d"/><path d="M31.06,26a.51.51,0,0,1-.4-.2l-16.12-22a.51.51,0,0,1,.11-.7.49.49,0,0,1,.7.11L30.56,24V23.2a.5.5,0,0,1,.5-.5.5.5,0,0,1,.5.5v2.29a.51.51,0,0,1-.34.48Z" style="fill:#4d4d4d"/><path d="M27.07,29H19.16a.5.5,0,0,1-.5-.5V23.62A2.54,2.54,0,0,0,16,21a2.54,2.54,0,0,0-2.64,2.65v4.89a.5.5,0,0,1-.5.5h-8a.5.5,0,0,1-.5-.5V23.08a.5.5,0,0,1,.5-.5.5.5,0,0,1,.5.5V28h7V23.62A3.51,3.51,0,0,1,16,20a3.51,3.51,0,0,1,3.64,3.65V28h6.91V23.08a.5.5,0,0,1,.5-.5.5.5,0,0,1,.5.5v5.43A.5.5,0,0,1,27.07,29Z" style="fill:#4d4d4d"/><path d="M12.46,25H6.94a.5.5,0,0,1,0-1h5.52a.5.5,0,1,1,0,1Z" style="fill:#4d4d4d"/><path d="M25.18,25H19.66a.5.5,0,0,1,0-1h5.52a.5.5,0,0,1,0,1Z" style="fill:#4d4d4d"/></svg>