<svg id="a0eaf104-b7c1-4975-9655-f55eb17e6274" data-name="Livello 1" xmlns="http://www.w3.org/2000/svg" viewBox="0 0 32 32"><path d="M28,26H4a2,2,0,0,1-2-2V19.48a.5.5,0,0,1,.5-.5,3.41,3.41,0,0,0,0-6.82.5.5,0,0,1-.5-.5V8A2,2,0,0,1,4,6H28a2,2,0,0,1,2,2v3.66a.5.5,0,0,1-.5.5,3.41,3.41,0,1,0,0,6.82.5.5,0,0,1,.5.5V24A2,2,0,0,1,28,26ZM3,20v4a1,1,0,0,0,1,1H28a1,1,0,0,0,1-1V20a4.41,4.41,0,0,1,0-8.77V8a1,1,0,0,0-1-1H4A1,1,0,0,0,3,8v3.19A4.42,4.42,0,0,1,3,20Z" style="fill:#4d4d4d"/><path d="M16,13.07A1.11,1.11,0,1,0,14.92,12,1.11,1.11,0,0,0,16,13.07Z" style="fill:#4d4d4d"/><path d="M16,17.08A1.11,1.11,0,1,0,14.92,16,1.11,1.11,0,0,0,16,17.08Z" style="fill:#4d4d4d"/><path d="M16,21.09A1.11,1.11,0,1,0,14.92,20,1.1,1.1,0,0,0,16,21.09Z" style="fill:#4d4d4d"/></svg>