<svg id="b239538e-8e40-403c-89ab-fcbd011fa2d3" data-name="Livello 1" xmlns="http://www.w3.org/2000/svg" viewBox="0 0 32 32"><path d="M23.23,15a8.27,8.27,0,1,0,8.27,8.26A8.26,8.26,0,0,0,23.23,15Zm0,15.5a7.24,7.24,0,1,1,7.24-7.24A7.24,7.24,0,0,1,23.23,30.47Z" style="fill:#4d4d4d"/><path d="M26.48,19.25,23.23,22.5l-1.7-1.7a.53.53,0,0,0-.72,0,.52.52,0,0,0,0,.73l2.07,2.07h0l0,0h0l0,0h0l0,0h0l0,0h0l0,0h.36l0,0h0l0,0h0l0,0h0l0,0h0L27.22,20a.53.53,0,0,0,0-.72A.53.53,0,0,0,26.48,19.25Z" style="fill:#4d4d4d"/><path d="M23.23,18.58a.51.51,0,0,0,.52-.51V17a.52.52,0,0,0-1,0v1A.51.51,0,0,0,23.23,18.58Z" style="fill:#4d4d4d"/><path d="M18.07,22.72H17a.52.52,0,0,0,0,1h1a.52.52,0,0,0,0-1Z" style="fill:#4d4d4d"/><path d="M23.23,27.88a.51.51,0,0,0-.51.52v1a.52.52,0,1,0,1,0v-1A.52.52,0,0,0,23.23,27.88Z" style="fill:#4d4d4d"/><path d="M27.88,23.23a.52.52,0,0,0,.52.52h1a.52.52,0,1,0,0-1h-1A.51.51,0,0,0,27.88,23.23Z" style="fill:#4d4d4d"/><path d="M17.5,30.39c-.5.05-1,.08-1.5.08A14.47,14.47,0,0,1,1.57,17a17.56,17.56,0,0,1,4.2,5.88c.58,1.74,3,3.06,4.86,3.19h.28a1.87,1.87,0,0,0,1.81-.89,4.39,4.39,0,0,0-.14-2.93c-.3-1.18-.59-2.29,0-2.93,1.46-1.46,2.61-2.61.75-4.47-.78-.79-2.43-1.17-4-1.54a7.85,7.85,0,0,1-2.64-.86c.22-.44,1.21-.65,2.08-.84,1.43-.32,3.22-.71,3.22-2.39,0-2-2.46-4.62-3.51-5.64A14.44,14.44,0,0,1,22.4,3c-1.25.4-3.31,1.32-3.89,3.07s-1.16,3.48-.41,4.23a1.21,1.21,0,0,0,.9.34,3.12,3.12,0,0,0,.91-.17,6.69,6.69,0,0,0,2-1.1A1.86,1.86,0,0,1,24.08,9,3.75,3.75,0,0,0,28,7.86a14.39,14.39,0,0,1,2.28,5.56l-.11,0a4.57,4.57,0,0,1-2.66-.15c-1.28-.64-5.61-2.52-7.4.18a.51.51,0,0,0,.85.57c1.37-2,5.31-.21,6.09.18a4.26,4.26,0,0,0,1.86.39,8.07,8.07,0,0,0,1.47-.16h0A13.34,13.34,0,0,1,30.47,16a14.72,14.72,0,0,1-.08,1.49h0a.51.51,0,0,0,.46.56h0a.51.51,0,0,0,.55-.46c0-.53.08-1.07.08-1.6a15.5,15.5,0,0,0-31,0h0A15.5,15.5,0,0,0,16,31.5h0c.54,0,1.07,0,1.6-.08h0a.52.52,0,0,0-.12-1ZM27.33,7a2.75,2.75,0,0,1-2.92,1,2.85,2.85,0,0,0-3.13.55,5.8,5.8,0,0,1-1.7.95c-.51.17-.71.12-.75.08-.3-.3.32-2.17.66-3.18.64-1.93,4.07-2.64,4.11-2.65l.08,0A14.43,14.43,0,0,1,27.33,7ZM7.62,4.2C8.75,5.27,11,7.72,11,9.26c0,.79-1,1.06-2.41,1.38-1.16.25-2.35.51-2.78,1.38a1,1,0,0,0,0,.89c.34.72,1.5,1,3.36,1.45,1.37.32,2.93.68,3.51,1.26,1.1,1.09.83,1.43-.75,3-1.05,1.05-.66,2.57-.31,3.92a3.89,3.89,0,0,1,.21,2.21c-.11.23-.52.35-1.09.31C9.22,25,7.18,23.85,6.75,22.58a17.36,17.36,0,0,0-5.21-6.87A14.45,14.45,0,0,1,7.62,4.2Z" style="fill:#4d4d4d"/></svg>