<svg id="b8c7d152-1c37-46e3-95f2-be571df1b665" data-name="Livello 1" xmlns="http://www.w3.org/2000/svg" viewBox="0 0 32 32"><path d="M26,6.32a2.71,2.71,0,0,0-2.71-2.71h-.2v-.2A2.71,2.71,0,0,0,20.36.7H11.64A2.71,2.71,0,0,0,8.93,3.41v.2h-.2A2.71,2.71,0,0,0,6,6.32V22a2.7,2.7,0,0,0,2.71,2.71h2l-.08.15L7.54,30.52a.52.52,0,0,0,.2.71.52.52,0,0,0,.4.05A.54.54,0,0,0,8.46,31l.25-.46H23.28l.26.46a.55.55,0,0,0,.31.25.54.54,0,0,0,.41-.05.51.51,0,0,0,.2-.71l-3.2-5.77h2A2.7,2.7,0,0,0,26,22.05ZM10,3.41a1.65,1.65,0,0,1,1.66-1.65h8.72A1.65,1.65,0,0,1,22,3.41v.2H10Zm0,1.25H22v7.4H18.65l0-.15a2.69,2.69,0,0,0-5.22,0l0,.15H10Zm7.63,7.4H14.39l.18-.3a1.66,1.66,0,0,1,2.86,0Zm4.06,15.6.06.1,1,1.76H9.3l1-1.86Zm-1.84-5.82V23.7H12.16V21.84Zm-7.67-1.05v-.93a.93.93,0,0,1,.93-.92h5.82a.92.92,0,0,1,.92.92v.93Zm7.89,4,.06.11,1,1.75H10.92l1-1.86Zm4.88-2.7a1.66,1.66,0,0,1-1.66,1.65H20.89V19.86a2,2,0,0,0-2-2H13.09a2,2,0,0,0-2,2V23.7H8.73A1.66,1.66,0,0,1,7.07,22V6.32A1.66,1.66,0,0,1,8.73,4.66h.2v7.2a1.25,1.25,0,0,0,1.25,1.26H21.82a1.25,1.25,0,0,0,1.25-1.26V4.66h.2a1.67,1.67,0,0,1,1.66,1.66Z" style="fill:#4d4d4d"/><path d="M10,15.64a.53.53,0,1,0-1.05,0v.72a.53.53,0,1,0,1.05,0Z" style="fill:#4d4d4d"/><path d="M23.07,15.64a.53.53,0,1,0-1.05,0v.72a.53.53,0,1,0,1.05,0Z" style="fill:#4d4d4d"/></svg>