<svg id="fe686b8a-a3c0-408c-959b-b3b0cbe63f8a" data-name="Livello 1" xmlns="http://www.w3.org/2000/svg" viewBox="0 0 32 32"><path d="M6.18,3.86a2.57,2.57,0,0,0,0,3.82,3,3,0,0,0,4,0,2.57,2.57,0,0,0,0-3.82A3.06,3.06,0,0,0,6.18,3.86ZM9.51,7h0A2,2,0,0,1,6.86,7a1.58,1.58,0,0,1,0-2.36,2,2,0,0,1,2.65,0A1.58,1.58,0,0,1,9.51,7Z" style="fill:#4d4d4d"/><path d="M8.18.2a5.84,5.84,0,0,0-6,5.62c0,3.69,5.43,9.68,5.66,9.93l.37.41.37-.41c.23-.26,5.64-6.41,5.64-9.93A5.84,5.84,0,0,0,8.18.2Zm0,14.45c-1.22-1.41-5-6-5-8.83a4.84,4.84,0,0,1,5-4.62,4.84,4.84,0,0,1,5,4.62C13.2,8.47,9.4,13.21,8.18,14.65Z" style="fill:#4d4d4d"/><path d="M26.58,23.19a3.17,3.17,0,0,0-3.26,3.06c0,1.91,2.6,4.81,2.89,5.14l.38.41.36-.42c.3-.33,2.89-3.31,2.89-5.13A3.17,3.17,0,0,0,26.58,23.19Zm0,7.09c-.87-1-2.26-2.92-2.26-4a2.27,2.27,0,0,1,4.52,0C28.84,27.3,27.43,29.24,26.58,30.28Z" style="fill:#4d4d4d"/><path d="M21.06,23.85H13.67a3.41,3.41,0,0,1-3.61-3.15c0-2.24,2.76-2.42,3.61-2.42h5a2.14,2.14,0,0,0,0-4.28h-5a.5.5,0,0,0-.5.5.5.5,0,0,0,.5.5h5a1.14,1.14,0,0,1,0,2.28H13.26a.47.47,0,0,0-.17,0c-2.49.17-4,1.42-4,3.38a4.4,4.4,0,0,0,4.61,4.15h7.39a.5.5,0,0,0,0-1Z" style="fill:#4d4d4d"/></svg>