<svg id="a3fe24f8-327d-4159-a839-61516e57f73c" data-name="Livello 1" xmlns="http://www.w3.org/2000/svg" viewBox="0 0 32 32"><path d="M28.89,25.67a5.65,5.65,0,0,0,1.88-4.17c0-2.67-2.66-3.21-4.26-3.53a11.78,11.78,0,0,1-1.24-.31l-.19-.08.09-.19c.39-.8,2.92-1.83,5-2.32h.26a.61.61,0,0,0,.46-1h0L25.17,7.62a.65.65,0,0,0-.9,0l-2.51,2.81-.15-.16L13.49,1.19a.63.63,0,0,0-.9,0L1.08,14.06a.62.62,0,0,0-.11.65.63.63,0,0,0,.56.36H7.45v.65a.61.61,0,0,0,.61.61h3.3v6.43h-.19s-4.34,0-6.28,0l-3.17,0a.62.62,0,0,0-.61.61.64.64,0,0,0,.49.6l3.28,0c8.79.11,14.69,0,16.5-1.75a1.79,1.79,0,0,0,.56-1.29c0-.95-.88-1.35-1.67-1.7s-1.47-.7-1.5-1.35v-.07l0-.05c.53-.8,4.12-1.56,5.64-1.85l.63-.12-.46.45a2,2,0,0,0-.71,1.41c0,1,1.15,1.28,2.37,1.52,1.93.4,3.29.79,3.29,2.35a4.43,4.43,0,0,1-1.51,3.3c-5.34,5.13-22.37,5-26,4.95a.59.59,0,0,0-.64.57A.65.65,0,0,0,2,31l2,0C9.84,31,23.88,30.48,28.89,25.67ZM8.66,15.12V13h6.88l.81,1.05-.81,1.06ZM21,15.44c-3,.86-3.44,1.67-3.44,2.35,0,1.53,1.29,2.1,2.23,2.53a3.56,3.56,0,0,1,.9.49l.06.07V21a.64.64,0,0,1-.2.38c-.82.8-3.28,1.24-7.76,1.38h-.2v-6.4h3.27a.6.6,0,0,0,.48-.24l.79-1h5.2Zm-3.3-1.58-.05-.1,0-.06L16.32,12a.57.57,0,0,0-.48-.24H12.57v-.88H11.36v.88H8.06a.6.6,0,0,0-.61.6v1.46H2.88L13,2.5l.14.16,8.13,9.08a.59.59,0,0,0,.45.19h0a.6.6,0,0,0,.45-.19l2.51-2.8,4.4,4.92ZM4.89,22.74c-1.1,0-2.16,0-3.17,0a.54.54,0,0,0-.61.61" style="fill:#4d4d4d"/></svg>