<svg width="25" height="25" viewBox="0 0 25 25" fill="none" xmlns="http://www.w3.org/2000/svg">
<path d="M12.7119 24.2373C19.4048 24.2373 24.8305 18.8116 24.8305 12.1186C24.8305 5.4257 19.4048 0 12.7119 0C6.01896 0 0.593262 5.4257 0.593262 12.1186C0.593262 18.8116 6.01896 24.2373 12.7119 24.2373Z" fill="#E6E6E6"/>
<path d="M19.9334 15.9376C19.9334 15.9376 20.027 15.9376 19.9334 15.9376C19.9334 15.2574 19.9334 13.8119 18.4372 13.3017C16.8475 12.9616 15.6318 12.1113 15.6318 12.1113L15.0708 11.6862C15.2578 11.6011 15.3513 11.4311 15.5383 11.261C16.8475 9.90057 16.6605 7.51978 16.6605 7.2647C16.567 5.56413 15.7254 4.79888 14.9772 4.45877C14.3227 4.28871 13.7616 4.11865 13.0135 4.11865C12.6394 4.11865 11.8913 4.11865 11.1432 4.54379C10.3951 4.88391 9.55349 5.64916 9.45998 7.34973C9.45998 7.51978 9.17944 9.9856 10.5821 11.3461C10.6757 11.5161 10.8627 11.6011 10.9562 11.6862L10.1146 12.3664C9.74052 12.6215 8.71188 13.1316 7.58972 13.3867C6.09351 13.8119 6 15.2574 6 15.9376V16.0226C6 16.1927 6 17.0429 6.18703 17.4681C6.18703 17.5531 6.28054 17.6381 6.37405 17.6381C6.46757 17.7232 8.99242 19.1687 13.107 19.1687C17.2216 19.1687 19.6529 17.7232 19.8399 17.6381C19.9334 17.5531 19.9334 17.5531 19.9334 17.4681C20.027 16.9579 19.9334 16.1076 19.9334 15.9376C19.9334 16.0226 19.9334 15.9376 19.9334 15.9376Z" fill="#4D4D4D"/>
</svg>
