<svg id="b60babc7-97c5-4978-8ba6-3708290a2367" data-name="Livello 1" xmlns="http://www.w3.org/2000/svg" viewBox="0 0 32 32"><path d="M30.83,7.31H26c0-.33,0-.66,0-1V3.12a2.43,2.43,0,1,0-4.85,0V6.27c0,.35,0,.7,0,1H5.53a.51.51,0,0,0-.5.5.5.5,0,0,0,.5.5h10V26a.5.5,0,1,0,1,0V8.31h4.72c0,.49.1,1,.18,1.45l.48,2.93H19.11a.84.84,0,0,0-.84.83v2A2.77,2.77,0,0,0,21,18.29h5.08a2.77,2.77,0,0,0,2.77-2.77v-2a.84.84,0,0,0-.84-.83H25.24l.47-3c.07-.46.13-.93.17-1.4h4.95a.18.18,0,0,1,.17.17V30.14a.17.17,0,0,1-.17.17H16.5V28.46a.5.5,0,0,0-1,0v1.85H1.17A.17.17,0,0,1,1,30.14V8.48a.18.18,0,0,1,.17-.17h1.9a.5.5,0,0,0,.5-.5.5.5,0,0,0-.5-.5H1.17A1.17,1.17,0,0,0,0,8.48V30.14a1.17,1.17,0,0,0,1.17,1.17H30.83A1.17,1.17,0,0,0,32,30.14V8.48a1.17,1.17,0,0,0-1.17-1.17Zm-4.71,10H21a1.78,1.78,0,0,1-1.77-1.72h8.62a1.78,1.78,0,0,1-1.77,1.72Zm1.77-2.72H19.27v-.88h8.62Zm-5-1.88L22.39,9.6a20.68,20.68,0,0,1-.27-3.33V3.12a1.43,1.43,0,1,1,2.85,0V6.33a20.45,20.45,0,0,1-.25,3.22l-.5,3.14Z" style="fill:#4d4d4d"/><path d="M8.32,10.58a1.4,1.4,0,0,0-1-.4,1.37,1.37,0,0,0-1,.4L3,14a1.35,1.35,0,0,0-.4,1,1.33,1.33,0,0,0,.4,1L4.48,17.4a1.35,1.35,0,0,0,1.92,0L9.8,14a1.36,1.36,0,0,0,0-1.93Zm.78,2.71L5.7,16.7a.39.39,0,0,1-.52,0L3.69,15.21a.39.39,0,0,1,0-.52l3.4-3.4a.36.36,0,0,1,.52,0L9.1,12.78a.35.35,0,0,1,.1.26.33.33,0,0,1-.1.25Z" style="fill:#4d4d4d"/><path d="M26,24.41a1.36,1.36,0,0,0,1.36-1.36V20.58A1.36,1.36,0,0,0,26,19.21H21.18a1.37,1.37,0,0,0-1.37,1.37v2.47a1.36,1.36,0,0,0,1.37,1.36Zm-5.18-1.36V20.58a.38.38,0,0,1,.37-.37H26a.37.37,0,0,1,.36.37v2.47a.36.36,0,0,1-.36.36H21.18a.37.37,0,0,1-.37-.36Z" style="fill:#4d4d4d"/><path d="M7.51,22.06,4.2,23a1.18,1.18,0,0,0-.53,2L6.1,27.35a1.17,1.17,0,0,0,.82.34,1.06,1.06,0,0,0,.31,0,1.18,1.18,0,0,0,.84-.83L9,23.51a1.18,1.18,0,0,0-1.44-1.45ZM8,23.25,7.1,26.56a.17.17,0,0,1-.13.13.19.19,0,0,1-.17-.05L4.38,24.21a.18.18,0,0,1,0-.17.17.17,0,0,1,.13-.12L7.77,23a.17.17,0,0,1,.17,0,.16.16,0,0,1,0,.17Z" style="fill:#4d4d4d"/><path d="M10.6,19.82a3.87,3.87,0,0,1-.48,0,.5.5,0,1,0-.12,1,4,4,0,0,0,.6,0c1.84,0,3.27-.95,3.27-2.15s-1.43-2.15-3.27-2.15-2.2.94-2.2,2.15a1.54,1.54,0,0,0,.18.72.49.49,0,0,0,.67.21.5.5,0,0,0,.22-.67.51.51,0,0,1-.07-.26c0-.55-.14-1.15,1.2-1.15s2.27.6,2.27,1.15-.93,1.15-2.27,1.15Z" style="fill:#4d4d4d"/><path d="M22.59,22.33h2a.51.51,0,0,0,0-1h-2a.51.51,0,0,0,0,1Z" style="fill:#4d4d4d"/></svg>