<svg id="efb76034-4277-48fc-be77-50f9fd2d88fd" data-name="Livello 1" xmlns="http://www.w3.org/2000/svg" viewBox="0 0 32 32"><g id="af858509-ae7c-4a85-857b-3d00434ad9d2" data-name="Page-1"><g id="b37aebbe-2c81-4390-8b5c-b13344ea4e9c" data-name="016---Volcano"><g id="a5b87619-e337-40e5-856d-4d00c288b598" data-name="Shape"><path d="M14,9a1.49,1.49,0,0,0-1.41,1H11.48A1.49,1.49,0,0,0,10,11.45c-.08,2.75-.5,7.86-2.42,11.31a31.56,31.56,0,0,1-6.38,7.35.52.52,0,0,0-.15.56A.5.5,0,0,0,1.5,31h29a.5.5,0,0,0,.32-.88,32.22,32.22,0,0,1-6.34-7.36c-1.91-3.45-2.36-8.57-2.46-11.31A1.48,1.48,0,0,0,20.53,10h-1.1A1.49,1.49,0,0,0,18,9h0V8h5a2,2,0,0,0,1.72-1,2,2,0,0,0-1.78-3,2,2,0,0,0-3.19-1.06,2,2,0,0,0-1.45-.43,2.51,2.51,0,0,0-4.6,0,2,2,0,0,0-1.45.43A2,2,0,0,0,9.06,4,2,2,0,1,0,9,8h5V9ZM29.19,30H22.68a6.49,6.49,0,0,1-2.19-3.12.51.51,0,0,0-.61-.37.5.5,0,0,0-.36.61A7,7,0,0,0,21.2,30H15.6a59.71,59.71,0,0,0,.9-7,.5.5,0,0,0-1,0,61.89,61.89,0,0,1-.92,7H8.12a25.4,25.4,0,0,0,2.31-3.24.52.52,0,0,0,0-.51A.48.48,0,0,0,10,26a.52.52,0,0,0-.44.25A22.75,22.75,0,0,1,6.78,30h-4a29.86,29.86,0,0,0,5.62-6.76q.24-.43.45-.9a2.63,2.63,0,0,0,4,1.4C14.18,22.88,15,20.82,15,18.5c0-1.2.44-2,1.18-2.27a1.24,1.24,0,0,1,1.4.55,10.84,10.84,0,0,1,.71,2.31c.75,3,1.86,7.49,5,7.49a3.75,3.75,0,0,0,.82-.09A6.52,6.52,0,0,0,25.48,26a36.8,36.8,0,0,0,3.71,4ZM18.52,10.47A30.4,30.4,0,0,0,19,14.6a.5.5,0,0,0,.49.4h.1a.55.55,0,0,0,.32-.22A.48.48,0,0,0,20,14.4a30.09,30.09,0,0,1-.43-3.4h1a.5.5,0,0,1,.49.48c.1,2.84.57,8.14,2.58,11.76a19.2,19.2,0,0,0,1.26,2,5.48,5.48,0,0,1-1,.31c-2.6.58-3.67-2.82-4.63-6.66a9.86,9.86,0,0,0-.85-2.63,2.23,2.23,0,0,0-2.52-.94C15,15.55,14,16.54,14,18.5s-.66,3.74-1.65,4.41a1.67,1.67,0,0,1-1.66.13c-.59-.24-1.17-1.16-1.06-2.63A34.53,34.53,0,0,0,11,11.49a.49.49,0,0,1,.5-.49h1A30.09,30.09,0,0,1,12,14.4a.5.5,0,0,0,.15.49.51.51,0,0,0,.5.1.54.54,0,0,0,.33-.4,30,30,0,0,0,.48-4.13A.49.49,0,0,1,14,10h4a.48.48,0,0,1,.5.47ZM15,7a2,2,0,0,0-2-2,.5.5,0,0,0-.5.5A.5.5,0,0,0,13,6a1,1,0,0,1,1,1H9a1,1,0,0,1-.93-.6A1,1,0,0,1,9.33,5.06.47.47,0,0,0,9.79,5,.48.48,0,0,0,10,4.59a.28.28,0,0,0,0-.09A1,1,0,0,1,11.83,4a.53.53,0,0,0,.84,0,1,1,0,0,1,1.19-.38.51.51,0,0,0,.42,0,.49.49,0,0,0,.25-.34,1.5,1.5,0,0,1,2.94,0,.49.49,0,0,0,.25.34.51.51,0,0,0,.42,0,1,1,0,0,1,1.2.38.51.51,0,0,0,.41.21A.53.53,0,0,0,20.17,4,1,1,0,0,1,22,4.47s0,.1,0,.12a.48.48,0,0,0,.22.41.47.47,0,0,0,.46.06A1,1,0,0,1,23.93,6.4,1,1,0,0,1,23,7H18a1,1,0,0,1,1-1,.5.5,0,0,0,.5-.5A.5.5,0,0,0,19,5a2,2,0,0,0-2,2V9H15Z" style="fill:#4d4d4d"/></g></g></g></svg>