<svg id="a433b84a-5193-4d9c-bc01-ba8c127e252b" data-name="Livello 1" xmlns="http://www.w3.org/2000/svg" viewBox="0 0 32 32"><path d="M28.55,7.84V3.45A1.45,1.45,0,0,0,27.1,2H6.83A3.38,3.38,0,0,0,3.45,5.38v8.89c-1.16.4-1.93,1-1.93,1.73V27.59c0,1.65,3.63,2.41,7,2.41s7-.76,7-2.41V27.1H28.07a2.41,2.41,0,0,0,2.41-2.41V10.21A2.42,2.42,0,0,0,28.55,7.84ZM6.83,3H27.1a.48.48,0,0,1,.49.48V4.9H5.86a.48.48,0,1,0,0,1H27.59V7.79H6.83A2.41,2.41,0,1,1,6.83,3Zm7.72,24.62c0,.43-2.05,1.44-6,1.44s-6-1-6-1.44V26a13.58,13.58,0,0,0,6,1.11,13.53,13.53,0,0,0,6-1.11Zm0-2.9c0,.43-2.05,1.45-6,1.45s-6-1-6-1.45V23.1a13.72,13.72,0,0,0,6,1.11,13.67,13.67,0,0,0,6-1.11Zm0-2.9c0,.44-2.05,1.45-6,1.45s-6-1-6-1.45V20.2a13.58,13.58,0,0,0,6,1.11,13.53,13.53,0,0,0,6-1.11Zm0-2.89c0,.43-2.05,1.44-6,1.44s-6-1-6-1.44V17.3a13.58,13.58,0,0,0,6,1.11,13.53,13.53,0,0,0,6-1.11Zm-6-1.45c-4,0-6-1-6-1.45s2.06-1.45,6-1.45,6,1,6,1.45S12.5,17.45,8.52,17.45Zm21,1.45H27.1a1.45,1.45,0,0,1,0-2.9h2.42Zm0-3.87H27.1a2.42,2.42,0,0,0,0,4.83h2.42v4.83a1.46,1.46,0,0,1-.43,1,1.41,1.41,0,0,1-1,.43H15.52V16c0-1.66-3.63-2.41-7-2.41A18.92,18.92,0,0,0,4.41,14V7.74a3.4,3.4,0,0,0,2.42,1H28.07a1.45,1.45,0,0,1,1.45,1.45Z" style="fill:#4d4d4d"/><path d="M26.62,17.45A.49.49,0,1,0,27.1,17,.48.48,0,0,0,26.62,17.45Z" style="fill:#4d4d4d"/><path d="M18.9,9.72h-1a.49.49,0,0,0,0,1h1a.49.49,0,0,0,0-1Z" style="fill:#4d4d4d"/><path d="M28.07,9.72H20.83a.49.49,0,1,0,0,1h7.24a.49.49,0,0,0,0-1Z" style="fill:#4d4d4d"/></svg>