<svg id="eea5445a-a44e-462f-b4a1-747ff4914594" data-name="Livello 1" xmlns="http://www.w3.org/2000/svg" viewBox="0 0 32 32"><path d="M12.05,2.83a.6.6,0,0,0-1.2,0V4.76a.6.6,0,1,0,1.2,0Z" style="fill:#4d4d4d"/><path d="M0,9.25a.58.58,0,0,0,.28.37l1.67,1a.61.61,0,0,0,.46.06.6.6,0,0,0,.14-1.1L.9,8.58A.52.52,0,0,0,.6,8.5a.6.6,0,0,0-.52.3A.59.59,0,0,0,0,9.25Z" style="fill:#4d4d4d"/><path d="M2.43,20.08a.62.62,0,0,0-.46.06L.3,21.1a.6.6,0,0,0-.22.82.58.58,0,0,0,.37.28.55.55,0,0,0,.45-.06l1.67-1a.6.6,0,0,0-.14-1.1Z" style="fill:#4d4d4d"/><path d="M20,9.91a.6.6,0,0,0,.43.73.59.59,0,0,0,.45-.06l1.67-1a.6.6,0,0,0,.22-.82.58.58,0,0,0-.52-.3.54.54,0,0,0-.3.08l-1.67,1A.58.58,0,0,0,20,9.91Z" style="fill:#4d4d4d"/><path d="M11.89,29.76H23.66c1.88,0,2.54,0,2.6,0l.08,0A6.37,6.37,0,0,0,32,23.41a6.25,6.25,0,0,0-2-4.66,6.41,6.41,0,0,0-4.8-1.67l-.26,0-.1-.25a6.89,6.89,0,0,0-6.33-4.26h-.26l-.09-.22a7.31,7.31,0,1,0-10.6,9.15l.3.19-.19.3a5.05,5.05,0,0,0,4.26,7.75Zm6.58-16a5.64,5.64,0,0,1,5.43,4.15.61.61,0,0,0,.7.43,5.15,5.15,0,0,1,6.2,5,5.17,5.17,0,0,1-4.73,5.13c-.15,0-1.64,0-5.3,0H11.89a3.84,3.84,0,1,1,.35-7.67.58.58,0,0,0,.49-.19.57.57,0,0,0,.16-.5,5.63,5.63,0,0,1,5.58-6.41ZM5.34,15.36a6.11,6.11,0,0,1,11.42-3l.22.39-.43.13a6.79,6.79,0,0,0-4.91,6.49v.31l-.31,0a5,5,0,0,0-2.45,1l-.18.14-.21-.11A6.12,6.12,0,0,1,5.34,15.36Z" style="fill:#4d4d4d"/></svg>