<svg id="a90e7037-2568-4f69-9946-3fb7a4939acf" data-name="Livello 1" xmlns="http://www.w3.org/2000/svg" viewBox="0 0 32 32"><path d="M30.31,28.17l-1.8-2.32a18.63,18.63,0,0,0-6.3-5.2,9,9,0,0,0,2.52-4.88L26.2,6.9a.58.58,0,0,0-.28-.6l-9-5.22a.59.59,0,0,0-.66,0l-7,5.72A9,9,0,0,0,6,13.06v.06a17.61,17.61,0,0,1-.52-1.89,2,2,0,0,0-3.44-.88,2,2,0,0,0-.49,1.56A23.93,23.93,0,0,0,7,24.34a15.48,15.48,0,0,0,1.11,1.18L7,27.51,3.86,25.7a.58.58,0,0,0-.59,1l7.29,4.21a.67.67,0,0,0,.3.08.58.58,0,0,0,.29-1.09L8,28.09l1-1.77a16.66,16.66,0,0,0,4.11,2.51l5,2.12a.48.48,0,0,0,.23.05.57.57,0,0,0,.54-.36.58.58,0,0,0-.31-.77l-5.05-2.12a15.08,15.08,0,0,1-5.66-4.17A22.65,22.65,0,0,1,2.75,11.77a.81.81,0,0,1,.2-.65.78.78,0,0,1,.61-.28.82.82,0,0,1,.8.64,20.83,20.83,0,0,0,3.12,7.21l.25.35A20.51,20.51,0,0,0,10,21.66l2.23,2.23a1.88,1.88,0,0,0,2.66,0,1.88,1.88,0,0,0,0-2.65l-3.77-3.76a1.14,1.14,0,0,1-.32-.8,1.1,1.1,0,0,1,.32-.79,1.12,1.12,0,0,1,1.59,0l.85.84A18.31,18.31,0,0,0,20,21a17.62,17.62,0,0,1,7.56,5.61l1.79,2.32a.59.59,0,0,0,.82.1A.58.58,0,0,0,30.31,28.17ZM10,7.75,16.64,2.3l1.49.86L15,5.74a.59.59,0,0,0,.37,1,.6.6,0,0,0,.38-.13l3.48-2.87L25,7.11,24,13c-.44.32-3.43,2.22-8.21-.36a9.86,9.86,0,0,0-6.93-1.24,7.27,7.27,0,0,0-1.46.5A7.86,7.86,0,0,1,10,7.75Zm3.5,15.52a.67.67,0,0,1-.5-.21l-.47-.46.15.06a10.14,10.14,0,0,0,1.33.39h0A.69.69,0,0,1,13.51,23.27Zm.83-7.37-.85-.84a2.28,2.28,0,0,0-3.24,0,2.27,2.27,0,0,0,0,3.24l3.46,3.46a4.69,4.69,0,0,1-.6-.2,11.07,11.07,0,0,1-3-1.76,7.78,7.78,0,0,1-1.37-1.44A3.71,3.71,0,0,1,8.46,18,7.8,7.8,0,0,1,7.18,13.4c.68-.48,3.55-2.11,8,.31a11.11,11.11,0,0,0,5.32,1.47A8.54,8.54,0,0,0,22.17,15a7.16,7.16,0,0,0,1.58-.51l-.18,1.06a7.8,7.8,0,0,1-2.5,4.54l-.62-.25A17.35,17.35,0,0,1,14.34,15.9Z" style="fill:#4d4d4d"/><path d="M13.77,8.09a.58.58,0,0,0,.41-1,.59.59,0,0,0-.41-.18.59.59,0,0,0,0,1.18Z" style="fill:#4d4d4d"/></svg>