<svg id="fe17631e-23db-4ce1-b4bd-d0fd1b59644f" data-name="Livello 1" xmlns="http://www.w3.org/2000/svg" viewBox="0 0 32 32"><path d="M5.52,9c.3-.37.61-.73,1-1.08a12.64,12.64,0,0,1,1-.93h0a.47.47,0,0,0,.06-.67h0a.47.47,0,0,0-.66,0c-.38.32-.74.65-1.09,1a14.28,14.28,0,0,0,20.42,20h0A14.27,14.27,0,0,0,26,7h0c-.36-.34-.73-.67-1.11-1h0a.47.47,0,0,0-.66.09.48.48,0,0,0,.09.67c.36.29.7.59,1,.91a13.33,13.33,0,0,1,.86,18.14,16,16,0,0,1,1-6.57c.74-1.53,0-3.94-1.14-5.23l-.18-.19a1.72,1.72,0,0,0-1.76-.58c-.81.28-1.31,1.17-1.8,2s-1.08,1.89-1.91,1.9c-1.9,0-3.4,0-3.37,2.47,0,1,.84,2.33,1.65,3.59.48.74,1.27,2,1.18,2.27-.42.14-1.21-.35-1.91-.78-1.15-.72-2.57-1.62-3.66-.51-1.29,1.33-1.35,4.63-1.31,6A13.35,13.35,0,0,1,3.43,21.6c1.09.54,3,1.27,4.54.49s3-1.54,3-2.53a1.11,1.11,0,0,0-.38-.8,2.83,2.83,0,0,0-.71-.47,6.08,6.08,0,0,0-2-.56,1.73,1.73,0,0,1-1.7-1.14,3.42,3.42,0,0,0-3.29-1.74A13.15,13.15,0,0,1,5,9.72ZM2.75,15.81A2.55,2.55,0,0,1,5.33,17a2.62,2.62,0,0,0,2.41,1.64,5.25,5.25,0,0,1,1.73.48c.44.21.55.38.55.42,0,.4-1.61,1.23-2.48,1.67-1.67.86-4.39-.87-4.41-.89l-.08,0A13.11,13.11,0,0,1,2.75,15.81ZM13.92,30.34c-.05-1.42.05-4.48,1-5.49.51-.52,1.31-.09,2.48.64.92.58,1.87,1.17,2.72.88a1,1,0,0,0,.59-.57c.24-.69-.33-1.64-1.28-3.11A8.34,8.34,0,0,1,18,19.6c0-1.43.37-1.48,2.43-1.5,1.37,0,2.09-1.28,2.72-2.39.41-.7.82-1.43,1.29-1.59.23-.08.57.11.92.5.9,1,1.54,3.07,1,4.18a15.84,15.84,0,0,0-1,7.89A13.3,13.3,0,0,1,13.92,30.34Z" style="fill:#4d4d4d"/><polygon points="10.59 18.76 10.59 18.76 10.59 18.76 10.59 18.76" style="fill:#4d4d4d"/><path d="M12.41,12.71a.47.47,0,0,1-.28-.09.5.5,0,0,1-.21-.49l.58-3.94L9.59,5.47A.49.49,0,0,1,9.45,5a.5.5,0,0,1,.39-.35L13.78,4,15.46.33a.5.5,0,0,1,.9,0l1.85,3.54,3.95.49a.51.51,0,0,1,.42.33.5.5,0,0,1-.12.51L19.67,8l.76,3.91a.5.5,0,0,1-.72.55l-3.57-1.78-3.49,1.93A.42.42,0,0,1,12.41,12.71ZM11,5.43l2.37,2.2a.49.49,0,0,1,.15.44l-.47,3.21,2.83-1.57a.47.47,0,0,1,.46,0l2.9,1.44L18.63,8a.48.48,0,0,1,.14-.44L21,5.21l-3.22-.4a.5.5,0,0,1-.38-.27l-1.5-2.87L14.57,4.61a.49.49,0,0,1-.37.28Z" style="fill:#4d4d4d"/></svg>