<svg width="46" height="30" viewBox="0 0 46 30" fill="none" xmlns="http://www.w3.org/2000/svg">
<path d="M27.4194 4.08594H34.4086C35.6989 4.08594 36.8817 4.30099 37.957 4.62357C39.0323 4.94615 40 5.48378 40.8602 6.12894C41.7204 6.7741 42.2581 7.63432 42.7957 8.60206C43.2258 9.56981 43.4409 10.7526 43.4409 11.9354C43.4409 12.9031 43.3333 13.7634 43.0107 14.516C42.6882 15.2687 42.3656 15.8064 42.043 16.2365C41.6129 16.7741 41.1828 17.2042 40.6452 17.5268L45.2688 25.4838L44.086 29.9999L39.5699 28.8171L33.7634 19.0322V24.1935H27.3118L27.4194 4.08594ZM33.871 14.0859H34.1935C34.9462 14.0859 35.5914 13.8709 36.129 13.5483C36.6667 13.2257 36.8817 12.5806 36.8817 11.8279C36.8817 10.9677 36.6667 10.43 36.129 10.1074C35.5914 9.78486 34.9462 9.56981 34.1935 9.56981H33.871V14.0859Z" fill="#4D4D4D"/>
<path d="M0 4.08602L2.04301 0L6.12903 2.04301L9.13978 11.1828L11.5054 4.08602H15.914L18.2796 11.1828L20.6452 4.08602H27.5269L20.8602 24.3011H15.6989L13.6559 18.172L11.6129 24.3011H6.55914L0 4.08602Z" fill="#FF4758"/>
</svg>
