<svg width="129" height="35" viewBox="0 0 129 35" fill="none" xmlns="http://www.w3.org/2000/svg">
<path d="M48.8503 4.76392H56.9433C58.4059 4.76392 59.8685 4.95836 61.1361 5.34725C62.4036 5.73614 63.5737 6.31947 64.4512 7.09725C65.4263 7.87503 66.1088 8.84725 66.6939 10.0139C67.1814 11.1806 67.4739 12.4445 67.4739 13.9028C67.4739 15.0695 67.2789 16.0417 66.9864 16.9167C66.6939 17.6945 66.3039 18.375 65.9138 18.9584C65.4263 19.5417 64.9388 20.125 64.3537 20.5139L69.7166 29.75L68.3515 35L63.0862 33.6389L56.3583 22.2639V28.1945H48.8503V4.76392ZM56.3583 16.3334H56.7483C57.6259 16.3334 58.4059 16.1389 58.9909 15.75C59.576 15.3611 59.966 14.6806 59.966 13.7084C59.966 12.7361 59.6735 12.0556 58.9909 11.6667C58.4059 11.2778 57.6259 11.0834 56.7483 11.0834H56.3583V16.3334Z" fill="white"/>
<path d="M66.3038 16.5278C66.3038 14.8751 66.5964 13.2223 67.2789 11.7639C67.9614 10.3056 68.839 8.9445 69.9115 7.87506C70.9841 6.80561 72.3492 5.83339 73.8118 5.25005C75.2744 4.5695 76.932 4.27783 78.5896 4.27783C80.2471 4.27783 81.9047 4.5695 83.3673 5.25005C84.8299 5.93061 86.195 6.80561 87.2676 7.87506C88.3401 8.9445 89.3152 10.3056 89.9002 11.7639C90.5828 13.2223 90.8753 14.8751 90.8753 16.5278C90.8753 18.1806 90.5828 19.8334 89.9002 21.2917C89.2177 22.7501 88.3401 24.1112 87.2676 25.1806C86.195 26.2501 84.8299 27.2223 83.3673 27.8056C81.9047 28.4862 80.2471 28.7778 78.5896 28.7778C76.932 28.7778 75.2744 28.4862 73.8118 27.8056C72.3492 27.1251 70.9841 26.2501 69.9115 25.1806C68.839 24.1112 67.8639 22.7501 67.2789 21.2917C66.5964 19.8334 66.3038 18.1806 66.3038 16.5278ZM73.7143 16.5278C73.7143 17.2084 73.8118 17.8889 74.1043 18.4723C74.3968 19.0556 74.6893 19.6389 75.1769 20.0278C75.6644 20.5139 76.1519 20.8056 76.7369 21.0973C77.322 21.3889 78.0045 21.4862 78.6871 21.4862C79.3696 21.4862 80.0521 21.3889 80.6372 21.0973C81.2222 20.8056 81.8072 20.5139 82.1973 20.0278C82.6848 19.5417 82.9773 19.0556 83.2698 18.4723C83.5623 17.8889 83.6599 17.2084 83.6599 16.5278C83.6599 15.8473 83.5623 15.1667 83.2698 14.5834C82.9773 14.0001 82.6848 13.4167 82.1973 13.0278C81.7097 12.5417 81.2222 12.2501 80.6372 11.9584C80.0521 11.6667 79.3696 11.5695 78.6871 11.5695C78.0045 11.5695 77.322 11.6667 76.7369 11.9584C76.1519 12.2501 75.5669 12.5417 75.1769 13.0278C74.6893 13.5139 74.3968 14.0001 74.1043 14.5834C73.9093 15.1667 73.7143 15.8473 73.7143 16.5278Z" fill="white"/>
<path d="M95.5556 4.76392H101.211L110.181 28.2917H102.771L101.991 26.1528H94.873L94.093 28.2917H86.6826L95.5556 4.76392ZM99.9433 21L98.3832 16.9167L96.8231 21H99.9433Z" fill="white"/>
<path d="M108.426 28.2917V4.76392H114.959C117.202 4.76392 119.152 5.05558 120.907 5.54169C122.662 6.0278 124.125 6.80558 125.295 7.77781C126.465 8.75003 127.342 10.0139 128.025 11.4723C128.61 12.9306 129 14.6806 129 16.5278C129 18.4723 128.707 20.125 128.025 21.5834C127.44 23.0417 126.465 24.3056 125.295 25.2778C124.125 26.25 122.662 27.0278 120.907 27.5139C119.152 28 117.202 28.2917 114.959 28.2917H108.426ZM115.934 21.5834C117.689 21.5834 119.054 21.1945 120.029 20.3195C121.005 19.4445 121.492 18.1806 121.492 16.5278C121.492 14.7778 121.005 13.5139 120.029 12.7361C119.054 11.9584 117.689 11.4723 115.934 11.4723V21.5834Z" fill="white"/>
<path d="M30.2267 4.76392H47.1927V10.8889H37.7347V13.5139H43.975V19.3473H37.7347V22.0695H47.3877V28.1945H30.2267V4.76392Z" fill="#FF4758"/>
<path d="M0 4.76389L2.43764 0L7.21542 2.43056L10.7256 13.0278L13.4558 4.86111H18.6236L21.3537 13.0278L24.0839 4.86111H32.0794L24.2789 28.3889H18.4286L16.0884 21.2917L13.6508 28.2917H7.80045L0 4.76389Z" fill="#FF4758"/>
</svg>
