<svg width="122" height="33" viewBox="0 0 122 33" fill="none" xmlns="http://www.w3.org/2000/svg">
<path d="M45.925 4.4917H53.5333C54.9083 4.4917 56.2833 4.67503 57.475 5.0417C58.6667 5.40837 59.7667 5.95837 60.5917 6.6917C61.5083 7.42503 62.15 8.3417 62.7 9.4417C63.1583 10.5417 63.4333 11.7334 63.4333 13.1084C63.4333 14.2084 63.25 15.125 62.975 15.95C62.7 16.6834 62.3333 17.325 61.9667 17.875C61.5083 18.425 61.05 18.975 60.5 19.3417L65.5417 28.05L64.2583 33L59.3083 31.7167L52.9833 20.9917V26.5834H45.925V4.4917ZM52.9833 15.4H53.35C54.175 15.4 54.9083 15.2167 55.4583 14.85C56.0083 14.4834 56.375 13.8417 56.375 12.925C56.375 12.0084 56.1 11.3667 55.4583 11C54.9083 10.6334 54.175 10.45 53.35 10.45H52.9833V15.4Z" fill="#4D4D4D"/>
<path d="M62.3333 15.5834C62.3333 14.0251 62.6083 12.4668 63.25 11.0918C63.8916 9.71678 64.7166 8.43345 65.725 7.42511C66.7333 6.41678 68.0166 5.50011 69.3916 4.95011C70.7666 4.30845 72.325 4.03345 73.8833 4.03345C75.4416 4.03345 77 4.30845 78.375 4.95011C79.75 5.59178 81.0333 6.41678 82.0416 7.42511C83.05 8.43345 83.9666 9.71678 84.5166 11.0918C85.1583 12.4668 85.4333 14.0251 85.4333 15.5834C85.4333 17.1418 85.1583 18.7001 84.5166 20.0751C83.875 21.4501 83.05 22.7334 82.0416 23.7418C81.0333 24.7501 79.75 25.6668 78.375 26.2168C77 26.8584 75.4416 27.1334 73.8833 27.1334C72.325 27.1334 70.7666 26.8584 69.3916 26.2168C68.0166 25.5751 66.7333 24.7501 65.725 23.7418C64.7166 22.7334 63.8 21.4501 63.25 20.0751C62.6083 18.7001 62.3333 17.1418 62.3333 15.5834ZM69.3 15.5834C69.3 16.2251 69.3916 16.8668 69.6666 17.4168C69.9416 17.9668 70.2166 18.5168 70.675 18.8834C71.1333 19.3418 71.5916 19.6168 72.1416 19.8918C72.6916 20.1668 73.3333 20.2584 73.975 20.2584C74.6166 20.2584 75.2583 20.1668 75.8083 19.8918C76.3583 19.6168 76.9083 19.3418 77.275 18.8834C77.7333 18.4251 78.0083 17.9668 78.2833 17.4168C78.5583 16.8668 78.65 16.2251 78.65 15.5834C78.65 14.9418 78.5583 14.3001 78.2833 13.7501C78.0083 13.2001 77.7333 12.6501 77.275 12.2834C76.8166 11.8251 76.3583 11.5501 75.8083 11.2751C75.2583 11.0001 74.6166 10.9084 73.975 10.9084C73.3333 10.9084 72.6916 11.0001 72.1416 11.2751C71.5916 11.5501 71.0416 11.8251 70.675 12.2834C70.2166 12.7418 69.9416 13.2001 69.6666 13.7501C69.4833 14.3001 69.3 14.9418 69.3 15.5834Z" fill="#4D4D4D"/>
<path d="M89.8333 4.4917H95.15L103.583 26.675H96.6167L95.8833 24.6584H89.1917L88.4583 26.675H81.4917L89.8333 4.4917ZM93.9583 19.8L92.4917 15.95L91.025 19.8H93.9583Z" fill="#4D4D4D"/>
<path d="M101.933 26.675V4.4917H108.075C110.183 4.4917 112.017 4.7667 113.667 5.22503C115.317 5.68337 116.692 6.4167 117.792 7.33337C118.892 8.25003 119.717 9.4417 120.358 10.8167C120.908 12.1917 121.275 13.8417 121.275 15.5834C121.275 17.4167 121 18.975 120.358 20.35C119.808 21.725 118.892 22.9167 117.792 23.8334C116.692 24.75 115.317 25.4834 113.667 25.9417C112.017 26.4 110.183 26.675 108.075 26.675H101.933ZM108.992 20.35C110.642 20.35 111.925 19.9834 112.842 19.1584C113.758 18.3334 114.217 17.1417 114.217 15.5834C114.217 13.9334 113.758 12.7417 112.842 12.0084C111.925 11.275 110.642 10.8167 108.992 10.8167V20.35Z" fill="#4D4D4D"/>
<path d="M28.4167 4.4917H44.3667V10.2667H35.475V12.7417H41.3417V18.2417H35.475V20.8084H44.55V26.5834H28.4167V4.4917Z" fill="#FF4758"/>
<path d="M0 4.49167L2.29167 0L6.78333 2.29167L10.0833 12.2833L12.65 4.58333H17.5083L20.075 12.2833L22.6417 4.58333H30.1583L22.825 26.7667H17.325L15.125 20.075L12.8333 26.675H7.33333L0 4.49167Z" fill="#FF4758"/>
</svg>
